<svg width="635" height="460" viewBox="0 0 635 460" fill="none" xmlns="http://www.w3.org/2000/svg">
<path d="M37.7999 411.4C30.4999 411.3 23.1999 411.1 15.8999 411.2C12.6999 411.2 11.5999 410.2 11.5999 406.9C11.3999 391.6 16.2999 378.8 29.4999 370.1C30.0999 369.7 30.4999 369.2 31.0999 368.9C49.2999 360 59.6999 344.5 67.7999 326.6C73.4999 313.9 80.8999 302 87.4999 289.6C88.6999 287.3 90.5999 285.2 90.6999 282.4H90.5999C90.8999 282.1 91.2999 281.7 91.5999 281.4C94.4999 276.6 97.3999 271.8 100.2 267C104 260.3 103.9 260.3 109.3 265.7C111 267.4 112.9 269.8 114.8 265.8C115.9 265.5 116.6 264.9 116.7 263.7C118.3 262.3 118.8 260.4 119.1 258.4L119.3 258.1C121.6 253 117.5 249.9 115.4 246.1C123.2 239.1 132.5 236.2 142.7 235.2C145.6 235.3 148.5 235.3 151.4 235.4C156.6 236.5 161.3 238.9 166.6 239.4C166.5 240.2 167 240.5 167.5 240.7C168.7 241.5 170 241.4 171.3 241.3C171.9 245.5 170.7 250.3 174.5 253.7C175.2 256.4 176.6 258.6 179.5 259.5C180.3 260.6 181.4 260.6 182.6 260.4C184 261 185.3 261.7 186.7 262.3C187.3 262.6 187.9 263 188.5 263.3C189.9 265.9 191.1 268.6 192.6 271.2C199.4 282.9 205.2 295.1 212.5 306.5C210.9 310.9 209.4 315.3 207.7 319.6C202.1 333.2 203.3 345.3 214.9 355.3C216.9 357 216.6 358.4 215.4 360.4C210.3 369 205.4 377.7 200.4 386.3C194.8 382.7 194 382.9 188.2 389.3C174 344.8 159.8 300.4 145.6 255.6C143.5 257.6 143.4 259.8 142.7 261.8C127.3 309.8 112.1 357.8 96.6999 405.7C96.0999 407.7 95.9999 410.1 93.4999 411C86.1999 411 78.8999 410.9 71.5999 411C60.3999 411.2 49.0999 410.4 37.7999 411.4Z" fill="#A359DB"/>
<path d="M540.3 200.9C536.6 195.8 532.8 190.8 529.1 185.7C535.6 179.9 542.1 174.1 548.7 168.3C562.3 184.5 575.6 200.8 590 216.3C591.7 218.1 593 220.3 594.3 222.4C603.7 238.1 595.1 254.7 576.9 256.5C569.1 257.3 561.7 255.5 554.4 253.2C547.7 250.3 541.9 245.8 535.6 242.2C522.8 232.6 509.9 223.1 496.9 213.4C493 222.2 489.3 230.2 482.2 236C473.1 243.4 463.8 241.6 457.9 231.5C455.8 227.8 454.7 223.8 453.1 219.6C444.5 246.6 435.8 273.6 427.2 300.6C426 299.8 425 298.7 423.3 298.6C414.6 298.2 406 296.7 397.3 297.6C406.6 274.1 415.9 250.7 425.2 227.2C425.4 226.7 425.5 226.3 425.7 225.8C442.8 224.8 451.2 218.5 456.3 202.7C457.3 199.7 458.2 196.7 459.2 193.7C466.6 193.7 472.2 190.3 476.2 184.3C483.9 184.9 491.1 187.3 498.3 189.8C512.1 194.6 526.1 198.7 540.1 202.8C546.5 211.5 552.8 220.2 559.2 228.8C559.9 229.8 560.9 231.5 562.3 230.4C564.2 229 562.3 227.8 561.5 226.7C555.8 219 550 211.3 544.3 203.6C543.3 202.1 542.2 200.9 540.3 200.9ZM495 204C494.8 200.2 493.2 197.4 490.1 195.5C489.4 195.1 488.6 194.8 487.8 195.5C487.1 196.2 486.9 197.1 487.7 197.6C492.9 201.1 492.6 205.3 489.5 210C489 210.8 488.9 211.7 489.6 212.2C490.6 213 491.5 212.5 492.1 211.6C494 209.3 494.9 206.7 495 204ZM481.8 212.5C481.6 208.5 480.5 205.7 477.8 203.7C476.7 202.9 475.1 201.6 473.9 203.3C472.7 205 474.7 205.3 475.7 206.1C478.6 208.5 479.3 211.4 478 214.9C477.6 216.1 475.1 217.3 477.3 218.5C479.5 219.7 480.3 217.2 481 215.7C481.7 214.5 481.7 213.1 481.8 212.5Z" fill="#F9FCE0"/>
<path d="M332.9 185.1C329.4 178.2 325.9 171.3 322.4 164.4C332.3 168 341.8 167.6 350.8 161.6C356.8 157.6 360.4 151.7 364.5 146.1C371.6 158.5 378.3 171.1 384.4 184.1C388.6 192.9 387.9 202.2 385.3 211.4C383.6 210.4 383.3 208.4 382.4 206.9C378.9 201.2 374.7 196.1 368.5 193.1C360.7 189.4 354.1 192.7 352.7 201.2C352 205 352.1 208.8 353.2 212.5C354 215.1 353.4 215.9 350.6 216C343.5 216.3 338.6 220.1 335.3 226.3C333.4 230 331.3 233.5 329.3 237.2C318.2 237.3 307.1 237.3 295.9 237.4C278.4 237.4 260.9 237.4 243.4 237.3C238.8 237.2 234.3 237.1 229.7 237.1C228.1 237.1 226.9 237.3 228.7 239C211.7 240.5 203.6 253.6 210.4 268.7C204.8 265.4 199.1 262 193.5 258.7C196.5 250.9 199.5 243.1 202.5 235.4C203.5 234.1 204.6 232.8 205.5 231.5C212.9 221.5 222.2 213.9 234.2 210.3C241.9 208 247.4 203.9 249 196C250.6 188.2 247.2 182.2 241.1 177.5C269.1 171.7 296.5 173 323.4 183.1C326.2 184.1 329 185.2 331.8 186.2C332.2 186.3 332.8 186.6 333 186.5C333.8 186 333.3 185.6 332.9 185.1ZM292.3 178.1C292 176.9 291.1 176.5 289.8 177C286.6 178.3 283.2 179.3 280.1 180.9C277.1 182.5 275.3 182.1 273.8 179.1C272.5 176.6 270.8 175.8 269 178.4C266.6 181.7 264.6 181.5 262.5 178.1C261.8 177 260 175.8 259.7 177.9C259.2 181 262.3 182.7 264.1 184.8C265.7 186.7 266.9 184.6 268.2 183.7C269.5 182.7 270.7 180.1 272.5 182.7C275 186.6 277.8 185.5 281 184C283.8 182.6 286.9 181.7 289.8 180.4C290.6 180 291.8 179.7 292.3 178.1Z" fill="#F8AFFC"/>
<path d="M369.9 387.8C378 372.3 389.7 360.5 405.4 352.7C423 345.5 440.8 344.2 459 350.4C458.7 351 458.4 351.6 458 352.1C454.2 356.2 454.2 356.1 457.8 360.2C458.9 361.4 459.8 362.9 460.3 364.4C461.1 366.6 461.4 368.9 461.9 371.2C462.1 372.3 462 373.9 463.6 373.7C465 373.6 465 372.2 465.2 371C465.3 369.7 465.4 368.3 465.8 367.1C467.3 362.9 468.5 358.3 474.1 357.8C481.5 362.2 487 368.6 492.9 374.5C494.8 378.5 497.1 382.3 500 385.7C502.8 394 506.1 402.2 506.8 411.1C507 413.6 507.3 416.1 507 418.5C496.9 417.8 486.7 418.2 476.6 418.3C475.1 417.2 473.4 417.5 471.8 417.5C447.4 417.5 423 417.5 398.6 417.5C397 417.5 395.3 417.3 393.8 418.3C390 418.3 386.2 418.3 382.5 418.1C376.2 417.8 369.7 419.2 363.5 416.7C363.9 406.8 366.4 397.2 369.9 387.8ZM490.2 401.8C487.4 393 483 385.5 476.9 379C476.1 378.1 475.1 376.5 473.7 378.1C472.4 379.5 474 380.5 474.8 381.4C479.2 386.2 482.7 391.6 485.3 397.5C486 399.2 486.6 400.9 487.3 402.6C487.7 403.5 488.4 403.8 489.3 403.5C490.2 403 490.3 402.3 490.2 401.8ZM437.7 364.3C438.3 364.3 440.1 364.5 441.9 364.6C443.2 364.7 444.9 365.1 445 363.2C445.1 361.8 443.6 361.6 442.4 361.5C436.6 361 430.8 360.8 425.1 362.1C423.9 362.4 422.1 362.3 422.6 364.3C423 365.8 424.4 365.5 425.6 365.2C429.2 364.3 432.8 364.2 437.7 364.3Z" fill="#021B32"/>
<path d="M544.2 293.5C556.5 310.6 568.9 327.6 581.2 344.7C582 345.9 583.4 346.8 583.2 348.5C577.9 347.8 573 344.3 567.3 346.3C564.5 346.1 561.8 346.6 559.2 347.5C558.2 347.8 557.2 348.1 556.2 348.5C549.8 350.7 543.9 353.7 539.3 358.9C532.7 363.8 529 370.5 527.3 378.5C525.3 375.1 527.2 371 525.3 367.6C525.1 359.5 523.5 351.6 522.3 343.7C521.6 338.1 520.8 332.5 520.3 326.9C519.5 319 519.6 319 511.5 318.7C507.5 319.1 503.3 317.8 499.3 319.4C496.8 319.2 494.3 319 491.9 318.9C482.4 318.7 473 318.6 463.5 318.5C461.7 317.8 459.8 317 458 316.3C443.7 310.6 430.2 290.6 444.1 271.6C451.4 261.6 460.1 253 469.3 244.9C471.6 242.9 472.9 243.8 474.8 245.4C482.6 251.9 489.8 259 496.2 266.9C484.8 266.8 473.6 268.2 462.9 272.1C461 272.8 457.3 272.8 458 275.1C459 278.3 462 275.6 463.9 275C493.3 265.3 519.3 270.4 541.7 292.2C542.4 292.8 543.1 293.5 544.2 293.5Z" fill="#A359DB"/>
<path d="M365.6 427.1C357.9 427.2 350.2 427.2 342.5 427.3C337.4 427.3 332.3 427.4 327.1 427.5C322 418 316.8 408.6 311.8 399C307.2 390.2 305.8 381.2 310.3 371.7C312 368.1 312.8 364.2 311.8 360.1C308.9 348.2 297.3 342.8 285.1 347.7C280.7 346 277 342.7 272 342.8C270.4 341.9 268.9 341.1 267.3 340.2C267.5 339.4 267.6 338.6 267.9 337.8C276.8 316.6 285.8 295.4 294.7 274.2C307.5 274.2 320.3 274.3 333.1 274.3C345.9 274.3 352 283.2 347.6 295.3C339.4 317.6 331.2 339.8 323 362.1C318.6 374.2 320.6 385.3 328.6 395.3C332.9 400.8 337.7 405.9 341.8 411.5C348 419.7 355.7 425.1 365.6 427.1ZM326.5 310C326.5 309.1 326.2 308.5 325.5 308.3C323.6 307.9 323.3 309.4 322.9 310.6C319.8 318.8 316.8 327 313.8 335.3C313.4 336.5 311.7 338.3 313.7 339.2C316.1 340.3 316.2 337.8 316.7 336.4C319.8 328.2 322.8 320 325.8 311.7C326.1 311 326.3 310.4 326.5 310ZM329 300.8C329.3 300.6 330 300.3 330.2 299.8C331.4 296.9 332.4 294 333.5 291.1C333.7 290.4 333.4 289.8 332.8 289.5C332 289.1 331 289.3 330.7 290.1C329.5 293.1 328.4 296.2 327.4 299.3C327 300 327.6 300.7 329 300.8Z" fill="#021B32"/>
<path d="M151.4 235.5C148.5 235.4 145.6 235.4 142.7 235.3C135.8 232.7 130.1 228.8 126.4 222.2C125.4 220.3 124.1 219.2 121.6 220C110 223.6 98.3999 227 86.7999 230.3C83.4999 231.2 83.3 232.7 85.2 235.2C86.8 237.3 88.2999 239.5 89.7999 241.7C85.3999 256.4 70.9999 266.6 57.5999 264.7C49.9999 254.7 40.7 245.6 36.9 233.3C32.3 218.4 40.0999 203 55.0999 198.1C77.6999 190.7 100.6 184.4 123.4 177.6C124.2 177.4 125 177.6 125.9 177.6C123.4 183.2 117.7 184.4 113 186.9C105.7 190.8 103.4 196.4 106.2 203.8C109.4 211.9 118.9 216.9 128.3 215.3C137.8 213.7 144.1 206.6 144.2 197.2C144.3 189.9 144.3 182.6 144.4 175.3C151.3 175.3 158.2 175.4 165.1 175.4C164.3 180.6 163.9 186 162.6 191C159.8 201.6 163.5 209 172.7 214.2C172.4 214.7 172.1 215.1 171.9 215.6C167.3 224.6 161.5 232.2 151.4 235.5Z" fill="#97382F"/>
<path d="M285.2 347.7C297.4 342.8 308.9 348.2 311.9 360.1C312.9 364.2 312.1 368.2 310.4 371.7C305.9 381.1 307.3 390.1 311.9 399C316.9 408.5 322.1 418 327.2 427.5C327.7 429.6 328.3 431.7 328.8 433.8C331.5 446.7 322.4 458.3 309.2 458.5C297.3 458.7 285.3 458.5 273.4 458.5C263.8 455.3 259.5 448.4 259.7 438.5C266.8 430.9 273.4 431 280.4 438.8C281.4 439.9 282.4 441.1 283.4 442.2C288 447.2 293.8 449 298 446.8C302.3 444.6 304.5 439 303.5 432.4C303.4 431.4 303 430.5 302.8 429.5C300.7 419.3 296.3 410.1 292.1 400.6C286.7 388.3 281.4 375.9 280.2 362.3C279.7 356.6 280.6 351.5 285.2 347.7Z" fill="#F9FCE0"/>
<path d="M463.6 318.4C473.1 318.5 482.5 318.6 492 318.8C494.5 318.8 497 319.1 499.4 319.3C508.4 324.3 510.4 329.7 506.7 339.4C505.4 342.8 503.9 346.1 502.9 349.6C502.1 352.2 499.8 354.4 500.9 357.4C499.4 358.5 498.8 360.2 498.1 361.9C496.4 366.1 494.6 370.3 492.9 374.6C486.9 368.7 481.4 362.2 474.1 357.9C474.8 357 476 355.8 474.2 355.3C467.3 353.3 466.1 347.8 465.2 341.9C465 340.6 465.2 338.9 463.4 339C461.9 339 462 340.6 461.9 341.7C461.4 344.8 461 347.9 459.1 350.5C440.9 344.2 423.1 345.6 405.5 352.8C405.4 346.2 405.4 339.6 405.3 333.1C405.4 331.7 405.4 330.3 405.5 328.9C407.1 324.8 410 321.8 413.7 319.6C417.5 319.3 421.4 318.9 425.2 318.6C438 318.5 450.8 318.4 463.6 318.4Z" fill="#595C0B"/>
<path d="M459.1 193.6C458.1 196.6 457.2 199.6 456.2 202.6C451 218.4 442.6 224.8 425.6 225.7C412.4 224.5 402.9 218 398.8 205.3C395 193.5 397.3 182.6 406.7 173.8C411 169.8 416.4 168.2 421.9 166.6C425.7 165.5 429.6 164.4 433.3 163.2C439.7 161.1 443.9 156.6 446.3 150.4C446.4 150.1 446.5 149.8 446.6 149.5C452.7 134.9 461.4 131.7 475.5 138.9C473.3 146.3 471.1 153.6 469 161C455 154.2 442 165.4 443.3 178.1C444.2 185.8 449.2 190.8 459.1 193.6ZM404.5 196.6C404.5 197 404.5 198.2 404.7 199.3C405 200.6 405 202.7 407.1 202.3C408.8 201.9 408.4 200.1 408 198.9C406.8 194.9 408.1 191.4 410 188C410.5 187.1 411.7 185.9 410.3 185C408.8 184 407.9 185.4 407.2 186.5C405.4 189.2 404.4 192.3 404.5 196.6ZM414.3 199.9C414.3 201.8 414.9 203.6 415.8 205.2C416.3 206.2 416.8 207.6 418.2 207.1C419.8 206.6 419.2 205.3 418.8 204.2C417.9 201.6 418 199 418.6 196.4C418.9 194.9 422 193.1 419.2 192C416.9 191 416.3 194 415.5 195.7C414.8 196.9 414.7 198.4 414.3 199.9ZM429.4 203.2C428.6 201.6 430.9 198.6 428 198.3C426 198.1 426 201.1 425.9 202.7C425.8 204.5 425.8 207.6 428.1 207.6C430.7 207.7 428.7 204.8 429.4 203.2Z" fill="#021B32"/>
<path d="M37.7999 411.4C49.0999 410.4 60.2999 411.2 71.5999 411C78.8999 410.9 86.1999 411 93.4999 411C95.4999 412.7 93.7999 414.5 93.2999 416C89.2999 428.9 84.9999 441.6 81.0999 454.5C80.0999 457.7 78.3999 459.1 75.2999 458.2C72.0999 457.3 73.6999 454.6 73.9999 452.7C74.7999 447.1 75.9999 441.6 77.0999 436C77.3999 434.4 77.7999 432.9 75.8999 432.3C73.9999 431.7 73.2999 433.2 72.6999 434.7C70.1999 441.1 67.2999 447.2 63.2999 452.8C60.5999 456.5 57.4999 458.6 52.3999 458.4C36.5999 458.1 20.7999 458.3 4.9999 458.3C3.3999 458.3 1.29989 459 0.499895 457.1C-0.200105 455.3 1.59987 454.2 2.59987 452.9C7.79987 447 14.9999 443.4 20.9999 438.5C29.8999 431.5 34.2999 421.7 37.7999 411.4ZM25.5999 451.4C25.9999 451 26.5999 450.8 26.7999 450.4C30.4999 443.5 37.4999 440.7 43.5999 436.7C47.3999 434.2 50.4999 431 51.9999 426.5C52.3999 425.4 52.3999 424.5 51.3999 423.9C50.0999 423.1 49.4999 424.2 49.1999 425C46.9999 431.6 41.3999 434.7 35.7999 437.7C31.1999 440.2 27.2999 443.5 24.5999 448.1C24.0999 448.9 23.2999 449.8 24.2999 450.7C24.5999 451 25.0999 451.2 25.5999 451.4Z" fill="#021B32"/>
<path d="M188.2 389.3C194.1 382.9 194.9 382.7 200.4 386.3C202.5 389.6 202.3 392.9 200.1 396.2C199.8 396.3 199.7 396.4 199.8 396.7C197.2 400.5 194.5 404.3 192 408.3C190.8 410.1 188.4 411.8 190.2 414.5C191.9 417.1 194.4 415.8 196.5 415.4C209.9 412.7 223.2 409.9 236.6 407.2C240.2 407.6 237.2 409.8 237.6 411.1C234.9 417.3 232.2 423.4 229.5 429.6C224.2 426.7 219.2 427.5 213.9 430C202.4 435.5 190.3 439.9 179.1 446C169 451.6 161.2 449.7 153.8 441.8C152.2 440.1 150.3 438.7 148.6 437.2C145.4 434.5 141.7 432.6 137.5 431.9C147.6 425.6 157.7 419.3 167.7 412.9C170.3 411.2 173.2 409.8 174.6 406.8C177.1 407 178.5 409.1 180.6 410.1C181.7 410.6 182.7 412.1 184.1 411C185.6 409.8 184.8 408.3 184.5 406.9C183.8 404.1 181.5 401.8 181.9 398.6C185 396.1 186.3 392.4 188.2 389.3Z" fill="#1201FD"/>
<path d="M241.3 177.6C247.4 182.3 250.8 188.3 249.2 196.1C247.6 204.1 242.1 208.1 234.4 210.4C222.4 214 213.1 221.6 205.7 231.6C204.7 232.9 203.7 234.2 202.7 235.5C204.6 228.8 201.4 224.3 196.2 220.9C190.4 217.1 184.4 214 177.4 218.3C177.8 217.3 178.2 216.4 178.7 215.4C183.3 210 187.7 204.4 192.5 199.1C200.3 190.4 200.4 190.5 189.7 185.3C185.1 183 180.4 180.7 178.6 175.3C195.5 175.3 212.4 175.4 229.3 175.3C233.4 175.4 237.5 175.7 241.3 177.6Z" fill="#97382F"/>
<path d="M365.6 427.1C355.7 425.1 348 419.7 342 411.7C337.8 406.1 333.1 400.9 328.8 395.5C320.8 385.5 318.8 374.3 323.2 362.3C331.3 340 339.6 317.7 347.8 295.5C352.2 283.4 346.1 274.5 333.3 274.5C320.5 274.5 307.7 274.4 294.9 274.4C295.8 271.4 296.8 268.5 297.7 265.5C303.7 265.4 309.7 265.4 315.7 265.3C317.1 265.6 318.5 265.6 319.9 265C324.9 265.9 329.8 265.4 334.8 265.4C351.8 265.6 362.6 280.8 357 296.8C351.6 312 346 327.1 340.5 342.3C337.6 350.1 334.5 357.8 331.7 365.6C328.5 374.4 330 382.6 335.9 389.9C341.1 396.4 346.4 402.8 351.7 409.1C354.8 412.9 358.5 415.9 363.5 417C369.7 419.5 376.2 418 382.5 418.4C386.3 418.6 390 418.5 393.8 418.6C393.8 419.8 394.4 420.6 395.3 421.2C395.5 423.2 395.7 425.2 395.9 427.2C385.8 427 375.7 427.1 365.6 427.1Z" fill="#AAE5F1"/>
<path d="M137.5 431.7C141.7 432.4 145.3 434.3 148.6 437C150.4 438.5 152.3 439.9 153.8 441.6C161.2 449.5 168.9 451.3 179.1 445.8C190.3 439.7 202.3 435.3 213.9 429.8C219.2 427.3 224.3 426.5 229.5 429.4C240.4 440.1 240.8 449.1 230.6 457.1C227.6 458.2 224.5 458.5 221.3 458.5C195.2 458.5 169.1 458.5 143 458.5C133.5 458.5 128.8 455.4 127.1 448.2C125.5 441.1 129 435.6 137.5 431.7Z" fill="#F9FCE0"/>
<path d="M539.3 358.8C543.9 353.7 549.8 350.6 556.2 348.4C563.7 362.3 571.7 376 583.5 386.8C595.3 397.6 604.7 396.7 614.7 384.2C620.3 386.7 625.9 389.2 631.1 392.6C632.9 393.8 635 395.1 634.7 397.6C634.4 400.3 632 401.2 629.7 401.8C615.8 405.1 601.7 407.1 587.6 409.5C584.2 410.1 581.5 408.5 579 406.4C575.5 403.5 573 399.8 570.2 396.3C569.2 394.6 568.3 392.9 567.2 391.2C566.6 390.3 565.7 389.3 564.4 390.1C563.2 390.8 563.1 391.9 563.6 393.1C564.3 394.9 565.2 396.7 566 398.5C567.6 402.6 569 406.9 570.7 410.9C571.8 413.4 571.1 414.3 568.8 415.3C566.4 416.4 565.7 415.4 564.8 413.5C562.9 409.3 560.9 405.2 558.9 401C552.3 386.9 545.8 372.9 539.3 358.8Z" fill="#EE41FC"/>
<path d="M302.2 142.9C300.7 146.9 301 151.2 300.8 155.2C300.4 166 292.5 172.6 279.9 170.1C275.2 169.2 270.5 167.8 265.9 166.5C262 165.4 258.2 163.8 257.8 158.9C257.5 155.5 262.3 148.1 265.5 146.8C266.3 146.5 267.1 146.4 267.9 146.2C271.4 146.4 274.9 144.9 278 148.4C282.3 153 285.2 152.3 288.4 146.7C292 140.3 295.4 133.9 298.9 127.5C299.5 126.4 301 125.4 299.9 124C298.6 122.3 297.2 123.7 295.9 124.2C288 127.2 280.6 131.4 272.3 133.4C270.6 132.7 268.9 132.1 267.3 131.2C262.9 128.7 261.5 124.2 263.6 119.7C265.7 115.2 270.2 113 274.7 114.7C277.3 115.7 278.1 115.5 279.3 112.8C282.7 105.2 290.1 104 296.2 109.9C297.6 111.3 298.4 112.2 300.6 110.7C306.6 106.6 310.8 107.5 315.2 113C319.6 118.6 319.3 123.5 314.4 128.5C313.6 129.3 312.9 130.2 312.1 131.1C306.9 133.3 302.4 136.3 302.2 142.9ZM269.2 155.5C269.6 155.4 270.7 155.1 271.7 154.6C272.6 154.2 273.7 152.8 272.9 152.4C270.4 151.1 267.3 152.2 264.5 150.9C263.9 150.6 263.7 152.4 264.3 153.3C265.3 154.8 266.7 155.6 269.2 155.5Z" fill="#021B32"/>
<path d="M395.9 427C395.7 425 395.5 423 395.3 421C402.8 421 410.2 421.1 417.7 421.1C420.1 431.1 426.5 436.6 435.6 436.5C444.4 436.4 450.6 431 453 421.1C460.5 421 467.9 421 475.4 420.9C475.2 423 475 425 474.8 427.1C472.1 439.9 464.4 448.9 453.2 455.2C450 456.3 446.8 457.3 443.6 458.4C420.2 461.8 401.3 449.4 395.9 427Z" fill="#021B32"/>
<path d="M364.6 146.2C360.5 151.8 356.9 157.7 350.9 161.7C341.9 167.7 332.4 168.1 322.5 164.5C314.6 158.8 313.1 152.3 318.1 143.5C322.3 136.1 329.3 130.9 333.4 123.4C334.1 122.1 335.6 121.4 337.3 122.2C338.8 122.9 339.5 124.1 339.6 125.7C339.7 128.4 339.6 131 338.7 133.6C336.2 133.5 336.1 135 336.4 136.9C337.2 142.4 335.8 147.4 332.4 151.8C331.6 152.9 330.6 154.2 332.3 155.1C333.6 155.8 334.3 154.4 335 153.5C339.1 148.6 340 142.8 339.7 136.7C343.6 131.3 345.7 125 348.8 119.2C352.2 112.9 357.1 111.1 363.1 113.8C356.6 115.3 353.9 120.2 351.6 125.8C350.5 128.5 350.7 132.2 348 133.7C344.8 135.5 345.5 136.3 348.1 137.4C352.3 139.3 355.8 142 358.2 145.9C358.7 146.7 359.2 147.8 360.4 147.3C361.8 146.6 361.3 145.5 360.8 144.4C360.1 142.6 357.7 141.5 358.5 139.2C360.7 132.3 362.4 125 369.7 121.3C372.1 127.1 368.9 132.2 367.8 137.5C367 140.4 365.6 143.3 364.6 146.2Z" fill="#F7AD8C"/>
<path d="M535.6 242.2C541.9 245.9 547.6 250.4 554.4 253.2C553.9 266.3 549.4 278.2 544.3 290C538.9 284.7 533.1 280.2 526.5 276.5C517.2 271.3 507.2 268.6 496.8 266.8C502.7 261.3 508.7 255.8 515.4 251.2C521.6 247 527.7 242.6 535.6 242.2Z" fill="#A359DB"/>
<path d="M363.4 416.9C358.4 415.8 354.8 412.8 351.6 409C346.3 402.6 341 396.2 335.8 389.8C329.9 382.5 328.4 374.3 331.6 365.5C334.4 357.7 337.5 350 340.4 342.2C340.8 349.3 342.8 355.8 347.5 361.4C355 370.2 362.5 379 370 387.8C366.4 397.2 363.9 406.8 363.4 416.9Z" fill="#97382F"/>
<path d="M144.4 175.4C144.3 182.7 144.3 190 144.2 197.3C144.1 206.7 137.8 213.8 128.3 215.4C118.9 217 109.4 212 106.2 203.9C103.3 196.6 105.6 190.9 113 187C117.7 184.5 123.4 183.2 125.9 177.7H125.8C126.5 177.7 126.7 177.3 126.7 176.7C129.6 172.2 128.9 167.2 129.1 162.3C129.2 158.2 129.3 154.1 129.3 149.9C131.2 158.1 136.6 163 144.3 165.7C144.3 168.9 144.3 172.1 144.4 175.4ZM125.1 208.5C131 208.5 134.3 205.1 137.2 201.1C137.8 200.3 138 199.1 137.2 198.3C136.1 197.3 135.4 198.3 134.9 199.1C131 205.2 126 207.3 119.4 203.1C118.7 202.6 117.8 202.4 117.2 203.2C116.4 204.2 116.9 205.1 117.7 205.7C120 207.5 122.7 208.2 125.1 208.5Z" fill="#AAE5F1"/>
<path d="M319.7 264.9C318.3 265.5 316.9 265.5 315.5 265.2C320.1 255.9 324.7 246.7 329.4 237.4C331.4 233.8 333.4 230.2 335.4 226.5C338.7 220.3 343.6 216.5 350.7 216.2C353.5 216.1 354.1 215.2 353.3 212.7C352.2 209 352.1 205.1 352.8 201.4C354.3 192.9 360.8 189.5 368.6 193.3C374.8 196.3 379 201.4 382.5 207.1C383.4 208.6 383.7 210.6 385.4 211.6C386.6 216.9 388.7 221.9 388.5 227.6C388.3 232.7 387.1 237.4 382.4 239.8C377.9 242.2 373.4 240.5 369.3 237.8C367.7 236.7 366 235.6 364.4 234.5C362.1 230.9 359.1 227.6 357.5 223.8C355.6 219.1 352.4 218.9 348.5 219.7C344.6 220.5 341.5 222.7 339.4 226.1C337.2 229.7 335 233.4 333.6 237.5C328.5 246.3 323.3 255.2 319.7 264.9ZM381.3 222.6C380 217.9 378.2 213.3 375.4 209.1C374.9 208.3 374.1 208.1 373.2 208.6C372.3 209.1 372.2 209.9 372.7 210.7C375.2 214.6 376.9 218.9 378.2 223.4C378.5 224.3 379.1 224.8 380 224.6C381 224.3 381.4 223.6 381.3 222.6ZM363.9 197.5C362.4 197.6 361.8 198.7 362.8 199.8C364.9 202.1 367.3 204.2 369.7 206.2C370.9 207.2 371.9 206.2 371.9 204.8C372 203.3 365.5 197.5 363.9 197.5Z" fill="#021B32"/>
<path d="M553.4 13.9001C553.4 21.5001 550.3 27.0001 545.5 31.8001C540.8 36.5001 535 39.4001 528.8 41.5001C523.8 43.3001 518.7 44.9001 513.7 46.6001C510.2 47.8001 506.9 49.3001 504 51.6001C497.8 56.5001 496 64.4001 499.9 70.1001C503.9 75.9001 511.7 77.4 518.6 73.7001C522.5 71.6001 525.6 68.6001 528.3 65.2001C532.2 60.4001 535.9 55.5001 539.7 50.7001C543.5 45.8001 547.4 41.1001 552.5 37.4001C559.7 32.1001 566.7 31.8001 572.2 36.5001C578 41.5001 579.7 50.2001 576.1 57.5001C573.4 62.9001 569.1 66.7001 564.2 70.1001C555.4 76.1001 546.5 82.0001 537.7 87.9001C533.7 90.6001 529.6 93.2001 525.7 96.0001C514.4 103.8 506.5 113.8 505.1 128C504.6 132.6 503.3 137.1 502.4 141.7C502.2 142.8 502 144.3 500.4 143.9C498.9 143.6 499.1 142.2 499.4 141C501.2 132.7 502.3 124.2 504.8 116.1C507.8 106.1 515.5 99.4001 523.8 93.6001C535.5 85.4001 547.5 77.6001 559.4 69.7001C563.6 66.9 567.6 64.0001 570.8 60.0001C573.8 56.2001 575.4 51.9001 574.7 47.0001C573.4 37.8001 564.9 33.6001 556.9 38.2001C552.9 40.5001 549.7 43.6001 546.9 47.1001C542.5 52.5001 538.3 58.1001 533.9 63.5001C530.1 68.2001 526.1 72.6001 520.9 75.8001C512.5 80.9001 502.3 79.1001 497.4 71.6001C492.5 64.3001 494.8 54.6001 502.7 48.7001C506.5 45.9001 510.8 44.1001 515.2 42.6001C520.1 40.9001 525 39.4001 529.9 37.7001C533.5 36.4001 536.9 34.6001 540 32.3001C550.2 24.6001 552.5 16.9001 548.6 4.80005C548.2 3.60005 546.5 1.80005 548.7 1.00005C550.7 0.200055 551 2.40005 551.5 3.70005C552.5 7.30005 553.5 10.8001 553.4 13.9001Z" fill="#F8AFFC"/>
<path d="M57.5 264.7C71 266.6 85.3 256.4 89.7 241.7C91.7 244.6 93.7 247.4 95.8 250.3C93 252.9 90.1 255.4 87.3 258C86.6 258.7 85.6 259.3 86.2 260.4C86.6 261.2 87.5 261.6 88.3 261C92.1 257.9 96.8 255.8 98.3 250.6C99.7 249.2 101.1 247.8 102.5 246.5C109.1 240.3 109.1 240.4 115.3 246.4C117.4 250.1 121.4 253.2 119.2 258.3C116.9 254.3 114.5 250.3 112.1 246.4C111.6 245.6 110.9 244.6 109.8 245.2C108.7 245.7 108.6 246.7 109.2 247.7C111.3 251.2 113.4 254.8 115.6 258.2C116.5 259.6 117.7 259.7 118.9 258.6C118.6 260.6 118.2 262.5 116.5 263.9C114.1 260.1 111.7 256.3 109.3 252.6C108.7 251.6 107.9 250.5 106.6 251.5C105.5 252.3 106 253.3 106.6 254.1C109.4 258 110.9 262.7 114.7 266C112.8 270 110.9 267.6 109.2 265.9C103.8 260.5 103.9 260.5 100.1 267.2C97.3 272.1 94.4 276.8 91.5 281.6C91.2 281.9 90.8 282.3 90.5 282.6H90.6C83.2 287.3 76.4 285.7 70 280.7C64.7 276.2 60.9 270.6 57.5 264.7Z" fill="#F7AD8C"/>
<path d="M178.5 175.4C180.3 180.8 184.9 183.2 189.6 185.4C200.3 190.6 200.2 190.5 192.4 199.2C187.6 204.5 183.2 210.1 178.6 215.5C176.6 215.1 174.6 214.6 172.6 214.2C163.4 209 159.7 201.6 162.5 191C163.8 185.9 164.2 180.6 165 175.4C166.1 170 167.3 164.6 167.6 159C168.1 157 168.6 155 169.2 152.9C170.9 155.8 173.5 156.7 176.7 156.6C176.9 161.3 176.1 166 177.3 170.6C177.3 170.8 177.3 171 177.4 171.2C177.3 172.8 177.7 174.2 178.5 175.4Z" fill="#AAE5F1"/>
<path d="M230.6 457.1C240.7 449 240.4 440 229.5 429.4C232.2 423.2 234.9 417.1 237.6 410.9C241.4 410.9 245.2 411 249.1 411C247.3 415.9 244.3 420.5 244.6 426.1C244.8 428.8 245.9 431 248.8 431.6C251.4 432.1 252.6 430.1 253.7 428.2C255.7 424.5 256.2 420.4 256.9 416.3C257.8 423.7 258.8 431 259.7 438.4C259.5 448.4 263.8 455.2 273.4 458.4C268 458.4 262.6 458.4 257.2 458.3C250.2 458.3 243.3 458.3 236.3 458.3C234.3 458.3 232.2 458.8 230.6 457.1Z" fill="#021B32"/>
<path d="M169.2 153C168.7 155 168.2 157 167.6 159.1C161 165.5 153.1 167.5 144.1 165.7C136.4 163 131 158.1 129.1 149.9C129 148.3 129 146.6 128.9 145C130.4 144.3 131.9 143.6 133.4 142.9C134.5 144.2 135.5 145.5 137.3 145.7C139.9 147.2 143.4 148.8 145 145.9C146 144.1 144.5 140.2 140.7 139.5C140.6 139.3 140.6 139.2 140.6 139C142.4 136.8 145.1 135.7 147.4 134.3C155.1 129.8 155.2 129.8 159.4 137.6C158.3 138 157.2 138.4 156 138.7C155.1 139.1 154.1 139.3 153.3 139.8C151.2 141.4 147.9 143.5 149.4 146.2C150.7 148.6 154.3 148.1 156.9 146.7C160.2 146.5 161.8 143.9 163.6 141.8C165.2 142.4 166.7 145.1 168.6 142.3C170.4 139.6 172.9 139.5 175.6 139.8C177.6 141.3 178.6 143.3 178.9 145.8C178 147.3 177.2 148.8 176.3 150.3C174.7 150.2 173.1 150.1 171.5 149.9C171.9 149.2 172.3 148.5 172.8 147.9C173.5 147.1 175.9 147 174.6 145.3C173.4 143.8 171.9 145.1 170.8 146C168.8 147.8 168.4 150.3 169.2 153ZM147.4 152.1C145.6 151.8 143.6 152.3 143.9 154C144.3 156.7 146.8 159 149.1 159.4C151.4 159.8 154.3 156.9 154.2 154.9C154.1 149.7 149.3 154.1 147.4 152.1Z" fill="#F7AD8C"/>
<path d="M539.3 358.8C545.8 372.8 552.3 386.9 558.8 400.9C553.9 401.9 549.1 402.9 544.1 401.9C533.4 399.7 527.5 391.4 527.3 378.4C529 370.5 532.7 363.7 539.3 358.8Z" fill="#97382F"/>
<path d="M559.2 347.5C561.8 346.6 564.5 346.1 567.3 346.3C575.6 353.8 582.6 362.5 591.2 369.6C597.1 375.3 604.3 379.1 611.5 382.9C604.5 392.3 597.3 393.5 588.1 386.5C585.9 384.8 583.8 382.8 581.9 380.8C572.4 371 565.8 359.2 559.2 347.5Z" fill="#EE41FC"/>
<path d="M425.2 318.5C421.4 318.8 417.5 319.2 413.7 319.5C410.5 319.4 407.2 319.2 404 319.1C403.5 317.8 402.3 317.7 401.2 317.2C399.7 316.6 398.5 315.6 398.6 313.9C398.8 311.9 400.7 312.1 402.1 311.9C403.2 311.8 404.4 311.9 405.6 312C408.5 312.3 411.2 311.8 414 311.2C415.3 310.9 416.8 310.3 416.3 308.6C415.8 307 414.5 307.9 413.4 308C411.3 308.3 409.1 308.7 407 308.6C401.9 308.4 397.8 308.8 394.2 313.8C390.2 319.4 389.4 322.5 394.3 327.5C397.1 330.3 400.2 332.9 403.2 335.5C395.2 337.2 391.9 330.6 387.7 326.1C384.4 322.5 384.3 317.6 387.4 313.7C391.4 308.7 394.1 303 397.3 297.6C406 296.6 414.7 298.2 423.3 298.6C424.9 298.7 425.9 299.8 427.2 300.6C427.7 306.6 427.8 312.7 425.2 318.5Z" fill="#F7AD8C"/>
<path d="M500.9 357.4C499.7 354.3 502.1 352.1 502.9 349.6C503.9 346.1 505.4 342.8 506.7 339.4C510.4 329.7 508.4 324.3 499.4 319.3C503.4 317.7 507.5 318.9 511.6 318.6C513.3 327.7 517.2 336 522.4 343.6C523.6 351.6 525.2 359.5 525.4 367.5C519.6 366 514.6 362.2 508.5 361.2H508.4C508.3 360.2 507.6 360.1 506.9 360.2C505.2 358.7 503 358.2 500.9 357.4Z" fill="#EE41FC"/>
<path d="M548.7 168.3C542.2 174.1 535.7 179.9 529.1 185.7C523.7 180.3 518.6 174.7 514.2 168.5C514.2 167.5 514.1 166.5 514.1 165.4C514.5 164.8 514.9 164.3 515.3 163.7C516.3 163.9 517.4 164.2 518.4 164.4C521 166.2 522.8 169.1 526.2 169.6C529 170 531.5 169.2 531.9 166.2C532.3 162.9 530.1 161.3 527 161.5C524.2 161.7 521.4 162.3 518.6 162.8C518.1 162.1 517.6 161.3 517.1 160.6C516.9 157.5 520.1 157.3 521.4 155.4C527 155.1 532.5 154 538.1 155.1C541.6 159.5 545.1 163.9 548.7 168.3Z" fill="#F7AD8C"/>
<path d="M443.6 458.4C446.8 457.3 450 456.3 453.2 455.2C493.4 455.2 533.7 455.3 573.9 455.4C576.2 455.4 580.5 453.7 580.5 457.2C580.4 460.4 576.1 458.9 573.7 458.9C531.8 459 489.9 459 448 459C446.5 459 445 459.4 443.6 458.4Z" fill="#97382F"/>
<path d="M159.6 137.5C155.4 129.7 155.4 129.7 147.6 134.2C145.2 135.6 142.6 136.7 140.8 138.9C137.8 139.1 135.7 141.1 133.5 142.8C132 143.5 130.5 144.2 129 144.9C129.3 133.4 137.9 124.3 149.1 123.7C164 122.8 172.5 127.9 175.9 139.7C173.2 139.4 170.6 139.5 168.9 142.2C167 145 165.5 142.3 163.9 141.7C165.9 136.6 161.5 138.4 159.6 137.5Z" fill="#AAE5F1"/>
<path d="M333.6 237.3C335 233.2 337.1 229.5 339.4 225.9C341.5 222.5 344.6 220.4 348.5 219.5C352.5 218.7 355.6 218.8 357.5 223.6C359.1 227.5 362 230.8 364.4 234.3C354.4 238.2 343.9 237.1 333.6 237.3Z" fill="#F8AFFC"/>
<path d="M272.2 133.2C280.5 131.2 287.9 127 295.8 124C297.1 123.5 298.6 122.1 299.8 123.8C300.8 125.2 299.4 126.2 298.8 127.3C295.3 133.7 291.9 140.2 288.3 146.5C285.2 152.1 282.2 152.8 277.9 148.2C274.7 144.8 271.2 146.2 267.8 146C269.3 141.8 270.8 137.5 272.2 133.2ZM282 138.6C283.3 138.3 284.6 138 285.8 137.6C287.9 136.9 290 135.8 289 133.1C288 130.6 286 130.5 283.7 131.5C282.5 132 281.2 132.4 280 132.9C279.1 133.3 278.1 133.5 277.2 134C275.6 134.8 274.5 136 275.2 138C275.9 139.9 277.4 140.4 279.2 139.9C280.2 139.5 281.1 139 282 138.6Z" fill="#F7AD8C"/>
<path d="M496.8 266.8C507.2 268.6 517.2 271.3 526.5 276.5C533.1 280.2 539 284.7 544.3 290C545.4 291.2 545 292.3 544.2 293.5C543.1 293.5 542.4 292.8 541.6 292.1C519.2 270.3 493.2 265.3 463.8 274.9C462 275.5 459 278.2 457.9 275C457.2 272.7 460.9 272.6 462.8 272C473.6 268.1 484.7 266.7 496.1 266.8C496.4 266.8 496.6 266.8 496.8 266.8Z" fill="#97382F"/>
<path d="M459.1 193.6C449.1 190.8 444.2 185.8 443.3 178C442 165.3 455 154.1 469 160.9C474 164.1 476.7 168.9 478 174.5C478.1 177.8 477 181 476.1 184.1C472.1 190.3 466.6 193.7 459.1 193.6ZM470.4 185.6C471.1 185.7 471.3 185.2 471.4 184.7C473.6 182.3 474.6 179.5 474.4 176.3C474.8 171.1 472.4 167.3 468.2 164.5C462.5 161.2 456.7 161.3 452 165C447.5 168.5 445.5 174.6 447.1 180.1C448.9 186.1 453.2 189.4 460.4 190.1C464.4 190.2 468 189.3 470.4 185.6Z" fill="#1201FD"/>
<path d="M500.9 357.4C503 358.2 505.2 358.7 506.8 360.3C507.1 360.9 507.5 361.5 508.3 361.3H508.4C508.3 366.3 508.2 371.2 508.2 376.2C508.2 383.7 507.2 384.8 499.9 385.8C497 382.4 494.7 378.6 492.8 374.6C494.5 370.4 496.3 366.2 498 361.9C498.8 360.2 499.4 358.5 500.9 357.4Z" fill="#1201FD"/>
<path d="M478.1 174.6C476.7 169 474 164.2 469.1 161C471.3 153.6 473.5 146.3 475.6 138.9C479.5 141.7 483.7 144.3 484.4 149.7C481 150.2 478.4 153.7 474.4 152.1C478.5 155.9 481.8 155 484.3 149.6C487 151.7 486.3 154.8 486.7 157.6C483.7 158.9 478.9 159.4 478 161.6C476.7 164.9 481.9 166.4 483.4 169.4C481.9 171.4 480.2 173.1 478.1 174.6Z" fill="#F7AD8C"/>
<path d="M474.8 427C475 424.9 475.2 422.9 475.4 420.8C476.3 420.2 476.5 419.3 476.6 418.3C486.7 418.2 496.9 417.8 507 418.5C508.4 420.4 509.9 422.2 508.4 424.7C507.1 426.8 505.1 427.2 502.9 427.1C493.5 427.2 484.2 427.1 474.8 427Z" fill="#AAE5F1"/>
<path d="M559.2 347.5C565.9 359.2 572.5 371 581.9 380.8C583.9 382.8 585.9 384.8 588.1 386.5C597.3 393.5 604.5 392.3 611.5 382.9C613.2 381.9 614.3 382.2 614.8 384.2C604.8 396.7 595.4 397.6 583.6 386.8C571.7 376 563.8 362.4 556.3 348.4C557.2 348.1 558.2 347.8 559.2 347.5Z" fill="#EFEEE2"/>
<path d="M181.8 398.3C181.4 401.5 183.8 403.8 184.4 406.6C184.7 408 185.6 409.5 184 410.7C182.6 411.8 181.6 410.4 180.5 409.8C178.4 408.8 177 406.8 174.5 406.5C172.2 403.6 169.1 401.7 166.4 399.3C163.5 396.8 160.9 394 159.3 390.5C157.7 387.1 157.7 383.6 160.8 381C164.1 378.1 167.1 380.1 169.7 382.1C172.7 384.5 174.8 387.7 176.9 390.9C178.5 393.5 179.4 396.5 181.8 398.3ZM180.1 405.2C176.9 398.4 174.3 391.2 168.7 385.8C167 384.2 165.3 382 162.8 384C160.6 385.9 161.7 388.2 163 390.3C167.2 396.8 173.7 400.9 180.1 405.2Z" fill="#97382F"/>
<path d="M369.6 121.2C362.2 124.9 360.6 132.2 358.4 139.1C357.7 141.4 360 142.5 360.7 144.3C361.2 145.5 361.7 146.6 360.3 147.2C359.1 147.8 358.6 146.7 358.1 145.8C355.7 141.8 352.2 139.2 348 137.3C345.4 136.1 344.8 135.3 347.9 133.6C350.6 132.1 350.4 128.4 351.5 125.7C353.8 120.2 356.5 115.2 363 113.7C364 113.9 364.7 114.5 365.2 115.4C357.4 118.3 355 125.1 352.5 132C351.4 135.1 352.1 136.6 355.3 137.4C357.2 132.4 359 127.5 362.1 123.1C363.7 120.9 365.4 118.9 368.5 119.1C368.9 119.9 369.2 120.5 369.6 121.2Z" fill="#595C0B"/>
<path d="M591.2 369.6C582.6 362.5 575.6 353.8 567.3 346.3C573 344.3 577.9 347.8 583.2 348.5V348.4C582.9 349.4 583.4 349.6 584.2 349.4C584 351 585.3 351.3 586.3 351.9C590.3 357.1 592.2 363 591.2 369.6Z" fill="#97382F"/>
<path d="M464.2 126.6C464 130.9 459.7 134.7 455.4 134.4C451.1 134.1 448 130.4 448.2 125.9C448.4 121.4 451.9 118.3 456.4 118.5C461 118.8 464.5 122.4 464.2 126.6Z" fill="#021B32"/>
<path d="M44.6999 64.8001C44.7999 65.7001 44.3999 66.3001 43.7999 66.5001C38.6999 68.1001 38.0999 72.5001 37.2999 76.8001C37.0999 78.0001 37.3999 79.8001 35.3999 79.7001C33.9999 79.6001 34.0999 78.1001 33.8999 76.9001C33.0999 72.6001 32.4999 68.3001 27.3999 66.6001C25.9999 66.2001 25.5999 64.6001 27.0999 64.0001C32.5999 62.1001 33.1999 57.5001 33.8999 52.8001C33.9999 51.8001 34.1999 50.6001 35.3999 50.6001C36.9999 50.5001 36.9999 52.0001 37.1999 53.1001C37.9999 57.6001 38.5999 62.1001 43.9999 63.7001C44.1999 64.0001 44.3999 64.5001 44.6999 64.8001ZM35.3999 61.0001C31.9999 63.8001 31.9999 66.6001 35.3999 69.4001C38.9999 66.6001 38.8999 63.8001 35.3999 61.0001Z" fill="#AAE5F1"/>
<path d="M403.1 335.4C400.1 332.7 397.1 330.2 394.2 327.4C389.2 322.4 390.1 319.4 394.1 313.7C397.7 308.7 401.8 308.3 406.9 308.5C409 308.6 411.2 308.3 413.3 307.9C414.4 307.7 415.7 306.9 416.2 308.5C416.7 310.2 415.2 310.8 413.9 311.1C411.2 311.8 408.4 312.2 405.5 311.9C404.4 311.8 403.2 311.7 402 311.8C400.6 312 398.7 311.8 398.5 313.8C398.3 315.5 399.6 316.5 401.1 317.1C402.2 317.5 403.4 317.7 403.8 319C403.5 319.5 403.1 320.1 402.8 320.6C400.8 320.5 398.9 320 397.4 318.6C396.7 318 396.4 316.5 395.2 317.2C394 317.9 393.6 319.3 393.7 320.7C393.9 322.6 395.2 324 396.5 325.2C399.2 327.8 401.9 330.5 404.6 333.1C404.6 334.2 404.1 335 403.1 335.4Z" fill="#A359DB"/>
<path d="M517.1 160.6C517.6 161.3 518.1 162.1 518.6 162.8C518.6 163.4 518.5 163.9 518.5 164.5C517.5 164.3 516.4 164 515.4 163.8C512.8 162 510.4 162.2 507.8 164.1C509.9 165.8 512 165.8 514.1 165.5C514.1 166.5 514.2 167.5 514.2 168.6C512.7 168.6 511.1 168.9 509.8 168.5C506.5 167.6 503.6 164.4 500.7 169.9C499.4 172.3 496 170.6 495 167.8C494.3 165.8 494.5 163.5 494.3 161.4C494.2 160.2 494.7 159.3 495.9 159.5C498.4 159.8 501.8 158 503.1 160.7C504.1 162.9 504.6 162.1 505.7 161.4C509.3 158.9 513.2 159.1 517.1 160.6Z" fill="#F7FAE0"/>
<path d="M521.2 155C518.5 154.7 516.2 153.6 516.7 150.5C517.2 147.7 519.7 148 521.8 148.3C522.3 148.6 522.9 148.9 523.3 148.3C523.4 148.1 523 147.6 522.8 147.2C522 145.2 522 143.2 524.1 142.1C526.1 141.1 527.6 142.6 528.7 143.9C530.8 146.2 532.7 148.7 534.6 151C531.7 151.3 528.8 151.4 525.9 151.9C524.1 152.2 521.5 151.9 521.2 155Z" fill="#F7AD8C"/>
<path d="M540.3 200.9C542.2 200.9 543.2 202.2 544.2 203.6C549.9 211.3 555.7 219 561.4 226.7C562.2 227.7 564.1 229 562.2 230.4C560.8 231.4 559.8 229.8 559.1 228.8C552.7 220.1 546.4 211.5 540 202.8C540.2 202.1 540.3 201.5 540.3 200.9Z" fill="#A359DB"/>
<path d="M368.5 119.2C365.4 119 363.7 121 362.1 123.2C359 127.6 357.1 132.6 355.3 137.5C352 136.7 351.4 135.2 352.5 132.1C355 125.2 357.4 118.3 365.2 115.5C366.8 116.3 368 117.4 368.5 119.2Z" fill="#F7AD8C"/>
<path d="M483.4 169.4C481.9 166.4 476.7 164.8 478 161.6C478.9 159.5 483.6 158.9 486.7 157.6C488.8 158.4 491.3 159.7 489.8 162.1C488.1 164.8 490.1 171.1 483.4 169.4Z" fill="#A359DB"/>
<path d="M169.2 153C168.4 150.3 168.8 147.8 171 145.9C172.1 145 173.6 143.6 174.8 145.2C176.1 146.9 173.8 147 173 147.8C172.5 148.4 172.1 149.1 171.7 149.8C171.2 152.3 172.5 153.7 174.8 153.7C177.3 153.7 176.9 151.8 176.5 150.1C177.4 148.6 178.2 147.1 179.1 145.6C182.3 151.2 182 152.9 176.6 156.7C173.5 156.8 170.9 155.8 169.2 153Z" fill="#1201FD"/>
<path d="M404.7 333.1C402 330.5 399.3 327.8 396.6 325.2C395.3 323.9 394 322.6 393.8 320.7C393.7 319.3 394.1 317.9 395.3 317.2C396.5 316.5 396.8 318 397.5 318.6C399.1 320 400.9 320.5 402.9 320.6C403.7 323.3 404.6 326 405.4 328.7C405.3 330.1 405.3 331.5 405.2 332.9C405 333.1 404.8 333.1 404.7 333.1Z" fill="#F7AD8C"/>
<path d="M302.2 142.9C302.4 136.4 306.9 133.4 312.1 130.9C314.5 137.8 310.7 142.3 302.2 142.9Z" fill="#F7AD8C"/>
<path d="M339.6 136.7C339.9 142.8 339 148.6 334.9 153.5C334.2 154.4 333.5 155.8 332.2 155.1C330.5 154.1 331.5 152.8 332.3 151.8C335.7 147.4 337.1 142.4 336.3 136.9C336 135.1 336.2 133.5 338.6 133.6C339 134.6 339.3 135.7 339.6 136.7Z" fill="#595C0B"/>
<path d="M57.3 108.4C59.8 108.6 61.4 109.9 61.5 112.4C61.6 114.9 60 116.4 57.6 116.5C55.1 116.6 53.5 115 53.5 112.6C53.3 110.1 54.9 108.8 57.3 108.4Z" fill="#EFEEE2"/>
<path d="M521.2 155C521.5 152 524.1 152.2 526 151.9C528.9 151.4 531.8 151.3 534.7 151C536.4 151.9 538.5 152.5 538.1 155.1C532.5 154 526.9 155.1 521.4 155.4L521.2 155Z" fill="#A359DB"/>
<path d="M75.1 41.9C76.5 43.5 79.4 44.2 79.2 46.4C79 48.2 77.3 50.7 74.9 50.4C73.2 50.2 70.8 48.5 71 46.5C71.2 44.6 72.9 42.8 75.1 41.9Z" fill="#1201FD"/>
<path d="M565.9 398.4C565.1 396.6 564.3 394.8 563.5 393C563 391.8 563.1 390.7 564.3 390C565.7 389.2 566.5 390.2 567.1 391.1C568.2 392.7 569.1 394.5 570.1 396.2C568.8 397 567.3 397.7 565.9 398.4Z" fill="#97382F"/>
<path d="M177.4 171.3C177.3 171.1 177.2 170.9 177.3 170.7C177.5 170.8 177.7 170.9 177.8 170.9C177.7 171.1 177.6 171.2 177.4 171.3Z" fill="#1201FD"/>
<path d="M586.3 351.9C585.4 351.3 584 350.9 584.2 349.4C585.4 349.8 585.9 350.8 586.3 351.9Z" fill="#A359DB"/>
<path d="M584.3 349.4C583.5 349.6 583 349.4 583.3 348.4C583.9 348.4 584.2 348.8 584.3 349.4Z" fill="#A359DB"/>
<path d="M126.6 176.6C126.5 177.2 126.3 177.6 125.7 177.6C126 177.3 126.3 177 126.6 176.6Z" fill="#97382F"/>
<path d="M297.6 265.3C296.7 268.3 295.7 271.2 294.8 274.2C285.9 295.4 276.9 316.6 268 337.8C267.7 338.6 267.6 339.4 267.4 340.2C265.8 340.4 264.2 340.7 262.6 340.9C264.6 338.5 263.8 337.1 261.2 335.6C253.7 331.3 246.5 326.5 239 322.2C236.2 320.6 236 319.2 237.3 316.4C244.6 300.5 251.6 284.6 258.7 268.7C261.8 261.8 261.9 254.9 259.8 247.8C259.4 246.6 259.3 244.7 257.6 245.1C255.3 245.6 256.5 247.5 256.8 248.8C258.6 255.3 258.5 261.5 255.7 267.8C248.2 284.3 241 300.9 233.4 317.3C231.8 320.7 232.8 322.3 235.7 324C243.5 328.5 251.1 333.2 258.7 338C259.8 338.7 262.5 338.5 261.2 341.2C248.3 345.2 242.2 355 239.5 367.4C237.8 374.8 238.6 382 244.2 387.9C244.7 389.1 245.1 390.3 245.6 391.6C244.6 393.4 243.6 395.1 242.7 396.9C228.6 396.8 214.5 396.7 200.4 396.7V396.4L200.2 396.3C202.4 393.1 202.5 389.8 200.5 386.4C205.5 377.8 210.4 369.1 215.5 360.5C216.7 358.5 217 357.2 215 355.4C203.4 345.4 202.2 333.3 207.8 319.7C209.6 315.4 211 311 212.6 306.6C216.8 296.9 221 287.2 225.2 277.5C230.8 266.6 235.7 255.4 240.4 244.1C241.5 241.9 242.5 239.7 243.6 237.5C261.1 237.5 278.6 237.5 296.1 237.6C299 246.6 299.3 255.9 297.6 265.3Z" fill="#595C0B"/>
<path d="M177.3 218.4C184.3 214 190.3 217.2 196.1 221C201.3 224.4 204.5 229 202.6 235.6C199.6 243.4 196.6 251.2 193.6 258.9C192.5 260.2 192.1 262.4 189.8 262.5C189.7 257 188.5 251.7 187.6 246.3C187.4 245.1 187.4 243.3 185.5 243.7C184 244 184.4 245.6 184.6 246.6C185.3 251.9 186 257.1 186.7 262.3C185.3 261.7 184 261 182.6 260.4C181.9 254.5 181.2 248.6 180.5 242.7C180.4 241.5 180.7 239.7 178.7 239.9C177.2 240.1 177.4 241.6 177.5 242.7C178.1 248.3 178.8 253.8 179.5 259.4C176.6 258.5 175.2 256.4 174.5 253.6C175 253.2 176 252.7 175.9 252.4C174.5 246.2 173.9 240 174.4 233.7C174.5 233 174 232.4 173.2 232.3C172.3 232.2 171.6 232.9 171.5 233.7C171 236.2 170.8 238.6 171.2 241.1C169.9 241.2 168.6 241.3 167.4 240.5C167.4 239.8 167.3 239.3 166.5 239.2C164.7 233.6 167.1 229.2 170.6 225.2C173.7 223.8 174.7 220.3 177.3 218.4Z" fill="#F7AD8C"/>
<path d="M171.4 241.4C171 238.9 171.2 236.4 171.7 234C171.9 233.1 172.5 232.5 173.4 232.6C174.1 232.6 174.6 233.2 174.6 234C174.1 240.3 174.6 246.6 176.1 252.7C176.2 253 175.2 253.5 174.7 253.9C170.8 250.4 172 245.6 171.4 241.4Z" fill="#EE41FC"/>
<path d="M179.6 259.5C178.9 253.9 178.2 248.4 177.6 242.8C177.5 241.7 177.3 240.1 178.8 240C180.8 239.8 180.5 241.5 180.6 242.8C181.3 248.7 182 254.6 182.7 260.5C181.5 260.6 180.4 260.6 179.6 259.5Z" fill="#EE41FC"/>
<path d="M189.8 262.5C189.3 262.8 188.9 263.1 188.4 263.4C187.8 263.1 187.2 262.7 186.6 262.4C185.9 257.2 185.1 251.9 184.5 246.7C184.4 245.6 183.9 244.1 185.4 243.8C187.3 243.4 187.3 245.2 187.5 246.4C188.5 251.6 189.8 257 189.8 262.5Z" fill="#EE41FC"/>
<path d="M114.8 265.8C111.1 262.6 109.5 257.8 106.7 253.9C106.1 253.1 105.7 252.1 106.7 251.3C108.1 250.3 108.8 251.4 109.4 252.4C111.8 256.2 114.2 259.9 116.6 263.7C116.6 264.9 115.9 265.5 114.8 265.8Z" fill="#EE41FC"/>
<path d="M119.1 258.4C117.9 259.5 116.6 259.4 115.8 258C113.6 254.5 111.5 251 109.4 247.5C108.8 246.5 108.8 245.6 110 245C111.2 244.4 111.9 245.4 112.3 246.2C114.7 250.1 117 254.1 119.4 258.1C119.3 258.2 119.1 258.4 119.1 258.4Z" fill="#EE41FC"/>
<path d="M90.5999 282.5C90.8999 282.2 91.2999 281.8 91.5999 281.5C91.2999 281.8 90.9999 282.1 90.5999 282.5Z" fill="#5A2A80"/>
<path d="M166.6 239.4C167.4 239.5 167.6 240 167.5 240.7C167 240.5 166.5 240.2 166.6 239.4Z" fill="#5A2A80"/>
<path d="M495 204C494.9 206.7 494 209.3 492.3 211.6C491.6 212.5 490.7 213 489.8 212.2C489.1 211.6 489.1 210.7 489.7 210C492.8 205.3 493.1 201.1 487.9 197.6C487.1 197.1 487.2 196.2 488 195.5C488.8 194.8 489.6 195.1 490.3 195.5C493.1 197.4 494.8 200.2 495 204Z" fill="#97382F"/>
<path d="M481.8 212.5C481.7 213.1 481.6 214.5 481 215.7C480.2 217.2 479.5 219.7 477.3 218.5C475.1 217.4 477.6 216.1 478 214.9C479.3 211.4 478.6 208.5 475.7 206.1C474.8 205.4 472.7 205.1 473.9 203.3C475.1 201.6 476.6 202.8 477.8 203.7C480.5 205.6 481.7 208.5 481.8 212.5Z" fill="#97382F"/>
<path d="M225.1 277.5C220.3 274.6 215.4 271.8 210.6 268.9C203.8 253.8 211.9 240.7 228.9 239.2C232.7 240.8 236.5 242.5 240.3 244.1C235.6 255.4 230.7 266.6 225.1 277.5Z" fill="#F7AD8C"/>
<path d="M292.3 178.1C291.8 179.7 290.6 180 289.6 180.4C286.7 181.6 283.7 182.6 280.8 184C277.6 185.5 274.8 186.6 272.3 182.7C270.6 180.1 269.3 182.7 268 183.7C266.8 184.7 265.6 186.8 263.9 184.8C262.2 182.7 259.1 181 259.5 177.9C259.8 175.8 261.7 177 262.3 178.1C264.4 181.5 266.4 181.7 268.8 178.4C270.7 175.8 272.4 176.6 273.6 179.1C275.1 182.1 277 182.5 279.9 180.9C282.9 179.3 286.3 178.2 289.6 177C291.1 176.5 292 176.9 292.3 178.1Z" fill="#A359DB"/>
<path d="M332.9 185.1C333.3 185.5 333.8 186 333.1 186.5C332.9 186.7 332.3 186.3 331.9 186.2C332.3 185.9 332.6 185.5 332.9 185.1Z" fill="#5A2A80"/>
<path d="M476.6 418.4C476.6 419.4 476.3 420.3 475.4 420.9C467.9 421 460.5 421 453 421.1C451.9 420.6 450.8 420.7 449.7 421.1C440.1 420.7 430.6 420.7 421 421.1C419.9 420.6 418.8 420.6 417.7 421C410.2 421 402.8 420.9 395.3 420.9C394.3 420.3 393.8 419.5 393.8 418.3C395.3 417.3 397 417.5 398.6 417.5C423 417.5 447.4 417.5 471.8 417.5C473.4 417.6 475.1 417.3 476.6 418.4Z" fill="#1201FD"/>
<path d="M459 350.5C461 347.9 461.4 344.8 461.8 341.7C462 340.6 461.8 339 463.3 339C465.1 339 464.9 340.7 465.1 341.9C466 347.8 467.2 353.3 474.1 355.3C476 355.8 474.8 357 474 357.9C468.3 358.4 467.1 363 465.7 367.2C465.3 368.4 465.2 369.8 465.1 371.1C465 372.3 464.9 373.7 463.5 373.8C461.9 373.9 462 372.4 461.8 371.3C461.3 369 460.9 366.7 460.2 364.5C459.7 363 458.7 361.5 457.7 360.3C454.1 356.2 454.1 356.3 457.9 352.2C458.5 351.7 458.7 351.1 459 350.5Z" fill="#FEFEFE"/>
<path d="M490.2 401.8C490.3 402.3 490.2 403.1 489.2 403.4C488.3 403.7 487.6 403.4 487.2 402.5C486.5 400.8 486 399.1 485.2 397.4C482.6 391.4 479.1 386 474.7 381.3C473.9 380.4 472.3 379.5 473.6 378C475 376.5 476 378.1 476.8 378.9C483 385.4 487.3 392.9 490.2 401.8Z" fill="#EFEEE2"/>
<path d="M437.7 364.3C432.8 364.2 429.2 364.4 425.6 365.2C424.5 365.4 423 365.8 422.6 364.3C422 362.3 423.8 362.4 425.1 362.1C430.8 360.9 436.6 361.1 442.4 361.5C443.6 361.6 445 361.8 445 363.2C444.9 365.1 443.2 364.7 441.9 364.6C440.1 364.4 438.3 364.3 437.7 364.3Z" fill="#EFEEE2"/>
<path d="M245.6 391.5C245.1 390.3 244.7 389.1 244.2 387.8C244.5 384.2 245.9 381.3 249.6 380.3C253.6 379.3 256.2 381.4 258.3 384.6C261.8 389.8 265.5 395 269.1 400.1C270.2 401.6 271.5 403.1 273.6 402.3C276 401.4 276 399.4 275.6 397.3C275.4 396.3 275.1 395.4 274.9 394.4C272.3 384.1 269.5 373.9 267.1 363.5C265.4 355.9 265.9 348.6 272 342.7C277 342.7 280.8 345.9 285.1 347.6C280.6 351.4 279.7 356.5 280.2 362.1C281.4 375.7 286.7 388.1 292.1 400.4C296.2 409.8 300.7 419.1 302.8 429.3C303 430.3 303.3 431.2 303.5 432.2C304.5 438.8 302.3 444.4 298 446.6C293.7 448.8 288 447 283.4 442C282.4 440.9 281.4 439.7 280.4 438.6C273.4 430.8 266.8 430.7 259.7 438.3C258.8 430.9 257.8 423.6 256.9 416.2C257.2 412.3 257.6 408.3 257.8 404.4C257.9 402.7 259.3 400.4 257.1 399.5C254.7 398.6 254.9 401.8 253.5 402.8C250.9 399.1 249 394.8 245.6 391.5Z" fill="#1201FD"/>
<path d="M272 342.8C265.9 348.7 265.4 356 267.1 363.6C269.5 373.9 272.3 384.2 274.9 394.5C275.1 395.5 275.4 396.4 275.6 397.4C276 399.5 276 401.5 273.6 402.4C271.5 403.2 270.2 401.8 269.1 400.2C265.5 395 261.8 389.9 258.3 384.7C256.2 381.5 253.6 379.4 249.6 380.4C245.8 381.4 244.5 384.3 244.2 387.9C238.6 382 237.8 374.9 239.5 367.4C242.3 355.1 248.3 345.3 261.2 341.2C261.6 341.1 262.1 341 262.5 340.9C264.1 340.7 265.7 340.4 267.3 340.2C268.9 341.1 270.5 341.9 272 342.8Z" fill="#F8AFFC"/>
<path d="M326.5 310C326.3 310.5 326.1 311.1 325.8 311.7C322.8 319.9 319.7 328.2 316.7 336.4C316.2 337.8 316.1 340.3 313.7 339.2C311.7 338.3 313.4 336.5 313.8 335.3C316.7 327 319.8 318.8 322.9 310.6C323.3 309.4 323.6 307.9 325.5 308.3C326.2 308.5 326.5 309.1 326.5 310Z" fill="#EFEEE2"/>
<path d="M329 300.8C327.6 300.7 327 300 327.3 299.2C328.3 296.1 329.4 293 330.6 290C330.9 289.2 331.9 289 332.7 289.4C333.3 289.7 333.6 290.4 333.4 291C332.4 293.9 331.3 296.8 330.1 299.7C330 300.2 329.3 300.5 329 300.8Z" fill="#EFEEE2"/>
<path d="M170.8 225.5C170.2 222.1 171.5 218.9 171.8 215.7C172.1 215.2 172.4 214.8 172.6 214.3C174.6 214.7 176.6 215.2 178.6 215.6C178.2 216.6 177.8 217.5 177.3 218.5C174.7 220.3 173.7 223.8 170.8 225.5Z" fill="#F8AFFC"/>
<path d="M404.5 196.6C404.4 192.4 405.4 189.3 407.3 186.5C408 185.4 408.9 184 410.4 185C411.7 185.9 410.6 187.1 410.1 188C408.3 191.4 406.9 194.9 408.1 198.9C408.5 200.1 408.9 201.9 407.2 202.3C405.1 202.7 405.1 200.6 404.8 199.3C404.5 198.1 404.5 196.9 404.5 196.6Z" fill="#595C0B"/>
<path d="M414.3 199.9C414.7 198.5 414.8 197 415.5 195.7C416.3 194 416.9 191 419.2 192C421.9 193.2 418.9 194.9 418.6 196.4C418.1 199 418 201.6 418.8 204.2C419.2 205.3 419.8 206.6 418.2 207.1C416.7 207.6 416.3 206.1 415.8 205.2C414.9 203.5 414.3 201.8 414.3 199.9Z" fill="#595C0B"/>
<path d="M429.4 203.2C428.7 204.7 430.7 207.7 428 207.7C425.8 207.7 425.8 204.6 425.8 202.8C425.8 201.1 425.9 198.2 427.9 198.4C430.9 198.6 428.6 201.6 429.4 203.2Z" fill="#595C0B"/>
<path d="M25.5999 451.4C25.0999 451.2 24.6 451.1 24.3 450.8C23.3 449.9 23.9999 449 24.5999 448.2C27.2999 443.7 31.2 440.4 35.8 437.8C41.4 434.7 46.9 431.7 49.2 425.1C49.5 424.2 50.2 423.2 51.4 424C52.4 424.6 52.3 425.5 52 426.6C50.5 431.1 47.3999 434.3 43.5999 436.8C37.5999 440.8 30.5 443.6 26.8 450.5C26.6 450.8 26.0999 451 25.5999 451.4Z" fill="#EFEEE2"/>
<path d="M200.4 396.5C214.5 396.6 228.6 396.7 242.7 396.7C241.5 400.6 241.2 405 236.7 407C223.3 409.7 210 412.5 196.6 415.2C194.4 415.6 192 416.9 190.3 414.3C188.6 411.6 191 410 192.1 408.1C194.6 404.2 197.3 400.4 199.9 396.5H200.2H200.4Z" fill="#F8AFFC"/>
<path d="M236.6 407C241.1 405 241.4 400.6 242.6 396.7C243.6 394.9 244.6 393.2 245.5 391.4C248.9 394.7 250.8 399 253.4 402.8C251.9 405.5 250.5 408.2 249 410.9C245.2 410.9 241.4 410.8 237.5 410.8C237.2 409.6 240.2 407.5 236.6 407Z" fill="#A359DB"/>
<path d="M200.4 396.5L200.2 396.7H199.9C199.8 396.4 199.9 396.3 200.2 396.2L200.4 396.3V396.5Z" fill="#A359DB"/>
<path d="M269.2 155.5C266.7 155.5 265.3 154.8 264.3 153.4C263.7 152.5 263.9 150.7 264.5 151C267.2 152.2 270.3 151.2 272.9 152.5C273.7 152.9 272.6 154.3 271.7 154.7C270.7 155.1 269.6 155.4 269.2 155.5Z" fill="#97382F"/>
<path d="M449.7 421.1C450.8 420.7 451.9 420.6 453 421.1C450.6 431 444.4 436.5 435.6 436.5C426.4 436.6 420.1 431.1 417.7 421.1C418.8 420.6 419.9 420.6 421 421.2C423 429.1 428.3 433.5 435.6 433.4C442.7 433.3 447.7 428.9 449.7 421.1Z" fill="#EFEEE2"/>
<path d="M125.1 208.5C122.7 208.3 120.1 207.5 117.7 205.8C116.9 205.2 116.4 204.2 117.2 203.3C117.8 202.5 118.7 202.7 119.4 203.2C126 207.4 130.9 205.3 134.9 199.2C135.4 198.4 136.1 197.4 137.2 198.4C138 199.2 137.8 200.3 137.2 201.2C134.3 205.1 131 208.4 125.1 208.5Z" fill="#7BB9D2"/>
<path d="M381.3 222.6C381.4 223.7 381 224.4 380.1 224.6C379.2 224.8 378.6 224.3 378.3 223.4C377 219 375.3 214.7 372.8 210.7C372.3 209.9 372.4 209.1 373.3 208.6C374.1 208.1 375 208.3 375.5 209.1C378.2 213.3 380 217.9 381.3 222.6Z" fill="#EFEEE2"/>
<path d="M363.9 197.5C365.5 197.6 372 203.4 372 204.7C372 206.1 371 207.1 369.8 206.1C367.3 204.2 365 202 362.9 199.7C361.7 198.6 362.4 197.6 363.9 197.5Z" fill="#EFEEE2"/>
<path d="M95.7999 250.2C96.6999 250.3 97.4999 250.3 98.2999 250.4C96.7999 255.7 92.0999 257.8 88.2999 260.8C87.4999 261.4 86.5999 261 86.1999 260.2C85.4999 259 86.4999 258.4 87.2999 257.8C90.0999 255.3 92.9999 252.8 95.7999 250.2Z" fill="#EE41FC"/>
<path d="M249.1 411C250.6 408.3 252 405.6 253.5 402.9C254.8 401.9 254.7 398.7 257.1 399.6C259.3 400.4 257.8 402.8 257.8 404.5C257.6 408.4 257.2 412.4 256.9 416.3C256.2 420.4 255.8 424.5 253.7 428.2C252.6 430.1 251.4 432.1 248.8 431.6C246 431 244.8 428.8 244.6 426.1C244.3 420.6 247.3 416 249.1 411ZM253.6 411C250.6 415.3 248.3 419.9 247.7 425.2C247.6 426.4 247.8 427.8 249.2 428C250.6 428.2 251 426.7 251.4 425.7C253.2 421 253.5 416.1 253.6 411Z" fill="#97382F"/>
<path d="M147.4 152.1C149.2 154.1 154.1 149.7 154.2 154.8C154.2 156.8 151.4 159.7 149.1 159.3C146.8 158.9 144.3 156.7 143.9 153.9C143.6 152.3 145.6 151.9 147.4 152.1Z" fill="#EE41FC"/>
<path d="M159.6 137.5C161.5 138.4 165.9 136.7 163.9 141.7C162.1 143.9 160.5 146.4 157.2 146.6C155.6 144.1 155.2 141.5 156.3 138.6C157.3 138.2 158.5 137.9 159.6 137.5Z" fill="#021B32"/>
<path d="M140.9 139.4C144.6 140.1 146.2 144 145.2 145.8C143.6 148.7 140.1 147.1 137.5 145.6C137.6 143 139.2 141.2 140.9 139.4Z" fill="#021B32"/>
<path d="M156.2 138.6C155.1 141.4 155.6 144.1 157.1 146.6C154.4 148 150.9 148.6 149.6 146.1C148.1 143.4 151.4 141.4 153.5 139.7C154.3 139.2 155.3 139 156.2 138.6Z" fill="#FEFEFE"/>
<path d="M140.9 139.4C139.2 141.2 137.6 143 137.4 145.6C135.5 145.4 134.6 144 133.5 142.8C135.7 141.1 137.8 139.1 140.8 138.9C140.8 139.1 140.8 139.3 140.9 139.4Z" fill="#EFEEE2"/>
<path d="M176.6 150.1C177 151.8 177.4 153.7 174.9 153.7C172.6 153.7 171.3 152.3 171.8 149.8C173.4 149.9 175 150 176.6 150.1Z" fill="#AAE5F1"/>
<path d="M508.4 361.3C507.6 361.5 507.2 360.9 506.9 360.3C507.6 360.2 508.3 360.3 508.4 361.3Z" fill="#5A2A80"/>
<path d="M518.5 164.5C518.5 163.9 518.6 163.4 518.6 162.8C521.4 162.4 524.2 161.7 527 161.5C530.1 161.3 532.3 163 531.9 166.2C531.5 169.2 529 170 526.2 169.6C522.9 169.2 521 166.3 518.5 164.5Z" fill="#5A2A80"/>
<path d="M514.1 165.4C511.9 165.7 509.8 165.7 507.8 164C510.4 162.1 512.8 161.9 515.4 163.7C514.9 164.3 514.5 164.9 514.1 165.4Z" fill="#5A2A80"/>
<path d="M279.9 132.8C281.1 132.3 282.4 132 283.6 131.4C285.9 130.4 288 130.5 288.9 133C289.9 135.7 287.8 136.8 285.7 137.5C284.5 137.9 283.2 138.2 281.9 138.5C281.9 136.5 281.1 134.6 279.9 132.8Z" fill="#EFEEE2"/>
<path d="M279.9 132.8C281.1 134.6 281.9 136.4 281.9 138.6C281 139 280.1 139.4 279.2 139.7C277.4 140.2 275.9 139.7 275.2 137.8C274.4 135.8 275.6 134.7 277.2 133.8C278.1 133.5 279 133.2 279.9 132.8Z" fill="#021B32"/>
<path d="M460.2 190.1C453.1 189.4 448.7 186.1 446.9 180.1C445.3 174.6 447.3 168.4 451.8 165C456.5 161.4 462.3 161.2 468 164.5C466.8 168.4 465.7 172.4 464.5 176.3C463.3 180.3 461.4 184.2 461.1 188.5C460.9 189.1 460.6 189.6 460.2 190.1Z" fill="#021B32"/>
<path d="M461.3 188.5C461.5 184.2 463.5 180.4 464.7 176.3C468 177.1 471.2 176.9 474.5 176.3C474.8 179.5 473.8 182.3 471.5 184.7C471 184.8 470.1 184.6 470.5 185.6L470.6 185.5C466.8 184.8 464.6 188.3 461.3 188.5Z" fill="#5A2A80"/>
<path d="M474.4 176.3C471.1 176.9 467.9 177.1 464.6 176.3C465.8 172.4 466.9 168.4 468.1 164.5C472.4 167.3 474.8 171.1 474.4 176.3Z" fill="#F7AD8C"/>
<path d="M461.3 188.5C464.6 188.3 466.9 184.8 470.5 185.6C468.1 189.4 464.4 190.2 460.3 190.2C460.6 189.6 460.9 189.1 461.3 188.5Z" fill="#EFEEE2"/>
<path d="M470.4 185.6C470.1 184.5 470.9 184.8 471.4 184.7C471.3 185.3 471.1 185.7 470.4 185.6Z" fill="#EFEEE2"/>
<path d="M484.3 149.6C481.8 154.9 478.5 155.9 474.4 152.1C478.4 153.7 481 150.1 484.3 149.6C484.4 149.7 484.3 149.6 484.3 149.6Z" fill="#1D1C4B"/>
<path d="M35.4 61C38.9 63.8 39 66.6 35.4 69.4C32 66.6 32.1 63.8 35.4 61Z" fill="#5A2A80"/>
<path d="M522.8 147.1C523 147.5 523.4 148 523.3 148.2C522.9 148.9 522.3 148.5 521.8 148.2C522.2 147.9 522.5 147.5 522.8 147.1Z" fill="#5A2A80"/>
<path d="M262.5 340.9C262 341 261.6 341.1 261.2 341.2C262.5 338.5 259.8 338.6 258.7 338C251.1 333.2 243.5 328.5 235.7 324C232.7 322.3 231.8 320.7 233.4 317.3C241 300.8 248.2 284.2 255.7 267.8C258.5 261.6 258.6 255.3 256.8 248.8C256.4 247.5 255.3 245.6 257.6 245.1C259.3 244.7 259.5 246.6 259.8 247.8C261.9 254.9 261.9 261.8 258.7 268.7C251.5 284.6 244.5 300.6 237.3 316.4C236 319.2 236.2 320.6 239 322.2C246.5 326.5 253.7 331.2 261.2 335.6C263.7 337 264.6 338.5 262.5 340.9Z" fill="#A359DB"/>
<path d="M449.7 421.1C447.7 428.9 442.7 433.3 435.6 433.4C428.3 433.5 423 429.1 421 421.2C430.5 420.7 440.1 420.7 449.7 421.1Z" fill="#021B32"/>
<path d="M253.6 411C253.5 416.1 253.2 421 251.3 425.6C250.9 426.6 250.5 428.1 249.1 427.9C247.7 427.7 247.5 426.3 247.6 425.1C248.3 419.9 250.6 415.3 253.6 411Z" fill="#021B32"/>
</svg>
