<svg width="751" height="516" viewBox="0 0 751 516" fill="none" xmlns="http://www.w3.org/2000/svg">
<g clip-path="url(#clip0)">
<path d="M750.5 515.6C710.1 515.6 669.8 515.5 629.4 515.5C627.2 515.5 625.1 515.4 622.9 515.4C627.7 513.8 632.6 512.2 637.4 510.6C675.1 510.6 712.8 510.6 750.5 510.6C750.5 512.2 750.5 513.9 750.5 515.6Z" fill="#97382F"/>
<path d="M53.9 448.5C43.3 447.4 32.7 448 22 448.1C17.4 448.1 16.2 446.8 16.1 442.2C16 427.3 18.9 413.5 28.6 401.7C33.8 395.3 40.8 391 47.4 386.3C54.1 381.5 61.4 377.3 67.9 372.1C73.8 367.5 78.4 361.9 81.6 355.2C96 325.8 111.7 297.1 127.6 268.5C128.1 267.6 128.3 266.6 128.6 265.7C129.8 263.9 131.2 262.2 132.2 260.4C136.3 253.2 140.5 246 144.5 238.7C146 235.9 147.1 235.7 149 238.3C150.8 240.7 152.7 243 154.8 245.1C157.2 247.5 159.7 247.7 161.6 244.3C163.3 243.9 164.2 243 164.2 241.2C165.7 239.6 166.4 237.6 166.7 235.5C166.9 235 167.1 234.5 167.2 234C168.9 232.2 168.4 230 168.2 227.9C167.6 223.2 164.4 219.9 162 216.2C173.5 206.2 187.1 201.7 202.1 200.8C205.1 200.9 208.2 200.9 211.2 201C215.5 202 219.8 202.8 224 204.1C228.5 205.5 232.8 207.4 237.2 209.1L237.1 209C237.5 209.3 237.9 209.6 238.3 210C239 210.3 239.6 210.6 240.3 210.9C241.3 212.4 240.8 214.1 241.1 215.7C241.9 219.7 241.6 224.1 245.1 227.1C246.6 230.6 248.4 233.7 252.2 235.1C253.4 236.7 254.9 237.5 256.9 236.7C258.9 237.4 260.8 238.2 262.8 238.9C263.5 239.3 264.3 239.7 265 240.2C265.3 241.1 265.5 242.1 266 243C276.9 262.7 287.8 282.4 298.7 302.1C295.6 310.3 292.3 318.5 289.5 326.8C286 337.3 286 347.7 291.8 357.6C294.6 362.4 298.2 366.5 302.3 370.2C304.3 372 304.9 373.4 303.3 376C296 388.4 288.9 401 281.7 413.6C275.1 408.6 271.7 409.1 266.4 415.5C265.8 416.3 265.1 417 264.5 417.7C244.4 354.7 224.3 291.8 203.8 227.4C201.5 234.5 199.6 240.3 197.7 246C179 304.6 160.4 363.1 141.7 421.7C138.9 430.6 136 439.4 133.1 448.2C125.7 448.1 118.2 448 110.8 448C92 448.2 72.9 448.4 53.9 448.5Z" fill="#A359DB"/>
<path d="M339.1 119.6C382.1 111 424 114 464.6 131.1C466 131.7 467.4 132.1 468.8 132.6C469 132.8 469.2 132.9 469.5 133.1C469.5 132.7 469.5 132.4 469.5 132C464.2 121.8 458.9 111.5 453.6 101.3C473.8 108.8 490.7 103.7 504.4 87.5C507.6 83.7 510.2 79.5 513.1 75.5C522.2 92.8 531.7 109.9 540.3 127.5C546.6 140.4 546.6 154.1 541.8 167.7C540.9 166.2 539.9 164.7 539.1 163.1C534.3 154.6 528.4 147.1 519.6 142.4C507.5 136 497.2 141.6 495.9 155.3C495.4 160.5 495.6 165.6 497.2 170.6C498.2 173.7 497.3 174.2 494.4 174.2C484.2 174.3 476.8 179.4 472 188.2C469.2 193.3 466.6 198.4 463.9 203.6C462.1 203.7 460.3 203.8 458.5 203.8C444.3 203.9 430.1 204 415.9 204.1C391.7 203.5 367.5 203.8 343.4 204C335.5 204 327.6 204 318.8 204C320.5 205.3 321.4 206 322.3 206.7C317 207.8 311.5 207 306.6 210.4C294 219 290.2 230.9 295.1 247.6C287.2 244 280.1 239 272.8 234.4C275.6 223.1 280.7 212.7 285.1 202.1C285.4 201.7 285.8 201.3 286 200.9C297.6 183.2 313.2 170.7 333.9 164.9C342.3 162.5 347.8 156.5 350 148C353.3 135.8 348.5 126.7 339.1 119.6ZM366.4 118.5C364.9 118.9 363.8 119.8 364.6 121.3C365.4 122.9 366.6 124.3 367.7 125.8C372.9 132.7 373.1 132.9 378.8 126.6C381.2 124 382 125.2 383.5 127.2C385 129.1 385.8 132.5 389.5 131C396 128.4 402.4 125.7 408.8 123C410.3 122.4 411.6 121.4 410.7 119.6C409.8 117.7 408.2 118.6 406.8 119.1C402.9 120.6 398.9 121.9 395.3 123.9C390.5 126.5 386.9 126.6 384.3 120.9C383 118 380.7 117.7 378.5 120.4C377.9 121.2 377 121.8 376.5 122.6C374.1 126.2 372.2 125.1 370.3 122.1C369.4 120.5 368.6 118.8 366.4 118.5Z" fill="#F9AFFD"/>
<path d="M520.7 416C531.5 393.9 547.9 377.4 570.1 366.7C594.9 355.8 620.2 354.7 645.9 363C644.4 366.4 641.9 368.6 638.2 369.2C637 369.4 635.9 370 635.9 371.4C635.9 372.5 636.8 373.2 637.8 373.4C644.9 374.6 647 380.3 648.8 386.1C649.5 388.4 649.7 391 650 393.4C650.2 394.8 650.6 396.2 652.2 396.1C653.8 396 654.3 394.7 654.4 393.3C654.6 388.6 655.7 384.1 658 380C660 376.5 662.5 373.4 667.2 373.6C677.2 380 685.5 388.4 693.3 397.2C693.6 399.5 695.3 401 696.5 402.8C708 420 713.8 438.9 713.4 459.6C712.2 459 711.1 458.6 709.7 458.6C696.6 458.7 683.6 458.7 670.5 458.8C669.6 458 668.5 457.8 667.3 457.8C629.8 457.9 592.3 457.9 554.8 458C553.2 456.2 551.1 456.9 549.2 456.8C536.7 456.3 524.2 457.8 511.8 455.8C511.6 441.8 515.6 428.8 520.7 416ZM666.7 401C666.7 401 666.3 401.7 665.9 402.5C665.3 403.9 666.3 404.7 667.1 405.5C675.3 414 681.2 423.8 684.9 435C685.4 436.6 685.9 438.5 688.2 437.8C690.5 437 689.7 435.2 689.1 433.7C685.2 422.1 679.1 411.8 670.5 402.9C669.9 402 669.2 401 666.7 401ZM614.6 382.4C617.4 382.6 620.2 382.8 623 383.1C624.7 383.3 626.2 383 626.3 381.1C626.3 379.6 625.1 379 623.6 378.8C614.8 377.6 606.1 377.9 597.4 379.5C595.9 379.8 594.2 380 594.5 382C594.8 384.3 596.7 384.1 598.4 383.8C603.7 382.7 609.1 382.4 614.6 382.4Z" fill="#011B32"/>
<path d="M514 470.8C512.8 472 511.2 471.6 509.8 471.6C493.2 471.6 476.7 471.6 460.1 471.5C456.4 463.3 452 455.6 447.4 447.8C443.5 441.1 439.8 434.2 436.6 427C431.9 416.3 431.1 405.6 435.9 394.7C437.3 391.5 438.4 388.1 438.9 384.7C440.3 374.9 436.2 367.1 428.5 361.3C420 355 410.7 354.6 401.2 359C399 358 396.9 356.7 394.6 355.9C390.7 354.6 387.5 351.2 382.9 352C380.6 350.8 378.2 349.6 375.9 348.5C376.2 347.6 376.3 346.6 376.7 345.7C383.7 328.9 390.8 312.1 397.9 295.4C403.5 282.2 409.3 269 415 255.8C433 255.8 450.9 256.5 468.8 255.6C484.5 254.8 495.7 269.3 489.5 285.2C477.3 316.4 466 348 454.6 379.5C448.5 396.4 451.2 412.2 462.5 426.3C468.9 434.3 475.8 442.1 482.1 450.2C490.3 461.1 500.6 468.3 514 470.8ZM442.4 347.8C444.1 347.3 444.6 346 445.1 344.5C449.6 332.2 454.2 319.9 458.7 307.7C459.3 306.1 460.1 304.3 457.7 303.6C455.8 303 455.1 304.6 454.6 306C453.3 309.6 452 313.2 450.6 316.7C447.3 325.7 444 334.8 440.6 343.7C439.9 345.8 439.9 347.2 442.4 347.8ZM462.9 293.3C463.3 293 464 292.7 464.2 292.2C465.9 287.9 467.5 283.6 469.1 279.2C469.4 278.2 468.9 277.2 467.8 276.8C466.5 276.3 465.5 277 465 278.2C463.4 282.2 461.9 286.2 460.5 290.3C459.8 292 460.8 293.1 462.9 293.3Z" fill="#021B32"/>
<path d="M211.3 201.2C208.3 201.1 205.2 201.1 202.2 201C190.7 198.3 182.6 191.1 176.8 181.1C175.8 179.4 175 178.3 172.6 179C154.8 184.4 137 189.6 119.2 194.9C116.5 195.7 116.6 196.6 118.2 198.6C121 202.3 123.6 206.1 126.3 209.9C125.9 211 125.5 212 125.2 213.1C120.1 230.6 97.7 245.3 80.5 242.4C71.2 230.7 61.6 219.1 54.6 205.9C42.6 183.4 54 155.8 78.4 148.1C104.7 139.8 131.2 132.3 157.7 124.4C164.5 122.4 171.4 120.4 178.3 118.4C175.9 123.7 171.3 126.7 166.4 129.3C162.9 131.2 159.2 132.7 155.7 134.7C149.2 138.5 146.9 144.4 147.9 151.6C149.8 164.7 162.7 174.1 177.1 173.2C191.9 172.2 202.6 161.7 202.6 147.8C202.7 137.3 202.7 126.9 202.8 116.4C212.6 116.4 222.4 116.4 232.2 116.4C230.7 125.8 229.3 135.3 227.6 144.7C226.3 152.3 228.5 158.7 233.5 164.3C236.1 167.2 239.5 168.8 242.6 171.1C242.1 172.5 241.6 173.8 241.1 175.2C240.3 175.4 239.7 175.9 239.3 176.7C233.6 189.1 224.8 197.8 211.3 201.2Z" fill="#97382F"/>
<path d="M401.3 359.2C410.8 354.7 420.1 355.1 428.6 361.5C436.3 367.2 440.3 375 439 384.9C438.5 388.3 437.4 391.7 436 394.9C431.2 405.8 432 416.5 436.7 427.2C439.9 434.3 443.5 441.2 447.5 448C452 455.7 456.5 463.5 460.2 471.7C460.9 474.3 461.7 476.8 462.4 479.4C467 498.1 453.8 515.2 434.5 515.4C419.9 515.6 405.3 515.5 390.6 515.4C388.5 515.4 386.3 515.1 384.2 514.9C371.1 510.1 365.6 502.1 365.3 487.3C374.2 476.6 384.4 476.4 393.9 486.8C396.8 490 399.5 493.4 402.8 496.1C412.1 503.6 424.1 499.6 426.9 488.1C427.8 484.2 427.4 480.2 426.6 476.3C423.9 464.1 419.7 452.4 414.4 441.1C405.8 422.8 397.9 404.1 394.7 384C393.1 374.8 393.2 365.8 401.3 359.2Z" fill="#F8FBE1"/>
<path d="M693.4 397.2C685.6 388.3 677.3 380 667.3 373.6C669.1 371.7 669.3 369.9 666.3 369.4C661 368.5 658.7 364.5 656.8 360.2C655.4 357 654.7 353.6 654.5 350.1C654.4 348.6 654.3 346.9 652.3 346.9C650.3 346.9 650.2 348.7 650.1 350.2C649.6 354.8 648.9 359.4 646 363.3C620.3 354.9 595 356.1 570.2 367C569.5 356 570.3 345.1 571 334.2C571.5 325.9 579.1 319.4 588.8 319.4C625.2 319.2 661.6 319.2 697.9 319.4C710.1 319.5 718 331.4 713.8 342.8C707.1 360.8 700.2 379 693.4 397.2Z" fill="#5A5C0B"/>
<path d="M132.6 449.8C126.1 470.5 119.6 491.3 113 512C112 515 106 516.9 103.4 515.2C101.9 514.2 102.7 512.8 103 511.6C104.6 503 106.3 494.3 107.9 485.7C108.1 484.4 108.3 483.1 108.5 481.8C108.7 480.2 108.3 478.7 106.7 478.1C104.7 477.4 103.5 478.6 102.7 480.2C101.2 483.3 99.9 486.6 98.5 489.8C95.8 496.3 92.2 502.2 88.2 508C84.5 513.2 79.8 515.8 73 515.7C50.7 515.4 28.5 515.6 6.19999 515.6C3.89999 515.6 1.09999 516.2 0.0999908 513.5C-0.800009 511.1 1.49999 509.7 2.89999 508.1C7.79999 502.7 13.4 497.8 19.7 494.2C34.1 486 43.1 473.4 49.4 458.5C50.8 455.3 52.4 452.2 53.9 449.1C55.7 450.3 57.8 449.9 59.7 449.9C84.1 449.7 108.4 449.7 132.6 449.8ZM73.3 468.5C73.3 467.3 72.6 466.6 71.6 466.2C70.2 465.7 69.3 466.6 68.9 467.7C65.9 477.2 58.1 481.5 50.2 485.8C43.7 489.4 38.1 494 34.3 500.4C33.4 501.9 32.4 503.4 34.4 504.7C36.2 505.8 37.1 504.3 37.9 503C41.9 496.3 47.8 492 54.5 488.5C60.1 485.5 65.3 481.9 69.2 476.8C71.2 474.4 72.5 471.5 73.3 468.5Z" fill="#021B32"/>
<path d="M264.7 417.8C265.3 417.1 266 416.3 266.6 415.6C271.9 409.1 275.3 408.7 281.9 413.7C285.2 418.6 284.4 423.3 281.3 427.9C277 434.2 272.7 440.5 268.4 446.8C267.1 448.8 265.8 450.8 267.5 453.2C269.2 455.7 271.6 455.4 274.2 454.9C294.9 450.6 315.5 446.4 336.2 442.1C335.5 444.1 334.9 446.2 334.2 448.2C330.4 457 326.7 465.8 322.9 474.5C316 470.4 309.2 470.9 302.1 474.3C283.2 483.1 264 491.4 245.1 500.3C237.7 503.8 231 503.4 224.6 498.3C219.8 494.5 215.2 490.4 210.6 486.4C205.5 482 200 478.4 193.1 477.6C207.8 468.4 223 460.1 237.1 450C240.1 447.9 243.8 446.3 245.3 442.5C249.4 442 251.4 445.8 254.7 447.2C256.1 447.8 257.3 449.5 259.1 447.9C260.6 446.6 260.2 445 259.6 443.4C258.2 439.6 256.7 435.7 255.3 431.9C259.4 427.8 261.8 422.6 264.7 417.8Z" fill="#1202FD"/>
<path d="M339.1 119.6C348.5 126.7 353.3 135.8 350.1 147.7C347.8 156.2 342.4 162.2 334 164.6C313.3 170.4 297.8 182.8 286.1 200.6C285.8 201 285.5 201.4 285.2 201.8C287.2 193.8 284.5 187.5 278.2 182.5C270.2 176.1 261.5 172.5 251.1 175.2C250.4 174.5 251.2 173.9 251.3 173.2C259.7 162.7 267.8 152 277.7 142.9C280.6 140.2 279.7 138.7 277.4 136.8C273.4 133.4 268.5 131.7 264 129.4C258.3 126.4 253.2 122.9 251 116.5C276.3 116.5 301.5 116.5 326.8 116.4C331.1 116.4 335 118.1 339.1 119.6Z" fill="#97382F"/>
<path d="M514 470.8C500.6 468.3 490.3 461.2 482 450.4C475.7 442.2 468.9 434.5 462.4 426.5C451.1 412.4 448.4 396.7 454.5 379.7C465.9 348.2 477.1 316.6 489.4 285.4C495.7 269.5 484.5 255 468.7 255.8C450.8 256.7 432.8 256 414.9 256C416.1 251.7 417.4 247.4 418.6 243.1C427 243.1 435.4 243.1 443.8 243.1C445.4 243.1 447.1 243.1 448.7 243C456 243.1 463.3 243.2 470.6 243.2C494.5 243.3 509.9 265.1 501.8 287.7C494.8 307.2 487.5 326.7 480.3 346.2C479.7 347.9 479.2 349.7 478.7 351.4C473.6 363.5 468.8 375.7 465.1 388.3C461.9 399 464.7 409.1 471.6 417.8C479.3 427.4 487.1 436.9 495.1 446.3C499.5 451.5 504.7 455.4 511.5 456.9C515.2 458.6 519.2 458.7 523.2 458.7C533.5 458.8 543.7 458.8 554 458.9C553.8 460.4 554.3 461.6 555.8 462.3C556 465.3 556.3 468.3 556.5 471.2C556.2 471.1 555.9 471.2 555.7 471.5C543.9 471.4 532.1 471.4 520.2 471.3C519.2 471.2 518.3 471.2 517.3 471.1C516.4 470.9 515.2 470.8 514 470.8Z" fill="#AAE5F2"/>
<path d="M193 477.5C199.9 478.3 205.4 481.9 210.5 486.3C215.2 490.3 219.7 494.4 224.5 498.2C230.8 503.2 237.5 503.6 245 500.2C263.9 491.4 283.1 483.1 302 474.2C309.2 470.8 315.9 470.4 322.8 474.4C324.1 475.6 325.5 476.9 326.8 478.1C335.3 486.7 339.7 503.1 324.1 513.3C319.7 514.8 315.1 515.2 310.4 515.2C272.9 515.1 235.3 514.9 197.8 515.3C181.3 515.5 174 498.6 180.7 487C183.5 482.3 188.1 479.6 193 477.5Z" fill="#F8FBE1"/>
<path d="M424.9 70.5C423.2 75.8 423.7 81.3 423.2 86.7C421.7 104.7 412 112.3 394 109.1C386 107.7 378.2 105.4 370.6 102.7C363.5 100.2 361.2 95 364.2 88.2C366.8 82.3 368.8 75.8 377 75.4C382.5 75.2 387.8 74 392.3 79.5C396.4 84.5 401 83.7 404.3 78.1C410.3 67.8 415.9 57.2 421.7 46.8C422.3 45.7 422.6 44.6 421.6 43.6C420.4 42.3 419.2 43.1 418 43.6C410.2 46.9 402.4 50.2 394.6 53.4C390.9 54.9 387.4 56.8 383.3 56.8C372.9 54.4 368.1 48.6 369.9 40.6C371.7 32.3 379.6 27.9 387.4 31.4C390.8 32.9 391.5 32.4 392.5 28.9C395.4 18.6 409 15.5 416.1 23.5C419 26.7 420.4 28.1 424.2 24.5C428 20.9 432.9 20.9 437.7 23.5C449.1 29.6 450.6 43.7 440.8 51.8C440 52.4 439.4 53.2 438.8 53.9C431.9 57.6 425.6 61.8 424.9 70.5ZM378.7 88.5C378.9 88.5 380.1 88.4 381.2 88C382.8 87.3 384.9 86.5 384 84.2C383.1 81.9 381.3 83 379.9 83.7C378.1 84.6 376.8 84.1 375.5 82.7C374.4 81.4 373.1 80.8 371.8 82.4C370.6 83.9 371.6 85.2 372.6 86.3C373.8 88 375.7 88.6 378.7 88.5Z" fill="#021B32"/>
<path d="M637.4 510.6C632.6 512.2 627.7 513.8 622.9 515.4C609.4 516.7 596.3 515.7 584.3 508.5C570.3 500 560.7 488.3 557.6 471.8C558.7 471 559 469.8 558.5 468.7C556.7 464.4 558.8 463.6 562.6 463.7C568.5 463.9 574.5 463.9 580.4 463.7C584 463.6 586.9 463.8 587.5 468.2C587.7 469.5 588.4 471.1 590.3 471.2V471.3C590.1 471.9 590.3 472.3 590.9 472.5L590.8 472.4C590.7 473.5 591 474.2 592.2 474.4C604.3 486.9 617.6 487.6 630.8 476.4C631.5 476.3 631.9 475.9 631.8 475.1L632 474.8C633.2 475 633.3 474.2 633.3 473.3V473.4C633.9 473.2 634.1 472.8 634 472.2L634.1 472.1C635.4 472 635.4 471.2 635.1 470.3L635.2 470.2C636.9 470.3 637.6 469.2 637.8 467.8C638.4 463.8 641 463.5 644.3 463.6C649.4 463.8 654.5 463.6 659.6 463.7C663.1 463.7 667.2 462.5 668.5 467.7C668.4 468.6 668.4 469.4 668.3 470.3C668.3 470.7 668.2 471.1 668.2 471.5C663.7 489.1 653.2 501.9 637.4 510.6Z" fill="#011B32"/>
<path d="M513.1 75.3999C510.2 79.3999 507.6 83.5999 504.4 87.3999C490.7 103.6 473.8 108.7 453.6 101.2C442.4 92.4999 440.6 83.9999 447.6 71.3999C449.4 68.1999 451.6 65.1999 454 62.5999C458.9 57.3999 463.6 51.9999 467.1 45.6999C468.6 43.0999 470.5 40.3999 474.2 41.5999C477.9 42.6999 477.9 45.9999 477.7 48.9999C477.5 51.9999 476.9 54.8999 476.5 57.8999C472.8 57.0999 472.6 59.2999 473 61.8999C474.2 69.9999 472.3 77.2999 467.2 83.7999C466.2 85.0999 464.9 86.6999 466.9 87.9999C468.9 89.2999 469.8 87.3999 470.8 86.1999C476.5 79.2999 478.3 71.2999 477.6 62.4999C482.5 55.1999 485.8 46.9999 489.6 39.1999C492.2 33.6999 495.8 29.4999 502.2 28.1999C505.4 27.5999 508.4 27.7999 511 30.1999C504.8 30.8999 500.8 34.4999 497.8 39.6999C495.1 44.4999 493.5 49.7999 491.6 54.8999C491.1 56.1999 491.1 58.0999 489.2 58.2999C487.7 58.4999 486.5 58.7999 486.4 60.3999C486.3 62.3999 488.2 62.4999 489.5 63.0999C495 65.6999 499.8 69.1999 503.2 74.2999C504.1 75.6999 504.6 78.3999 507 76.9999C509.6 75.4999 507.6 73.5999 506.8 71.8999C505.9 69.6999 502.9 68.4999 504 65.3999C507.3 55.6999 509.8 45.5999 519.8 40.0999C522 43.8999 521 47.7999 520.2 51.6999C518.6 59.7999 516.3 67.6999 513.1 75.3999Z" fill="#F8AD8C"/>
<path d="M202.7 116.4C202.6 126.9 202.6 137.3 202.5 147.8C202.4 161.6 191.8 172.2 177 173.2C162.5 174.1 149.7 164.7 147.8 151.6C146.7 144.3 149 138.4 155.6 134.7C159.1 132.7 162.7 131.2 166.3 129.3C171.2 126.7 175.8 123.8 178.2 118.4C180.8 114 181.4 109.1 181.4 104C181.5 96.4 181.5 88.8 181.6 81.2C184.7 92.2 191.9 99.2 202.7 102.7C202.7 107.3 202.7 111.8 202.7 116.4Z" fill="#AAE5F2"/>
<path d="M511.7 456.8C504.9 455.3 499.6 451.4 495.3 446.2C487.4 436.8 479.5 427.3 471.8 417.7C464.8 409 462.1 398.9 465.3 388.2C469 375.6 473.8 363.4 478.9 351.3C479.2 361.7 482.5 371 489.4 379C499.9 391.3 509.8 404.1 520.8 416C515.7 428.7 511.7 441.7 512 455.7C511.9 456.1 511.8 456.4 511.7 456.8Z" fill="#97382F"/>
<path d="M448.8 243C447.2 243 445.5 243 443.9 243.1C449.8 229.5 457.4 216.7 463.9 203.5C466.6 198.4 469.3 193.2 472 188.1C476.8 179.2 484.1 174.2 494.4 174.1C497.3 174.1 498.2 173.6 497.2 170.5C495.6 165.6 495.4 160.4 495.9 155.2C497.1 141.5 507.5 135.9 519.6 142.3C528.4 147 534.3 154.5 539.1 163C540 164.6 540.9 166.1 541.8 167.6C543.4 173.3 545.7 178.8 546.3 184.8C546.8 189.3 546.5 193.8 545.1 198.1C542 207.7 534 211.1 524.6 207.2C520.1 205.3 516.6 202 512.7 199.3C508.1 193.3 503.3 187.4 500.5 180.2C499.9 178.8 499 178.3 497.5 178.3C489.3 178 482.4 180.4 477.7 187.4C474.2 192.6 471.4 198.2 469.1 204C461.8 216.6 455.4 229.8 448.8 243ZM536.5 183.2C534.8 176.3 532.1 170 528.3 164.1C527.6 163.1 526.7 162.3 525.4 163.1C524 163.9 523.8 165 524.7 166.4C528.1 171.9 530.6 177.8 532.3 184C532.6 185.1 533.3 186.3 534.7 186C536.2 185.8 536.7 184.6 536.5 183.2ZM512.2 147.5C511.3 147.4 510.6 147.9 510.1 148.6C509.6 149.4 509.5 150.3 510.2 150.9C513.4 154 516.8 157 520.1 160C520.8 160.6 521.7 160.6 522.4 160C523.1 159.5 523.5 158.8 523.4 157.9C523.2 156.1 514.1 147.6 512.2 147.5Z" fill="#041B32"/>
<path d="M80.4 242.4C97.6 245.3 120 230.6 125.1 213.1C125.4 212 125.8 210.9 126.2 209.9C129 214 131.7 218 134.5 222.1C130.8 225.8 127.1 229.6 122.8 232.7C121.5 233.6 119.6 234.7 121.2 236.6C122.6 238.3 124.2 237 125.6 236.1C129.7 233.2 133.3 229.8 136.7 226.3C137.8 225.2 138.6 224 138.1 222.4C140.1 220.5 142.1 218.5 144.2 216.6C153.4 208.1 153.4 208.1 162.2 216.5C164.6 220.2 167.9 223.5 168.4 228.2C168.6 230.3 169.1 232.5 167.4 234.3C165.2 227.4 160.2 222.1 157.1 215.7C156.6 214.7 155.4 214 154.1 214.8C152.6 215.7 152.8 217 153.5 218.2C156.6 223.3 159.1 228.8 162.7 233.6C163.6 234.8 164.6 235.4 166.1 235C166.3 235.2 166.5 235.5 166.8 235.7C166.5 237.8 165.7 239.8 164.3 241.4C160.2 236.4 157.4 230.6 153.8 225.2C152.9 223.9 152 222.6 150.2 223.5C149 224.1 148.9 225.5 149.5 226.5C153.4 232.5 156 239.5 161.5 244.4C159.6 247.8 157.1 247.6 154.7 245.2C152.6 243.1 150.7 240.8 148.9 238.4C147 235.9 145.9 236.1 144.4 238.8C140.5 246.1 136.3 253.3 132.1 260.5C131 262.4 129.7 264.1 128.5 265.8C120 272.4 111.4 272.9 101.9 267.1C92.2 261.2 86.5 251.6 80.4 242.4Z" fill="#F8AD8C"/>
<path d="M250.9 116.5C253.1 123 258.2 126.5 263.9 129.4C268.4 131.8 273.3 133.5 277.3 136.8C279.6 138.8 280.6 140.3 277.6 142.9C267.7 152 259.6 162.7 251.2 173.2C248.3 172.5 245.5 171.8 242.6 171.1C239.5 168.9 236.1 167.3 233.5 164.4C228.5 158.8 226.2 152.4 227.6 144.8C229.3 135.4 230.6 125.9 232.2 116.5C233.5 108.8 234.8 101.1 236.1 93.3C236.7 90.4 237.2 87.5 237.8 84.6C240 89 243.7 90.6 248.4 90.2C248.8 99 247.1 108 250.9 116.5Z" fill="#AAE5F2"/>
<path d="M324.1 513.4C339.7 503.3 335.3 486.8 326.8 478.2C325.5 476.9 324.2 475.7 322.8 474.5C326.6 465.7 330.3 456.9 334.1 448.2C339.6 448.3 345 448.4 350.5 448.4C349.6 450.4 348.8 452.4 347.9 454.3C345.8 459.2 343.7 464.1 344 469.6C344.2 473.5 345.9 476.5 349.8 477.3C353.6 478.1 355.5 475.2 356.9 472.3C359.5 467 360.2 461.2 361.1 455.5C363.5 465.9 363.5 476.7 365.1 487.2C365.3 502 370.9 510 384 514.8C382.9 515.8 381.5 515.5 380.2 515.5C364.3 515.5 348.4 515.4 332.5 515.5C329.6 515.5 326.7 515.1 324.1 513.4Z" fill="#041B32"/>
<path d="M237.8 84.6C237.2 87.5 236.7 90.4 236.1 93.3C226.7 102.7 215.5 105.5 202.6 102.7C191.8 99.2 184.6 92.2 181.5 81.2C181.5 78.7 181.5 76.3 181.5 73.8C183.8 72.9 185.4 70.8 188 70.6C189.1 72.7 190.8 74.1 193.1 74.7C196.6 77.2 201.4 78.6 203.8 75.7C206 73 202.5 69.1 200.2 66.3C199.9 65.9 199.4 65.7 199 65.4C198.7 65.1 198.5 64.7 198.2 64.4C203.8 61 209.5 57.7 215 54.1C218.3 51.9 219.7 52.6 220.8 56.3C221.5 58.8 223.1 61 224.3 63.3C222.8 63.7 221.3 64.1 219.8 64.5C218.7 64.9 217.6 65.2 216.6 65.7C212.5 67.9 208 74.2 209.6 75.5C213.1 78.4 217.2 77.9 221.2 76.3C225.1 75.2 227.6 72.3 230.1 69.3C232.5 69.9 234.6 73.7 237.2 69.9C239.7 66.2 243.1 65.4 247.2 66.5C250.3 68.7 251.7 71.6 251.2 75.4C250.4 76.9 249.7 78.5 248.9 80C246.3 80 243.9 82.1 241.3 80.6C241.6 78.7 242.8 77.8 244.4 77.1C245.8 76.5 246.8 75.5 245.9 74.1C245 72.8 243.4 73.2 242.3 73.8C238 76.1 236.7 79.8 237.8 84.6ZM206.7 83.7C205 83.7 203.5 83.9 202.6 85.3C201.6 86.9 202.5 88.2 203.6 89.3C204.8 90.5 206.1 91.5 207.2 92.8C209.2 95.2 211 94.9 212.9 92.7C213.7 91.7 214.9 90.9 215.9 90C217.1 88.9 217.9 87.7 217.1 86.1C216.3 84.6 214.9 83.9 213.4 84.1C211 84.4 208.7 85 206.7 83.7Z" fill="#F8AD8C"/>
<path d="M188 70.5999C185.4 70.7999 183.7 72.8999 181.5 73.7999C181.2 71.2999 181.6 68.7999 182.2 66.3999C186 51.2999 198 43.5999 217.4 43.6999C232.4 43.7999 244 52.6999 247.4 66.4999C243.3 65.3999 240 66.1999 237.4 69.8999C234.8 73.6999 232.6 69.8999 230.2 69.2999C232.5 65.2999 230.6 63.8999 226.8 63.5999C226 63.4999 225.2 63.3999 224.4 63.2999C223.2 60.9999 221.6 58.6999 220.9 56.2999C219.8 52.6999 218.4 51.8999 215.1 54.0999C209.6 57.6999 203.9 60.9999 198.3 64.3999C194.5 65.7999 191 67.7999 188 70.5999Z" fill="#AAE5F2"/>
<path d="M469.2 203.9C471.5 198.1 474.3 192.4 477.8 187.3C482.5 180.4 489.4 177.9 497.6 178.2C499.1 178.3 500.1 178.7 500.6 180.1C503.4 187.2 508.2 193.2 512.8 199.2C501.5 204.2 489.6 203.8 477.6 203.7C474.8 203.7 472 203.8 469.2 203.9Z" fill="#F9AFFD"/>
<path d="M383.3 56.7999C387.4 56.6999 391 54.8999 394.6 53.3999C402.4 50.0999 410.2 46.7999 418 43.5999C419.2 43.0999 420.4 42.2999 421.6 43.5999C422.5 44.5999 422.3 45.6999 421.7 46.7999C415.9 57.1999 410.4 67.7999 404.3 78.0999C401 83.7999 396.4 84.4999 392.3 79.4999C387.8 73.9999 382.5 75.1999 377 75.3999C378.3 68.8999 381.5 63.0999 383.3 56.7999ZM396.8 65.1999C399.1 64.2999 401.5 63.5999 403.7 62.5999C406 61.5999 407.6 59.7999 406.5 57.0999C405.4 54.4999 403.3 53.3999 400.5 54.3999C398.3 55.1999 396.2 56.0999 394.1 56.8999C390.5 57.7999 385.7 58.2999 387.3 63.5999C388.9 68.6999 393 66.1999 396.4 65.1999C396.5 65.2999 396.6 65.1999 396.8 65.1999Z" fill="#F8AD8C"/>
<path d="M668.3 470.2C668.4 469.3 668.4 468.5 668.5 467.6C668.7 465.7 669 463.9 669.2 462C670.6 461.3 670.8 460.1 670.6 458.7C683.7 458.6 696.7 458.6 709.8 458.5C711.2 458.5 712.3 458.9 713.5 459.5C716 461.4 717.1 463.8 715.9 466.9C714.7 470.2 712 471.2 708.8 471.2C695.7 471.2 682.6 471.3 669.5 471.3C669.1 471 668.7 470.6 668.3 470.2Z" fill="#AAE5F2"/>
<path d="M255.3 431.8C256.7 435.6 258.2 439.5 259.6 443.3C260.2 444.9 260.6 446.5 259.1 447.8C257.3 449.4 256.1 447.7 254.7 447.1C251.5 445.7 249.5 441.9 245.3 442.4C245.7 439.8 243.3 439.2 241.9 438.1C236.5 433.7 231 429.4 226.9 423.7C225.5 421.7 224.2 419.5 223.3 417.2C221.5 412.8 222.8 409 226.5 406.2C230 403.5 233.8 404.2 237.1 406.6C242.6 410.6 246.3 416.1 249.6 421.9C251.6 425.2 253.4 428.5 255.3 431.8ZM253.1 438C249.7 431.4 246.7 424.7 242.3 418.6C240 415.4 237.7 412.1 234.1 410C232.6 409.1 231.1 408.4 229.5 409.5C227.8 410.6 227.1 412.2 227.2 414.2C227.3 415.9 228 417.4 228.9 418.8C234.1 426.8 241.4 432.5 249 437.9C250.1 438.6 251.3 439 253.1 438Z" fill="#9D430D"/>
<path d="M520 40.0999C510 45.5999 507.4 55.7 504.2 65.4C503.2 68.5 506.1 69.7 507 71.9C507.7 73.6 509.8 75.5999 507.2 77C504.8 78.4 504.3 75.7 503.4 74.3C500 69.2 495.2 65.6999 489.7 63.0999C488.4 62.5 486.5 62.4 486.6 60.4C486.7 58.7 487.9 58.4 489.4 58.2999C491.3 58.0999 491.3 56.2 491.8 54.9C493.7 49.8 495.3 44.5 498 39.7C500.9 34.5 505 30.9 511.2 30.2C512.4 30.4 513.5 30.7999 514.1 32.0999C513.6 33.3999 512.9 34.3999 511.3 34.5999C505.9 35.3999 503.1 39.2999 501 43.7999C499.2 47.5 498.1 51.5999 496.3 55.2999C494.1 59.5999 495.4 62.1 500 63.7C502.6 56.6 505.2 49.3999 509.7 43.0999C512 39.8999 514.4 37 519 37.5C519.6 38.1 519.9 39.0999 520 40.0999Z" fill="#5A5C0B"/>
<path d="M47.4 11.8999C49.2 12.0999 49.6 13.1999 49.9 14.5999C50.4 17.1999 50.7 19.8999 51.5 22.3999C52.8 26.0999 54.5 29.5999 58.9 30.3999C60 30.5999 60.8 31.1999 60.9 32.2999C61 33.3999 60.6 34.2999 59.4 34.5999C52.4 36.3999 51.6 42.3999 50.4 48.0999C50 49.9999 51 53.1999 47.8 53.1999C45.1 53.1999 45.8 50.2999 45.4 48.4999C44.1 42.6999 43.2 36.5999 35.9 34.5999C33.8 33.9999 33.9 31.4999 35.9 30.8999C43.5 28.5999 44.1 22.0999 45.2 15.8999C45.6 14.2999 45.3 12.4999 47.4 11.8999ZM48 39.1999C52.3 31.6999 52.3 31.6999 47.6 26.6999C42.4 30.7999 43.4 34.9999 48 39.1999Z" fill="#AAE5F2"/>
<path d="M518.8 37.5C514.3 37 511.8 40 509.5 43.1C505 49.3 502.4 56.5 499.8 63.7C495.2 62.1 494 59.6 496.1 55.3C498 51.6 499.1 47.5 500.8 43.8C502.9 39.3 505.7 35.4 511.1 34.6C512.6 34.4 513.4 33.4 513.9 32.1C516 33.5 517.6 35.3 518.8 37.5Z" fill="#F8AD8C"/>
<path d="M424.9 70.4999C425.6 61.7999 431.9 57.5999 438.7 53.7999C440.7 57.2999 441.8 60.8999 438.8 64.3999C435.1 68.5999 430.9 71.5999 424.9 70.4999Z" fill="#F8AD8C"/>
<path d="M237.8 84.6C236.7 79.8 238.1 76.1 242.5 73.7C243.7 73.1 245.3 72.7 246.1 74C247 75.4 246 76.4 244.6 77C243 77.7 241.8 78.7 241.5 80.5C240.8 84 242.8 86.2 245.9 86.1C249.8 86 249.5 82.7 249.2 79.9C250 78.4 250.7 76.8 251.5 75.3C256.8 80.4 255.7 85.6 248.4 90.1C243.6 90.6 240 88.9 237.8 84.6Z" fill="#1202FD"/>
<path d="M132.6 449.8C108.4 449.8 84.1 449.8 59.9 449.7C57.9 449.7 55.9 450.1 54.1 448.9L53.9 448.5C72.9 448.4 92 448.3 111 448.2C118.4 448.2 125.9 448.3 133.3 448.4C133.1 448.8 132.9 449.3 132.6 449.8Z" fill="#011B32"/>
<path d="M477.7 62.5C478.3 71.2 476.5 79.3 470.9 86.2C469.9 87.4 468.9 89.3 467 88C465 86.6 466.3 85.1 467.3 83.8C472.4 77.4 474.3 70.1 473.1 61.9C472.7 59.3 472.9 57 476.6 57.9C477 59.5 477.3 61 477.7 62.5Z" fill="#5A5C0B"/>
<path d="M78.8 105C75.3 104.7 73.1 102.9 73 99.4C72.9 96 75 93.7 78.5 93.6C82 93.5 84.2 95.6 84.3 99.1C84.5 102.6 82.2 104.4 78.8 105Z" fill="#F8FBE1"/>
<path d="M103.8 -4.27319e-05C105.7 1.79996 108.4 3.19996 109.9 5.89996C110.3 6.59996 104.3 12.7 103.7 12.3C101.3 10.7 98.8 8.99996 97.3 6.39996C96.7 5.59996 102.5 -0.100043 103.8 -4.27319e-05Z" fill="#1202FD"/>
<path d="M590.4 471.2C588.5 471.1 587.8 469.5 587.6 468.2C586.9 463.8 584.1 463.5 580.5 463.7C574.6 463.9 568.6 463.9 562.7 463.7C558.9 463.6 556.8 464.4 558.6 468.7C559.1 469.8 558.8 471 557.7 471.8L557.3 471.7H556.9C557 471.5 557 471.3 556.8 471.1C556.6 468.1 556.3 465.1 556.1 462.2C566.7 462 577.3 461.7 587.8 462.4C588.1 465.5 589.2 468.3 590.4 471.2Z" fill="#041B32"/>
<path d="M517.6 471C518.6 471.1 519.5 471.1 520.5 471.2C519.5 471.5 518.5 471.7 517.6 471Z" fill="#A359DB"/>
<path d="M668.3 470.2C668.7 470.6 669.1 471 669.6 471.3C669.1 471.3 668.7 471.4 668.2 471.4C668.2 471.1 668.2 470.7 668.3 470.2Z" fill="#A359DB"/>
<path d="M556.8 471.1C557 471.3 557 471.5 556.9 471.7C556.6 471.7 556.3 471.6 556 471.4C556.2 471.1 556.4 471 556.8 471.1Z" fill="#A359DB"/>
<path d="M418.7 243.1C417.5 247.4 416.2 251.7 415 256C409.3 269.2 403.6 282.4 397.9 295.6C390.8 312.3 383.8 329.1 376.7 345.9C376.3 346.8 376.1 347.8 375.9 348.7C367.1 348.8 359.3 351.9 352.9 357.9C342.2 367.8 336.4 380.1 336 394.7C335.7 402.8 338 410.1 343.7 416C344.3 417.5 344.9 419.1 345.4 420.6C344.3 423.1 343.1 425.6 342 428.1C321.8 428 301.5 427.9 281.3 427.8C284.5 423.2 285.2 418.5 281.9 413.6C289.1 401.1 296.2 388.5 303.5 376.1C305.1 373.5 304.5 372.1 302.5 370.3C298.4 366.6 294.8 362.5 292 357.7C286.2 347.8 286.2 337.4 289.7 326.9C292.5 318.6 295.8 310.4 298.9 302.2C304.8 288.3 310.8 274.3 316.7 260.4C324.3 245 331.4 229.4 338.1 213.6C340.1 210.5 340.8 206.7 343.4 203.9C367.6 203.7 391.8 203.4 415.9 204C421.2 216.6 420.8 229.8 418.7 243.1ZM367.4 233.8C367.3 227.2 366.7 222.6 365.3 218.1C364.8 216.4 364.6 213.9 362.2 214.5C359.2 215.2 360.6 217.6 361.1 219.4C363.8 228.6 363.7 237.6 359.6 246.6C348.8 270.3 338.3 294.2 327.6 318C326.2 321.1 326.7 322.8 329.6 324.5C341.7 331.7 353.7 339.2 365.8 346.5C367.4 347.5 369.5 349.4 370.9 346.8C372.4 344.2 369.5 343.6 367.9 342.6C356.9 335.8 345.8 329 334.7 322.4C332.3 321 331.5 319.8 332.9 316.9C343.2 294.2 353.3 271.4 363.5 248.7C366 243.4 367.5 237.9 367.4 233.8Z" fill="#5A5C0B"/>
<path d="M251.1 175.2C261.5 172.5 270.2 176.1 278.2 182.5C284.5 187.5 287.1 193.8 285.2 201.8C280.8 212.4 275.7 222.8 272.9 234.1C270.7 235.5 270.6 239.2 267.2 239.3C267 231.3 265 223.6 263.8 215.8C263.6 214.2 263.6 211.5 261 212C258.5 212.4 259.2 214.8 259.5 216.5C260.7 224 261.9 231.5 263.1 239C261.1 238.3 259.2 237.5 257.2 236.8C256.7 227.7 254.1 218.8 254.1 209.6C254.1 208.3 253.3 207.3 252 207.3C250.4 207.3 249.7 208.5 249.7 210C249.7 212 249.8 214 250.1 216C250.9 222.4 251.8 228.8 252.6 235.2C248.8 233.8 247 230.7 245.5 227.2C248.8 226.5 247.9 224.4 247.4 222.2C245.5 214.9 244.8 207.5 245.8 200C246 198.4 246.3 196.9 244.4 196.4C242.4 196 241.9 197.5 241.5 199C240.3 202.9 241 206.9 240.8 210.9C240.1 210.6 239.5 210.3 238.8 210C238.4 209.7 238 209.4 237.6 209L237.7 209.1C232.7 203.3 232.4 198.5 236.6 192.2C237.8 190.4 239.2 188.8 240.5 187.1C243.4 183.8 246.4 180.4 249.3 177.1C250.2 176.5 251.4 176.4 251.5 175L251.1 175.2Z" fill="#F8AD8C"/>
<path d="M240.5 211C240.8 207 240.1 203 241.2 199.1C241.6 197.6 242.2 196 244.1 196.5C246.1 196.9 245.7 198.5 245.5 200.1C244.5 207.6 245.2 215 247.1 222.3C247.7 224.5 248.6 226.6 245.2 227.3C241.7 224.3 242 219.9 241.2 215.9C241 214.3 241.4 212.5 240.5 211Z" fill="#EF42F6"/>
<path d="M252.4 235.2C251.5 228.8 250.7 222.4 249.9 216C249.7 214 249.5 212 249.5 210C249.5 208.5 250.2 207.3 251.8 207.3C253.2 207.3 253.9 208.3 253.9 209.6C253.9 218.8 256.6 227.6 257 236.8C255.1 237.6 253.6 236.8 252.4 235.2Z" fill="#EF42F6"/>
<path d="M267.1 239.3C266.5 239.6 265.9 239.9 265.2 240.3C264.5 239.9 263.7 239.5 263 239C261.8 231.5 260.5 224 259.4 216.5C259.1 214.8 258.4 212.4 260.9 212C263.5 211.6 263.5 214.2 263.7 215.8C264.9 223.6 266.9 231.3 267.1 239.3Z" fill="#EF42F6"/>
<path d="M161.7 244.3C156.1 239.4 153.6 232.4 149.7 226.4C149 225.4 149.1 224 150.4 223.4C152.2 222.5 153.1 223.8 154 225.1C157.6 230.4 160.3 236.3 164.5 241.3C164.3 243 163.3 244 161.7 244.3Z" fill="#EF42F6"/>
<path d="M237.3 209.2C237.7 209.5 238.1 209.8 238.5 210.2C238.1 209.8 237.7 209.5 237.3 209.2Z" fill="#5A2A80"/>
<path d="M167.4 234.1C167.2 234.6 167 235.1 166.9 235.6C166.7 235.4 166.5 235.1 166.2 234.9C166.5 234.6 166.9 234.4 167.4 234.1C167.4 234.1 167.3 234.1 167.4 234.1Z" fill="#F8AD8C"/>
<path d="M316.7 260.3C309.9 256.3 303.1 252.3 296.2 248.3C295.8 247.9 295.5 247.5 295.1 247.1V247.2C290.1 230.5 294 218.6 306.6 210C311.5 206.7 317 207.4 322.3 206.3C327.6 208.6 332.8 211 338.1 213.3C331.3 229.2 324.3 244.9 316.7 260.3Z" fill="#F8AD8C"/>
<path d="M366.4 118.5C368.5 118.8 369.4 120.5 370.3 122C372.2 125 374.1 126.1 376.5 122.5C377 121.7 377.9 121.1 378.5 120.3C380.7 117.6 383 117.9 384.3 120.8C386.9 126.5 390.4 126.4 395.3 123.8C398.9 121.9 402.9 120.6 406.8 119C408.2 118.5 409.8 117.6 410.7 119.5C411.6 121.3 410.2 122.3 408.8 122.9C402.4 125.6 395.9 128.2 389.5 130.9C385.8 132.4 385 129 383.5 127.1C382 125.2 381.2 124 378.8 126.5C373.1 132.7 372.9 132.6 367.7 125.7C366.6 124.2 365.4 122.8 364.6 121.2C363.9 119.7 364.9 118.9 366.4 118.5Z" fill="#A359DB"/>
<path d="M469.4 132C469.4 132.4 469.4 132.7 469.4 133.1C469.2 132.9 469 132.8 468.7 132.6C469 132.4 469.2 132.2 469.4 132Z" fill="#5A2A80"/>
<path d="M645.9 363.1C648.8 359.2 649.5 354.7 650 350C650.2 348.5 650.2 346.7 652.2 346.7C654.2 346.7 654.4 348.4 654.4 349.9C654.6 353.4 655.3 356.8 656.7 360C658.6 364.3 660.9 368.2 666.2 369.2C669.1 369.7 669 371.5 667.2 373.4C662.5 373.2 660 376.3 658 379.8C655.7 383.9 654.6 388.4 654.4 393.1C654.3 394.5 653.9 395.9 652.2 395.9C650.5 396 650.2 394.6 650 393.2C649.6 390.7 649.5 388.2 648.8 385.9C647 380.1 644.9 374.5 637.8 373.2C636.8 373 635.8 372.3 635.9 371.2C635.9 369.9 637 369.2 638.2 369C642 368.7 644.5 366.5 645.9 363.1Z" fill="#FEFEFE"/>
<path d="M587.8 462.3C577.2 461.6 566.6 461.9 556.1 462.1C554.6 461.5 554.1 460.3 554.3 458.7C554.5 458.4 554.8 458.1 555 457.8C592.5 457.7 630 457.7 667.5 457.6C668.7 457.6 669.8 457.8 670.7 458.6C670.9 460 670.6 461.2 669.3 461.9C658.7 461.9 648.1 461.4 637.6 462.2C636.1 461.7 634.6 461.7 633.1 462.2C619.5 461.6 605.9 461.6 592.3 462.2C590.7 461.8 589.3 461.9 587.8 462.3Z" fill="#1202FD"/>
<path d="M666.7 401C669.1 400.9 669.9 402 670.6 402.8C679.1 411.7 685.2 422 689.2 433.6C689.7 435.1 690.6 437 688.3 437.7C686 438.4 685.5 436.5 685 434.9C681.3 423.7 675.3 413.9 667.2 405.4C666.4 404.6 665.4 403.8 666 402.4C666.3 401.8 666.7 401 666.7 401Z" fill="#EAECEE"/>
<path d="M614.6 382.4C609.1 382.4 603.7 382.7 598.3 383.8C596.6 384.1 594.8 384.4 594.4 382C594.1 379.9 595.8 379.7 597.3 379.5C606 377.8 614.7 377.6 623.5 378.8C625 379 626.3 379.6 626.2 381.1C626.1 383 624.6 383.3 622.9 383.1C620.2 382.9 617.4 382.7 614.6 382.4Z" fill="#EAECEE"/>
<path d="M554.9 457.9C554.7 458.2 554.4 458.5 554.2 458.8C543.9 458.7 533.7 458.7 523.4 458.6C519.4 458.6 515.4 458.5 511.7 456.8C511.8 456.4 511.8 456.1 511.9 455.7C524.3 457.8 536.9 456.2 549.3 456.7C551.2 456.8 553.4 456.1 554.9 457.9Z" fill="#041B32"/>
<path d="M345.4 420.7C344.8 419.2 344.2 417.6 343.7 416.1C344.3 409.6 346.5 406.3 351.2 405.1C355.8 403.9 359.5 405.8 363.2 411.1C368.5 418.7 373.8 426.4 379.2 434C380.6 435.9 382.4 437.6 385.1 436.4C387.8 435.2 388.5 432.9 388 430.2C387.7 428.6 387.3 427 386.9 425.3C383.2 410.7 379.1 396.1 375.8 381.3C373.5 370.7 374 360.4 383 352.4C387.6 351.6 390.8 355 394.7 356.3C397 357.1 399.1 358.3 401.3 359.4C393.3 366 393.2 375 394.6 384C397.9 404.2 405.7 422.8 414.3 441.1C419.6 452.4 423.8 464.1 426.5 476.3C427.4 480.2 427.8 484.2 426.8 488.1C424 499.6 412 503.7 402.7 496.1C399.4 493.4 396.7 489.9 393.8 486.8C384.3 476.4 374 476.6 365.2 487.3C363.6 476.8 363.6 466 361.2 455.6C361.6 450.2 362.1 444.7 362.4 439.3C362.5 436.9 364.8 433.4 361.2 432.4C358.2 431.6 358.2 435.7 356.6 437.4C353.1 431.6 350.1 425.5 345.4 420.7Z" fill="#1202FD"/>
<path d="M382.9 352.2C373.9 360.2 373.4 370.6 375.7 381.1C379 395.8 383.1 410.4 386.8 425.1C387.2 426.7 387.6 428.3 387.9 430C388.4 432.7 387.7 435 385 436.2C382.3 437.4 380.5 435.8 379.1 433.8C373.7 426.2 368.4 418.6 363.1 410.9C359.4 405.6 355.7 403.8 351.1 404.9C346.4 406.1 344.2 409.5 343.6 415.9C337.9 409.9 335.7 402.7 335.9 394.6C336.4 379.9 342.1 367.7 352.8 357.8C359.2 351.9 366.9 348.7 375.8 348.6C378.2 349.9 380.6 351.1 382.9 352.2Z" fill="#F9AFFD"/>
<path d="M442.4 347.8C439.9 347.2 439.9 345.9 440.7 343.7C444.1 334.7 447.4 325.7 450.7 316.7C452 313.1 453.3 309.5 454.7 306C455.2 304.6 455.9 303 457.8 303.6C460.2 304.3 459.4 306.2 458.8 307.7C454.3 320 449.7 332.2 445.2 344.5C444.6 346 444.1 347.3 442.4 347.8Z" fill="#EAECEE"/>
<path d="M462.9 293.3C460.8 293.1 459.8 292 460.4 290.3C461.8 286.2 463.4 282.2 464.9 278.2C465.4 277 466.4 276.4 467.7 276.8C468.8 277.2 469.3 278.2 469 279.2C467.5 283.6 465.8 287.9 464.1 292.2C464 292.7 463.3 293 462.9 293.3Z" fill="#EAECEE"/>
<path d="M240.2 187.3C239.6 183.2 240.7 179.2 241.1 175.2C241.6 173.8 242.1 172.5 242.6 171.1C245.5 171.8 248.3 172.5 251.2 173.2C251.1 173.9 250.3 174.5 251 175.2H251.1C249.3 174.8 249.4 176.4 248.9 177.3C246.1 180.6 243.1 184 240.2 187.3Z" fill="#F9AFFD"/>
<path d="M73.2999 468.5C72.4999 471.5 71.1999 474.3 69.1999 476.8C65.2999 481.9 60.0999 485.5 54.4999 488.5C47.7999 492 41.7999 496.3 37.8999 503C37.0999 504.3 36.1999 505.8 34.3999 504.7C32.3999 503.5 33.3999 501.9 34.2999 500.4C38.1999 493.9 43.6999 489.3 50.1999 485.8C58.0999 481.4 65.9999 477.1 68.8999 467.7C69.1999 466.6 70.1999 465.7 71.5999 466.2C72.5999 466.6 73.2999 467.3 73.2999 468.5Z" fill="#EAECEE"/>
<path d="M281.3 427.8C301.5 427.9 321.8 428 342 428.1C340.1 432.7 338.1 437.3 336.2 442C315.5 446.3 294.9 450.5 274.2 454.8C271.6 455.3 269.3 455.6 267.5 453.1C265.8 450.7 267.1 448.7 268.4 446.7C272.7 440.4 277 434.1 281.3 427.8Z" fill="#F9AFFD"/>
<path d="M336.1 442C338.1 437.4 340 432.8 341.9 428.1C343 425.6 344.2 423.1 345.3 420.6C350.1 425.4 353 431.5 356.6 437.1C354.5 440.8 352.5 444.5 350.4 448.2C344.9 448.1 339.5 448 334 448C334.8 446.1 335.5 444.1 336.1 442Z" fill="#A359DB"/>
<path d="M378.7 88.4999C375.7 88.5999 373.9 87.9999 372.5 86.2999C371.5 85.0999 370.5 83.8999 371.7 82.3999C373 80.7999 374.3 81.3999 375.4 82.6999C376.6 84.0999 378 84.5999 379.8 83.6999C381.2 82.9999 383 81.8999 383.9 84.1999C384.8 86.4999 382.7 87.2999 381.1 87.9999C380.1 88.4999 378.9 88.4999 378.7 88.4999Z" fill="#97382F"/>
<path d="M632.9 462.3C634.4 461.9 635.9 461.8 637.4 462.3C636.7 464.9 635.9 467.6 635.2 470.2L635.1 470.3C634.8 470.9 634.5 471.5 634.1 472.1L634 472.2C633.8 472.6 633.5 473 633.3 473.4V473.3C632.9 473.8 632.5 474.3 632 474.8L631.8 475.1C631.5 475.5 631.1 475.9 630.8 476.4C617.6 487.6 604.3 486.9 592.2 474.4C591.7 473.7 591.2 473 590.8 472.4L590.9 472.5C590.7 472.1 590.5 471.7 590.3 471.3V471.2C589.1 468.3 587.9 465.5 587.7 462.3C589.2 461.9 590.6 461.8 592.1 462.3C592.3 462.8 592.5 463.2 592.7 463.7C594.7 473.2 602.4 479.6 612.1 479.8C622.1 480 629.8 474 632.5 463.7C632.7 463.2 632.8 462.8 632.9 462.3Z" fill="#EAECEE"/>
<path d="M635.2 470.2C635.9 467.6 636.7 464.9 637.4 462.3C648 461.5 658.5 462 669.1 462C668.9 463.9 668.6 465.7 668.4 467.6C667.2 462.5 663 463.7 659.5 463.6C654.4 463.5 649.3 463.7 644.2 463.5C640.9 463.4 638.3 463.7 637.7 467.7C637.6 469.2 636.9 470.3 635.2 470.2Z" fill="#021B32"/>
<path d="M634.2 472.1C634.5 471.5 634.8 470.9 635.2 470.3C635.5 471.3 635.5 472 634.2 472.1Z" fill="#021B32"/>
<path d="M591 472.4C591.5 473.1 592 473.8 592.4 474.4C591.2 474.3 590.9 473.5 591 472.4Z" fill="#041B32"/>
<path d="M632.2 474.9C632.6 474.4 633 473.9 633.5 473.4C633.5 474.3 633.4 475.1 632.2 474.9Z" fill="#021B32"/>
<path d="M590.5 471.3C590.7 471.7 590.9 472.1 591.1 472.5C590.5 472.3 590.3 471.9 590.5 471.3Z" fill="#041B32"/>
<path d="M633.4 473.5C633.6 473.1 633.9 472.7 634.1 472.3C634.2 472.9 634 473.3 633.4 473.5Z" fill="#021B32"/>
<path d="M631 476.4C631.3 476 631.7 475.6 632 475.1C632.1 475.9 631.7 476.3 631 476.4Z" fill="#021B32"/>
<path d="M536.5 183.2C536.7 184.6 536.2 185.8 534.6 186.1C533.2 186.4 532.5 185.2 532.2 184.1C530.6 177.8 528 172 524.6 166.5C523.7 165.1 524 164 525.3 163.2C526.6 162.4 527.5 163.2 528.2 164.2C532.1 170 534.8 176.3 536.5 183.2Z" fill="#EAECEE"/>
<path d="M512.2 147.5C514.1 147.6 523.2 156.1 523.4 157.8C523.5 158.7 523 159.4 522.4 159.9C521.7 160.5 520.8 160.5 520.1 159.9C516.8 156.9 513.5 153.9 510.2 150.8C509.6 150.2 509.6 149.3 510.1 148.5C510.6 147.9 511.3 147.4 512.2 147.5Z" fill="#EAECEE"/>
<path d="M167.3 234.1C166.9 234.4 166.5 234.6 166.1 234.9C164.6 235.3 163.6 234.6 162.7 233.4C159.1 228.6 156.5 223.2 153.5 218C152.7 216.7 152.6 215.5 154.1 214.6C155.4 213.8 156.6 214.5 157.1 215.5C160.2 221.9 165.2 227.2 167.3 234.1Z" fill="#EF42F6"/>
<path d="M134.5 222C135.7 221.6 136.9 221.7 138.1 222.3C138.7 224 137.8 225.1 136.7 226.2C133.2 229.7 129.6 233.1 125.6 236C124.3 236.9 122.6 238.2 121.2 236.5C119.6 234.6 121.5 233.5 122.8 232.6C127.1 229.5 130.8 225.8 134.5 222Z" fill="#EF42F6"/>
<path d="M350.5 448.4C352.6 444.7 354.6 441 356.7 437.3C358.2 435.6 358.2 431.5 361.2 432.3C364.8 433.3 362.5 436.8 362.4 439.2C362.2 444.6 361.6 450.1 361.2 455.5C360.2 461.2 359.6 467 357 472.3C355.5 475.2 353.7 478.1 349.9 477.3C346 476.5 344.3 473.5 344.1 469.6C343.8 464.1 345.9 459.2 348 454.3C348.8 452.3 349.7 450.3 350.5 448.4ZM356.4 449.1C352.3 455 349.2 461.2 348.3 468.3C348.1 469.9 348.4 471.9 350.2 472.5C352.1 473.1 352.6 471.1 353.1 469.9C355.8 463.2 356.9 456.3 356.4 449.1Z" fill="#9D430D"/>
<path d="M224.4 63.2999C225.2 63.3999 226 63.4999 226.8 63.5999C230.6 63.8999 232.5 65.2999 230.2 69.2999C227.8 72.2999 225.3 75.1999 221.3 76.2999C218.5 72.6999 218 68.6999 219.8 64.4999C221.4 64.0999 222.9 63.6999 224.4 63.2999Z" fill="#041B32"/>
<path d="M206.7 83.7C208.8 84.9 211 84.4 213.3 84C214.8 83.8 216.3 84.5 217 86C217.8 87.6 217 88.9 215.8 89.9C214.8 90.8 213.7 91.6 212.8 92.6C210.9 94.8 209.2 95.2 207.1 92.7C206 91.4 204.7 90.4 203.5 89.2C202.4 88.1 201.5 86.8 202.5 85.2C203.4 84 205 83.7 206.7 83.7Z" fill="#EF42F6"/>
<path d="M219.9 64.6C218.1 68.8 218.6 72.8 221.4 76.4C217.4 78 213.2 78.5 209.8 75.6C208.2 74.3 212.7 68 216.8 65.8C217.7 65.2 218.9 64.9 219.9 64.6Z" fill="#EAECEE"/>
<path d="M199.1 65.3999C199.5 65.6999 200 65.8999 200.3 66.2999C202.6 69.0999 206.1 72.9999 203.9 75.6999C201.5 78.5999 196.6 77.1999 193.2 74.6999C193.6 70.5999 195.9 67.6999 199.1 65.3999Z" fill="#041B32"/>
<path d="M199.1 65.3999C195.8 67.6999 193.6 70.5999 193.1 74.6999C190.8 74.1999 189.1 72.6999 188 70.5999C191 67.7999 194.5 65.7999 198.3 64.3999C198.6 64.6999 198.8 65.0999 199.1 65.3999Z" fill="#EAECEE"/>
<path d="M249.1 80C249.4 82.8 249.7 86.1 245.8 86.2C242.7 86.3 240.8 84.1 241.4 80.6C244.2 82.1 246.6 80 249.1 80Z" fill="#AAE5F2"/>
<path d="M394 57C396.1 56.1 398.2 55.2 400.4 54.5C403.2 53.5 405.3 54.6 406.4 57.2C407.5 59.9 405.9 61.6 403.6 62.7C401.4 63.7 399 64.4 396.7 65.3C396.8 62.2 395.8 59.5 394 57Z" fill="#FEFEFE"/>
<path d="M394 57C395.7 59.5 396.7 62.2 396.8 65.2C396.6 65.2 396.5 65.3 396.3 65.3C393 66.3 388.8 68.8 387.2 63.7C385.6 58.5 390.4 57.9 394 57Z" fill="#041B32"/>
<path d="M253.1 438C251.4 439 250.1 438.7 249 437.9C241.3 432.5 234.1 426.8 228.9 418.8C228 417.4 227.3 415.9 227.2 414.2C227.1 412.2 227.8 410.6 229.5 409.5C231.2 408.5 232.7 409.1 234.1 410C237.6 412.1 239.9 415.4 242.3 418.6C246.6 424.6 249.7 431.4 253.1 438Z" fill="#5A2A80"/>
<path d="M48 39.2C43.4 34.9 42.4 30.8 47.6 26.7C52.3 31.7 52.3 31.7 48 39.2Z" fill="#5A2A80"/>
<path d="M367.4 233.8C367.5 237.8 365.9 243.3 363.5 248.7C353.3 271.4 343.2 294.2 332.9 316.9C331.6 319.8 332.3 320.9 334.7 322.4C345.8 329 356.9 335.8 367.9 342.6C369.4 343.6 372.3 344.2 370.9 346.8C369.5 349.4 367.4 347.4 365.8 346.5C353.7 339.2 341.7 331.7 329.6 324.5C326.7 322.8 326.2 321.1 327.6 318C338.3 294.2 348.8 270.3 359.6 246.6C363.7 237.6 363.8 228.6 361.1 219.4C360.6 217.6 359.2 215.2 362.2 214.5C364.7 213.9 364.8 216.4 365.3 218.1C366.7 222.6 367.4 227.2 367.4 233.8Z" fill="#A359DB"/>
<path d="M249 177.3C249.5 176.4 249.5 174.8 251.2 175.2C251.1 176.6 249.9 176.7 249 177.3Z" fill="#97382F"/>
<path d="M295.1 247.2C295.5 247.6 295.8 248 296.2 248.4C295.6 248.2 295 248 295.1 247.2Z" fill="#F9AFFD"/>
<path d="M592.7 463.7C592.5 463.2 592.3 462.8 592.1 462.3C605.7 461.7 619.3 461.7 632.9 462.3C632.8 462.8 632.6 463.2 632.5 463.7C619.3 463.7 606 463.7 592.7 463.7Z" fill="#041B32"/>
<path d="M592.7 463.7C606 463.7 619.2 463.7 632.5 463.7C629.8 474 622.1 480.1 612.1 479.8C602.5 479.6 594.8 473.2 592.7 463.7Z" fill="#021B32"/>
<path d="M356.4 449.1C356.9 456.4 355.8 463.2 353.2 469.8C352.7 471.1 352.2 473 350.3 472.4C348.5 471.8 348.2 469.9 348.4 468.2C349.2 461.2 352.3 454.9 356.4 449.1Z" fill="#041B32"/>
</g>
<defs>
<clipPath id="clip0">
<rect width="750.5" height="515.8" fill="white"/>
</clipPath>
</defs>
</svg>
