<svg width="572" height="444" viewBox="0 0 572 444" fill="none" xmlns="http://www.w3.org/2000/svg">
<path d="M140.2 368.9C138.5 359.3 134.9 350.1 133.7 340.3C131.6 324 135.2 309.1 146.9 297.6C159.3 285.4 166.7 270.8 172.2 254.8C175.2 246.2 178.6 237.8 183 229.7C194.7 208 217.4 206.9 233 215.7C230.2 218.7 227.5 221.7 224.7 224.7C219.6 228 215.7 232.5 212.3 237.3C211.2 238.8 210.5 240.7 211.9 242.3C213.5 244.2 215.2 242.8 216.7 241.9C217.5 241.4 218.5 240.9 219.1 240.1C221.6 236.8 224.9 236.5 228.7 236.4C233.5 236.3 238.5 237.7 243.2 235.5C244.5 234.8 245.8 234.2 247.1 233.5C254.6 249.5 257.8 266.8 262.9 283.6C266.5 295.5 269.6 307.5 273 319.4C257.8 313.7 248.8 320.9 244 332.8C240.8 340.8 236.7 348.4 232.1 355.8C231.4 354 230.7 352.1 230.1 350.3C224 329.7 218 309.1 211.9 288.5C211.9 288.2 212 287.8 211.9 287.5C207.4 272.1 203 256.6 198.5 241.2C198.2 240.1 197.8 238.6 196.3 239.1C194.5 239.6 195 241.2 195.4 242.4C200 257.8 204.6 273.2 209.2 288.6C201.9 298.5 194.9 308.6 188.3 319C184.3 325.3 183.1 331.9 185.3 339C190.3 355.5 195.3 372 200.4 388.6C200 389.3 199.5 390 199.1 390.7C198.1 389 197.1 387.3 196.2 385.6C193.9 381.6 191.6 377.6 188.1 374.4C185.9 372.5 183.5 371.4 180.9 373.1C178 375 177.6 378 178.7 381C179.6 383.7 181.4 386 183.4 387.9C186.7 390.9 190.1 393.8 193.5 396.7C192.4 397.6 191.2 398.6 190.1 399.5C187.1 399.4 184.2 399.3 181.2 399.2C184.3 392.6 183 389.8 176.1 388C172.6 387.1 168.8 387.2 165.5 385.5C169.2 381.1 173.6 377.2 176.2 371.9C177.8 368.5 179.1 364.7 175.2 362.1C171.5 359.6 168.3 361.5 165.6 364.5C163.5 366.7 162.2 369.4 161 372.1C159.7 375.3 158.5 378.6 157.2 381.8C150.7 378.3 145.4 373.7 140.2 368.9Z" fill="#F9FCE0"/>
<path d="M232 355.7C236.5 348.3 240.7 340.7 243.9 332.7C248.6 320.8 257.7 313.6 272.9 319.3C284.6 330.2 293.8 343.3 304.2 355.4C313.6 366.4 322.1 378 332.2 388.4C328.5 393.4 323.1 396.6 318.7 400.9C310.1 409.4 308.4 420.8 314.2 431.5C317.5 437.6 323.2 440.5 329.2 443.2C298.9 443.2 268.6 443.2 238.3 443.2C241.4 441.3 244.8 439.5 245.6 435.4C249.7 424.2 254 413.1 256.6 401.4C267.2 401.3 277.8 401.3 288.4 401.2C289.7 401.2 292 401.8 291.9 399.6C291.8 397.6 289.6 398.2 288.2 398.2C277.9 398.2 267.6 398.2 257.4 398.2C258.7 395.2 259.9 392.1 261.2 389.1C262.3 389.1 263.2 388.8 263.7 387.8C266.6 381.7 271.3 377 275.6 372C288.1 357.5 283.3 339.2 276 329.2C275 327.9 273.9 325.4 271.9 327.1C270.1 328.6 272.6 329.9 273.2 331.3C273.6 332 274.2 332.6 274.6 333.4C280.9 344.3 282.7 358.9 273.2 369.5C268.4 374.8 263.7 380.1 260.3 386.5C247.9 382.1 235.5 377.8 223.1 373.4C225.9 367.5 229 361.6 232 355.7Z" fill="#97382F"/>
<path d="M247 233.5C245.7 234.2 244.4 234.8 243.1 235.5C242.9 231 240.4 227.9 236.6 225.8C232.8 223.7 228.7 224.3 224.6 224.7C227.4 221.7 230.1 218.7 232.9 215.7C238.3 210.8 243.6 205.8 248.2 200.1C253.6 200.4 266.8 188.6 266.9 183.3C267 179.8 263.6 177.4 260.4 178.9C258.2 179.9 256.8 181.9 255.7 183.9C253.2 188.4 250.9 192.9 248.5 197.5C246.5 196.2 244.5 194.8 242.5 193.5C242.6 191 240.5 190.2 239 189C234.3 185 229 181.7 225 177C219.9 171.2 217 164.8 220.6 156.9C221.2 155.6 223.3 153.9 220.9 152.8C218.8 151.9 218.3 154.3 217.6 155.7C213.9 163.2 215.9 172.3 223.1 179.9C228.3 185.3 234.7 189.4 240.3 194.3C230.3 207.3 215.3 211.2 201.4 204.4C188.1 197.9 181.4 183.3 184.9 169C185.3 167.4 185.6 165.8 186.9 164.5C187 166.1 186.9 167.8 187.1 169.4C187.2 170.6 187.9 171.7 189.4 171.4C190.6 171.2 190.8 170.2 190.6 169.1C189.6 164.1 191.7 160.9 196.4 159.1C197.4 158.7 198.2 158.1 197.9 156.9C197.5 155.3 196.2 155.6 195.1 155.8C192 156.5 190.1 158.9 188.1 161.1C176.8 155.9 165.2 151.2 154.9 144.1C146.3 138.2 143.5 131.1 145.9 120.8C148.3 110.2 153.5 100.6 157.7 90.7C159.6 86.3 161.9 82.1 164 77.8C164.1 82.9 166.9 86.1 171.6 87.4C175.5 88.5 179.4 87.6 182.9 85.4C181.1 93.8 179.3 102.1 177.5 110.5C176 117.4 177 119.9 183.1 123.7C187.2 126.2 191.3 128.6 195.4 131C195.2 137.4 198.1 141.5 204.3 143.6C212.7 146.6 221 149.9 229.3 153.4C233.9 155.3 238.5 156 243.4 155.2C256.7 162.7 270.2 169.8 283.2 177.8C294.4 184.6 294.2 201.5 283.2 209.6C276.7 214.4 269.6 218.6 262.8 223C257.5 226.6 252.3 230 247 233.5ZM202.1 170.1C201.9 172 202.4 174 203.4 175.7C204 176.7 204.7 177.8 206.1 177.1C207.2 176.5 207.1 175.5 206.6 174.5C204.6 170.2 205.5 166.5 208.8 163.1C209.6 162.3 210.6 161.3 209.3 160.1C208.1 159.1 207.1 159.9 206.3 160.7C203.7 163.3 201.9 166.1 202.1 170.1Z" fill="#A359DB"/>
<path d="M32.7 309.7C27 295.7 21.1 281.8 15.5 267.8C4.89995 241 21.8 211.8 50.3 207.4C52.6 207 54.9 206.7 57.2 206.4H57.5H57.9C81.2 208.2 96.5999 221.2 101.4 243.3C103 250.9 102.6 258.6 99.8 265.8C94 280.5 87.9 295 82 309.6C81 309.6 80 309.4 79 309.6C74.1 310.6 72.2 308.1 71.3 303.7C70.7 300.6 69.5 297.6 68.5 294.5C66.3 298.2 65 301.9 64 305.7C63.3 308.5 61.9 310 58.9 309.8C57.7 309.8 56.6 309.8 55.4 309.8C47.9 309.7 40.3 309.7 32.7 309.7Z" fill="#97382F"/>
<path d="M474.7 392.3C476.1 385.5 477.7 378.7 478.9 371.8C479.6 368.1 481.1 366.4 485.2 366.4C512.3 366.5 539.4 366.4 566.5 366.5C571.5 366.5 572.7 367.9 571.6 373C567.1 394.9 562.4 416.9 558 438.8C557.3 442.3 555.8 443.5 552.4 443.4C541.1 443.2 529.8 443.3 518.5 443.3C481.4 443.3 444.3 443.3 407.2 443.3C405.1 443.3 402.9 443.6 400.9 442.2C398.8 439.1 400.2 437 402.8 435.1C404.6 434.7 406.4 436.2 408.1 434.8C416.1 435.7 424.1 435.2 432.1 435.1C435 435.1 437.9 435 440.9 435C442.2 435 443.4 435 444.7 435C445.8 435 446.9 435 448 435C449 435 449.9 435 450.9 435C451.6 435 452.2 435 452.9 435C454.7 435.1 456.5 435.2 458.3 435.2C466.2 435.2 466.2 435.2 467.4 427.2C467.6 426.2 467.7 425.2 467.9 424.2C470.2 413.6 472.4 402.9 474.7 392.3ZM488.8 370.9C488.8 369.9 489.1 368.3 487.6 368.2C485.3 368 485.3 370.3 485 371.8C480.5 393.7 476.1 415.6 471.6 437.5C471.3 439.1 470.2 441.2 472.4 441.7C474.8 442.2 474.5 439.8 474.8 438.3C477.4 426 480 413.7 482.5 401.4C484.7 391.2 486.7 381.2 488.8 370.9ZM520.4 417.3C521.6 417.4 523.6 417.3 525.4 416.5C529.3 414.8 532.9 412.6 532.6 407.6C532.3 402.9 528.8 401 524.6 400.1C524 400 523.3 399.7 522.7 399.6C518.3 398.9 511.3 402.2 509.5 405.8C506.6 411.9 511.2 417.2 520.4 417.3Z" fill="#F9FCE0"/>
<path d="M57.9999 206.4H57.5999H57.2999C45.9999 200 34.9999 193.2 25.1999 184.5C20.0999 180 15.4999 175 11.9999 169C7.69992 161.4 7.59992 153.9 11.8999 146.3C16.5999 138.2 22.9999 131.8 30.4999 126.5C45.5999 126.5 60.7999 126.5 75.8999 126.7C80.3999 126.8 80.6999 125.1 78.9999 121.8C78.8999 121.2 78.8999 120.6 78.0999 120.6L78.1999 120.7C78.6999 116.8 76.0999 113.5 75.9999 109.7C81.1999 106 86.2999 102.4 91.4999 98.7001C103.5 111.8 115.7 124.8 127.6 137.9C135 146 135.9 158.8 130.1 168C123.9 177.8 112.1 182.5 101.1 178.9C97.6999 177.8 95.7999 178.3 93.4999 180.8C84.9999 189.6 74.8999 196.3 64.3999 202.5C62.1999 203.7 60.0999 205 57.9999 206.4ZM101.1 143.2C100.6 141.2 99.6999 139.9 97.3999 141.2C97.1999 141.2 97.0999 141.2 96.8999 141.2C90.4999 141.7 87.8999 140.2 85.0999 134.6C83.9999 132.4 82.5999 130.4 79.7999 130.9C77.1999 131.4 75.8999 133.7 76.0999 136.2C76.6999 142.1 74.7999 147.7 74.2999 153.5C71.4999 155.1 68.6999 156.9 65.7999 158.4C59.6999 161.4 53.0999 163.5 47.8999 168.1C45.7999 169.9 44.5999 168.4 43.2999 167.3C37.5999 162.2 32.0999 157 26.3999 151.9C25.2999 150.9 24.2999 148.5 22.4999 150.4C21.0999 151.9 22.9999 153.1 23.9999 154C28.2999 158.1 32.5999 162.3 37.0999 166.2C40.9999 169.5 45.5999 172.3 40.5999 178.1C40.4999 178.2 40.3999 178.4 40.3999 178.6C40.1999 179.7 39.5999 181 41.2999 181.5C42.4999 181.9 43.0999 181 43.3999 180C46.4999 171.3 53.6999 167.4 61.4999 164.1C66.3999 162 71.2999 159.9 75.2999 156.3C77.5999 159.5 79.8999 162.8 82.2999 166C89.9999 176 95.1999 176.4 104.4 167.8C109.2 163.4 109.3 160.2 105.2 151.1C104.8 150.3 104.5 149.5 104.1 148.7C104.2 146.2 103.1 144.5 101.1 143.2Z" fill="#EE41FC"/>
<path d="M256.4 401.4C253.8 413.1 249.5 424.2 245.4 435.4C226.5 435.3 207.6 435.2 188.7 435.3C183.3 435.3 179.1 433.6 175.3 430C172.2 427 169.1 424 165.6 421.5C160.9 418.1 157.9 418.6 153.6 422.4C147 428.3 148.3 436.7 156.8 443.3C150 443.3 143.3 443.3 136.5 443.3C131 426.5 126 409.5 119.8 392.9C116.9 385 117.3 378.2 121.3 371.1C123.8 366.6 125.5 361.8 125.2 356.4C130.4 360.4 134.7 365.3 140.3 368.9C145.5 373.7 150.8 378.3 157.1 381.6C156.6 383.7 156.1 385.8 155.5 387.8C155.2 388.8 155.1 389.7 156 390.5C157.2 391.6 158.2 390.8 159.1 390.2C161.2 388.6 163.2 386.9 165.3 385.3C168.6 387 172.4 386.9 175.9 387.8C182.9 389.6 184.1 392.4 181 399C178.1 400.9 175.1 400.6 171.9 399.8C167.5 398.7 163.3 396.8 158.3 396.6C160.2 402.2 162 407.4 163.6 412.6C164.3 415 165.3 415.4 167.4 414.1C175 409.3 182.8 404.9 189.9 399.3C191 398.4 192.2 397.4 193.3 396.5C195.1 397.6 197 398.7 198.8 399.8C199.7 400.3 200.6 400.8 201.5 400.1C202.5 399.3 202 398.3 201.7 397.4C200.8 395.1 199.8 392.8 198.9 390.6C199.3 389.9 199.8 389.2 200.2 388.5C202.3 386.4 203.3 383.5 204.8 381C208.9 374.1 213.2 373.9 217.8 380.4C218.4 386.8 213 390.3 210.5 395.2C209.8 396.6 207.7 397.9 208.4 399.4C209.2 401.1 211.4 400.1 212.9 400.1C227.2 400.3 241.4 400.4 255.7 400.5C256.1 400.8 256.2 401.1 256.4 401.4ZM233.4 409.9C229.7 409.6 226.3 412.4 226.3 416C226.3 419.8 228.2 422.4 232.2 422.7C236 423 238.6 421.3 239.2 417.2C239.6 413.4 237 410.2 233.4 409.9ZM142.1 417.4C139.2 409.1 136.2 400.5 133.1 391.9C132.7 390.9 131.9 390.2 130.8 390.8C129.8 391.4 129.9 392.5 130.2 393.5C131.4 397.1 132.7 400.7 134 404.3C135.6 408.8 137.2 413.4 138.8 417.9C139.2 419 139.7 420.2 141.2 419.8C142.2 419.5 142.2 418.6 142.1 417.4Z" fill="#1201FD"/>
<path d="M163.2 47.5C149.2 67.9 120.1 71.7 99.5 63C95.5 61.3 92.3 60.9 88.3 62.5C86.1 63.4 83.2 66 81.1 63.4C79.1 60.9 82.5 59.1 83.4 56.9C84.1 55.2 85.2 53.9 83.5 52C70.6 37.5 75.8 17.9 94.2 7.40004C112.6 -2.99996 139 -1.29996 155.3 11.8C162 17.2 166.6 23.9 166.4 33.1C163.6 32.6 161.4 29.7 158.2 31.1C156.7 33.1 155.5 34.6 153.8 31.1C152.7 28.7 150.1 28.3 147.7 28.7C142.7 29.6 140.6 33.2 140.1 37.9C139.9 39.9 139.7 41.8 137.1 41.4C134.7 41 133.9 39.1 134.4 36.9C134.7 35.3 135.6 33.8 136 32.2C136.3 31.1 136.6 29.9 135.1 29.3C129.5 27.1 122.4 30.4 120.2 36.3C119.5 38.1 118.6 39.5 117 40.6C115.7 41.4 114.3 42.4 112.9 41.4C111.4 40.3 112 38.6 112.7 37.3C113.7 35.4 115 33.6 116.2 31.9C116.9 30.9 117 30 116 29.3C115.2 28.7 114.4 29 113.8 29.6C110.9 32.5 108.5 35.8 108.5 40C108.5 43.2 110.6 46.3 114.2 45.4C118.1 44.5 121.7 42.7 125.5 45.5C126 45.8 127.6 45.3 128.2 44.6C130.4 42.4 132.4 42.3 134.7 44.4C135.1 44.8 136 44.8 136.6 44.8C143.1 44.8 150.4 47.2 154.2 38.8C154.7 37.8 156.7 37.4 158.1 36.8C158.4 37.5 158.8 38.2 159.1 38.8C160.4 41.7 161.8 44.6 163.2 47.5ZM93 45.7C95.9 45.8 98.6 44.8 101 43.2C102.9 41.8 106.6 40.5 104.7 37.8C102.8 35.1 101.3 39 99.8 40C96.1 42.2 92.2 43.4 88.7 40.6C85 37.7 86 33.8 88 30.2C88.9 28.6 89.9 27.1 90.9 25.6C92.5 23.4 94 22.1 96.9 24.7C99.3 26.9 102.5 26.3 105.2 24.5C106.8 23.4 107.8 21.7 106.9 19.7C105.6 16.7 102.9 15.8 99.9 16.3C98.4 16.5 97.2 16.8 97.4 14.6C97.5 13.7 97.7 12.4 96.3 12.2C94.9 12 93.9 13.3 93.9 14.3C93.9 18.8 90.3 20.8 88 23.6C85.4 26.7 83.5 30.2 83 34.3C82.2 40.6 86.6 45.7 93 45.7ZM118 19.6C116.5 19.7 115.1 21 115.2 23.7C115.3 26.5 116.9 27.9 119.7 27.8C122.4 27.8 123.7 26 123.6 23.6C123.5 21 121.9 19.5 118 19.6Z" fill="#7BB9D2"/>
<path d="M402.9 435.3C400.3 437.1 398.9 439.3 401 442.4C400 443.7 398.6 443.2 397.3 443.3C392.3 440.3 390.6 436.6 394.2 431.3C395.6 429.2 394.7 426.8 393 424.9C391.2 423 387.9 422.3 386.7 423.6C380.4 430.4 371.4 434.2 365.9 441.9C365.6 442.3 365.6 442.9 365.5 443.3C353.4 443.3 341.2 443.3 329.1 443.3C323.2 440.6 317.4 437.8 314.1 431.6C308.3 420.9 310 409.5 318.6 401C323 396.7 328.4 393.5 332.1 388.5C338.6 384.9 343.1 378.8 349.3 375C352.6 376.5 355.9 378 359.6 378.5C371.8 380.1 381.5 375.2 390.1 367.1C394.2 363.3 397.7 358.8 402.9 356.3C404.4 358 406 359.7 407.5 361.5C414.9 370.2 423.7 377.6 430.2 387.1C425.8 389.6 422.1 389.7 418.9 385C418.1 383.8 416.3 382.7 414.7 382.4C410.9 381.7 410.4 379.6 410.9 376.2C411.4 373.3 410.6 370.6 407.4 369.3C404.3 368.1 401.9 369.4 399.7 371.3C398 372.8 397 374.7 396.6 376.9C396.1 379.7 394.6 381.4 392.2 383C384.8 387.8 383.4 393.2 387.3 401.3C388.1 403.1 389.2 404.8 390.2 406.5C384.2 409.5 377.5 410.4 371.1 412.3C371.7 405.7 369.6 400.4 363.6 397.3C360.7 395.9 359.9 394.7 360.4 391.3C361.2 386.8 358.4 382.6 355.1 382.4C350.2 382.1 349.4 386.1 348.4 389.6C348.3 390.1 348.1 390.6 348.1 391.1C349 395.7 346.5 398.1 342.7 399.8C342.1 400.1 341.5 400.5 341.1 400.9C337.8 404.8 334.6 406.5 330.3 401.7C328.3 399.5 324.8 399.1 322.1 401.5C319.3 403.9 319.3 407 320.7 410.1C321.3 411.4 322 413.1 323.2 413.8C327 416.1 327.3 419.9 327.9 423.6C326.3 427.8 328.7 427.3 331.4 426.5C346.9 422.3 362.4 418.1 378 414.1C386.2 412 394 408.7 402.6 408.2C402.7 417.2 402.8 426.3 402.9 435.3Z" fill="#1D1C4B"/>
<path d="M59.1 309.8C62.1 310 63.5 308.5 64.2 305.7C65.1 301.9 66.4 298.3 68.7 294.5C69.6 297.6 70.8 300.6 71.5 303.7C72.4 308 74.3 310.6 79.2 309.6C80.1 309.4 81.2 309.6 82.2 309.6C82.2 320.4 82.4 331.2 82.3 342C82 367.3 87.4 391.1 100.8 412.8C103.3 416.9 105.2 421.3 107.5 425.6C102.9 425.3 99.2 423.1 95.9 420.3C91.1 416.3 86.5 411.9 81.7 407.8C75.1 402.1 67.7 400.4 59.5 404.3C59.2 372.8 59.1 341.3 59.1 309.8Z" fill="#F7AD8C"/>
<path d="M32.7 309.7C40.3 309.7 47.9 309.7 55.5 309.7C55.5 313 55.4 316.3 55.4 319.6C55.3 347.8 55.3 375.9 55.3 404.1C47.3 400.3 40.1 402.1 33.6 407.5C29.4 411 25.5 414.9 21.3 418.4C17.2 421.8 13.1 425.3 7.40002 425.4C12.1 416.5 17.1 407.6 21.5 398.6C30.2 380.8 32.5 361.6 32.6 342C32.6 331.3 32.7 320.5 32.7 309.7Z" fill="#F7AD8C"/>
<path d="M243.3 155.3C238.4 156.1 233.8 155.4 229.2 153.5C221 150 212.7 146.7 204.2 143.7C198 141.5 195.1 137.5 195.3 131.1C197 126.9 200.2 124.3 204.4 122.9C207.5 122.8 210.6 122.7 213.7 122.8C216.3 122.8 219 123.1 220.7 120.5C222.3 120.3 222.8 119.1 223.3 117.8C226.6 114.9 227.3 110.1 230.6 107.2C235.3 107.5 237.1 111.1 237.9 114.8C239.1 119.9 241.8 123 246.4 125.6C257.5 131.8 257.3 147.2 246.4 153.7C245.4 154.2 244.3 154.7 243.3 155.3Z" fill="#F9FCE0"/>
<path d="M59.3 404.3C67.5 400.4 74.8 402.1 81.5 407.8C86.3 411.9 90.9 416.2 95.7 420.3C99 423.1 102.7 425.3 107.3 425.6C109.8 428.7 112 432.1 113.4 435.8C114.8 439.4 113.1 442.7 109.6 443C99.7 443.9 89.7 444.1 81.1 437.3C78.6 435.3 77.2 432.4 74.2 429.2C74.2 433.1 74 436.1 74.2 439.1C74.4 442.4 73.1 443.5 69.9 443.3C66.3 443.1 62.6 443.2 59 443.2C59.1 430.3 59.2 417.3 59.3 404.3Z" fill="#595C0B"/>
<path d="M419.4 326.6C406.1 325.7 403.8 312.8 408.4 305.2C412.4 298.6 424.4 296 428.5 302C433.4 309.2 440.1 308.3 446.7 309.3C448.7 309.6 450.6 310 452.6 310C462.6 310 470.2 323.1 465.4 333.6C463.2 338.4 460.8 343 459.9 348.3C459.1 347.6 458.3 347 457.2 347.2V347.3C456.7 346.7 456.2 346.7 455.6 347.2C455.3 347.1 455.1 347.1 454.8 347.3C453.8 347.6 452.7 347.9 451.7 348.3C451 347.4 449.9 347.3 448.9 347.3C448.9 343.7 451.5 340.9 452 337.5C452.3 335.4 452.1 333.4 450.3 332.1C448.6 330.8 446.9 331.2 445.5 332.8C442 332.4 438.3 332.8 434.9 331.5C433.3 324.6 428.2 323 419.4 326.6Z" fill="#1D1C4B"/>
<path d="M7.39995 425.5C13.2 425.4 17.3 422 21.3 418.5C25.5 415 29.3999 411.1 33.5999 407.6C40.0999 402.1 47.3 400.4 55.3 404.2C55.5 417.2 55.6 430.2 55.8 443.2C51.8 443.2 47.8 443.1 43.8 443.3C41.2 443.4 40.2 442.3 40.3 439.7C40.4 436.6 40.3 433.4 40.3 428.5C32.3 442.9 20.1 443.9 7.19995 443.2C1.79995 442.9 -0.500046 439.2 1.89995 434.3C3.49995 431.3 5.59995 428.5 7.39995 425.5Z" fill="#595C0B"/>
<path d="M125.1 356.4C125.4 361.7 123.7 366.5 121.2 371.1C117.3 378.2 116.8 384.9 119.7 392.9C125.9 409.5 130.9 426.5 136.4 443.3C130.6 443.5 126.9 440.2 125.2 435.1C117.3 411.9 109.7 388.5 101.9 365.3C100.2 360.1 102.4 356.2 106.2 353.1C110.5 349.6 116 349.5 120.6 352.7C122.2 353.7 123.6 355.1 125.1 356.4Z" fill="#021B32"/>
<path d="M156.7 443.2C148.2 436.7 146.9 428.2 153.5 422.3C157.8 418.5 160.8 418.1 165.5 421.4C169 423.9 172.1 427 175.2 429.9C179 433.5 183.3 435.2 188.6 435.2C207.5 435.1 226.4 435.3 245.3 435.3C244.5 439.4 241.1 441.1 238 443.1C211 443.2 183.8 443.2 156.7 443.2Z" fill="#021B32"/>
<path d="M402.9 356.2C397.7 358.7 394.2 363.2 390.1 367C381.5 375.1 371.8 380 359.6 378.4C355.9 377.9 352.6 376.4 349.3 374.9C336.3 366.1 331.4 355.1 334.1 341C336.7 327.8 346.4 317.6 359.2 315C371 312.7 380.9 316.2 388.6 325.4C392 329.4 395.1 333.8 398.4 338C402.9 343.7 408.6 347.4 415.9 348.3C416.3 348.6 416.6 348.9 417 349.3C416.7 350.2 416.4 351.1 416 352C411.4 352.3 406.7 352.9 402.9 356.2ZM398.9 354.3C401.5 352.8 404.1 351.3 407.3 349.5C403.2 347.3 400 345 397.4 341.9C394.9 338.8 392.5 335.6 390.1 332.4C386.1 327 381.8 321.9 375.3 319.5C356.8 312.5 337.5 326.2 336.8 346.9C336.4 357.8 342.3 367.6 351.3 371.4C351.9 372.5 352.9 373 354 373.4C365.1 377.9 374.9 375.2 383.7 368C389.1 363.7 393.9 358.9 398.9 354.3Z" fill="#F8AFFC"/>
<path d="M53.1 67.7C44.4 64.7 40.9 59.7 41.1 50.6C41.3 43.8 45.9 37.8 52.5 35.9C60.6 33.5 69.6 37.7 72.8 45.3C76.2 53.4 72.9 62.4 65 66.7C63.7 67.4 62.4 68.1 61.1 68.8C58.4 68.9 55.8 68.4 53.1 67.7ZM66.9 52.7C67 47.1 62.1 42.4 56.6 42.6C55.4 42.7 53.6 42.2 53.6 44.2C53.6 45.7 55.1 45.6 56.3 45.7C60.6 46.3 63.3 48.3 63.4 53.1C63.4 54.4 62.3 56.6 64.8 56.5C66.8 56.3 66.4 54 66.9 52.7Z" fill="#021B32"/>
<path d="M474.7 392.3C472.4 403 470.2 413.7 467.9 424.3C464.3 423.6 461.5 421.4 458.9 419.2C451.2 412.9 443.8 406.1 441.9 395.6C453.7 395.2 461.3 387.8 460.9 377.3C465.5 382.3 470.1 387.3 474.7 392.3Z" fill="#1D1C4B"/>
<path d="M460.9 377.3C461.3 387.8 453.7 395.1 441.9 395.6C440.5 395.1 439.2 394.5 437.8 394C437.5 393.8 437.2 393.6 436.9 393.4C435.9 392.1 434.9 390.7 433.9 389.4C433.8 388.6 434 387.6 432.9 387.3H433C433 382.1 431.6 376.7 435.4 372.1C436.1 372.6 436.8 373 437.7 372.7C447.9 369.1 452 363.2 452 352.2C452 350.9 452 349.6 452 348.2C453 347.9 454.1 347.6 455.1 347.2C454.9 348.1 454.3 349.1 454.4 350C455 354.4 456.4 358.8 453.4 362.9C453.2 363.2 453.4 364.2 453.8 364.6C454.4 365.3 455.3 365.1 456 364.5C457.8 363.1 458.5 361.1 458.8 358.9C459.2 354.9 458.1 351 457.5 347.1C458.6 346.9 459.4 347.5 460.2 348.2C463 353.1 462.3 358 460.3 363C458.3 368 457.8 372.8 460.9 377.3Z" fill="#F7AD8C"/>
<path d="M183 85.4C179.5 87.6 175.6 88.4 171.7 87.4C167 86.1 164.2 82.9 164.1 77.8C165.6 71 167.2 64.3 165.2 57.2C164.8 55.6 165.2 53.9 166.3 52.5C168.8 52.2 170.2 53.4 171.4 55.5C172.8 58 173.2 60.8 173.8 63.5C174.3 65.9 174.8 68.1 177.6 68.6C179.5 69 181.2 68.3 182.4 66.7C183.9 64.5 183 62.4 181.9 60.2C179.8 55.9 176.2 52.5 175 47.8C177.4 44.1 179.8 45.7 181.7 48.1C189.8 58.6 194.9 72.3 183 85.4Z" fill="#F7AD8C"/>
<path d="M55.7999 443.3C55.5999 430.3 55.4999 417.3 55.2999 404.3C55.2999 376.1 55.3999 348 55.3999 319.8C55.3999 316.5 55.4999 313.2 55.4999 309.9C56.6999 309.9 57.8999 309.9 58.9999 309.9C59.0999 341.4 59.0999 372.9 59.1999 404.5C59.0999 417.5 59.0999 430.5 58.9999 443.4C57.9999 443.9 56.8999 444.3 55.7999 443.3Z" fill="#A359DB"/>
<path d="M79 121.8C80.7 125.1 80.5 126.8 75.9 126.7C60.8 126.4 45.7 126.5 30.5 126.5C35.1 121.7 41.4 119.2 46.1 114.6C46.8 114.6 47.3 114.5 47.2 113.6C49.3 114 50.7 112.6 52.1 111.6C55.8 108.7 59 109.3 62.9 111.6C68 114.6 72.5 118.6 78.2 120.5L78.1 120.4C77.9 121.4 78.5 121.6 79 121.8Z" fill="#F7AD8C"/>
<path d="M35.3999 94.7001C33.9999 92.7001 33.2999 90.6001 34.9999 88.4001C36.6999 86.2001 38.9999 86.7001 41.1999 87.6001C42.9999 89.9001 44.5999 90.2001 46.5999 87.6001C50.6999 82.2001 54.2999 76.4001 57.6999 69.7001C60.5999 78.5001 66.1999 84.5001 72.4999 89.9001C72.3999 92.6001 70.7999 94.6001 69.2999 96.6001C60.2999 103.4 52.7999 103 44.5999 95.1001C43.4999 94.0001 42.5999 93.4001 41.2999 94.5001C39.0999 89.0001 37.2999 93.0001 35.3999 94.7001ZM63.9999 87.1001C63.8999 86.0001 63.8999 84.8001 62.3999 85.3001C59.6999 86.2001 56.1999 86.5001 54.7999 89.1001C54.1999 90.4001 56.9999 91.5001 58.8999 91.5001C61.7999 91.4001 63.4999 89.8001 63.9999 87.1001Z" fill="#F7AD8C"/>
<path d="M91.5 98.6001C86.3 102.3 81.2 105.9 76 109.6C74.4 106.9 75.3 103.8 75 100.9C75.5 97.2001 76.8 93.9001 78.9 90.9001C81.7 86.9001 84.5 82.7001 87.2 78.7001C88.5 77.3001 90 75.9001 91.2 74.4001C92.5 72.8001 94.1 72.1001 95.9 73.0001C97.9 74.0001 97.9 75.9001 97.1 77.7001C95.9 80.2001 94.8 82.8001 93.5 85.2001C91.2 89.5001 90.3 93.9001 91.5 98.6001Z" fill="#F7AD8C"/>
<path d="M72.5 89.9001C66.2 84.5001 60.6 78.5001 57.7 69.7001C54.3 76.4001 50.7 82.2001 46.6 87.6001C44.6 90.2001 43 89.9001 41.2 87.6001C39.6 77.6001 45 71.8001 53.2 67.7001C55.8 68.4001 58.5 68.9001 61.2 68.7001C67.7 70.0001 72.7 75.1001 74.1 82.0001C74.4 83.3001 74.6 84.5001 74.9 85.8001C74.1 87.2001 73.8 88.9001 72.5 89.9001Z" fill="#1D1C4B"/>
<path d="M175 47.8C176.2 52.5 179.8 55.9 181.9 60.2C182.9 62.4 183.9 64.4 182.4 66.7C181.3 68.4 179.6 69 177.6 68.6C174.8 68.1 174.3 65.9 173.8 63.5C173.2 60.8 172.8 58 171.4 55.5C170.2 53.4 168.8 52.2 166.3 52.5C165.3 50.8 164.2 49.2 163.2 47.5C161.8 44.6 160.5 41.7 159.1 38.8C163 39.4 165.9 38.3 166.5 33.9C169.3 38.6 172.2 43.2 175 47.8Z" fill="#1201FD"/>
<path d="M243.5 106.9C240.5 106.1 236.1 107.9 235 104.4C234.1 101.5 237.9 99.6001 239.8 97.5001C240.9 96.3001 242.2 95.2001 243.5 94.3001C246 92.6001 248.7 91.7001 251.3 93.7001C253.7 95.5001 254.9 98.1001 254.5 101.1C254 104.5 251.4 106.1 248.3 106.6C246.8 106.9 245.1 106.8 243.5 106.9Z" fill="#F7FAE0"/>
<path d="M435.2 331.4C438.6 332.7 442.3 332.3 445.8 332.7C445.5 333.9 445.2 335.1 444.9 336.3C441.7 336 438.5 335.6 435.3 335.3C427.2 333.4 427.3 333.4 423.7 340.9C423 342.4 421.9 343.6 421 345C419.4 345.2 417.7 345.3 416.1 345.5C410.4 342.6 408.3 336.1 411.5 330.8C413.4 327.6 416.7 330 419.3 329.3C424.5 330.6 429.8 331.3 435.2 331.4ZM417.8 342.2C420.5 341.7 420.7 339.4 421.4 337.5C422.3 335.1 422.8 332.8 418.9 333.2C417.1 332.5 414.7 331.3 414.2 334.2C413.5 337.4 412.7 341.3 417.8 342.2Z" fill="#595C0B"/>
<path d="M35.4 94.7C37.3 93 39.1 89 41.2 94.5C42.5 101.1 45.3 107.3 47.2 113.7C46.5 113.6 46.1 113.9 46.1 114.7C40.8 113.6 35.3 113.7 29.9 113.4C26.1 113.2 25.3 111.6 27.3 108.3C30.2 103.8 32.8 99.2 35.4 94.7ZM42.1 110.1C41.1 106.2 40 102.5 38 98.5C35.3 102.1 33.1 105.3 31.2 109.7C35.1 109.2 38.4 111.2 42.1 110.1Z" fill="#1201FD"/>
<path d="M391.3 443.2C383.8 443.2 376.4 443.2 368.9 443.3C369.2 441.1 370.7 439.7 372.6 438.9C377.5 436.9 382.2 434.9 384.2 429.2C384.9 427.3 387.2 425.6 389.5 426.9C392.2 428.4 391.3 431.2 389.9 433C386.9 437 387.7 440.2 391.3 443.2Z" fill="#1D1C4B"/>
<path d="M240.4 194.3C234.8 189.3 228.4 185.3 223.2 179.9C216 172.4 214 163.2 217.7 155.7C218.4 154.3 219 151.9 221 152.8C223.4 153.9 221.3 155.7 220.7 156.9C217.1 164.7 220 171.2 225.1 177C229.2 181.7 234.4 185 239.1 189C240.6 190.2 242.7 191 242.6 193.5C241.9 193.7 241.2 194 240.4 194.3Z" fill="#595C0B"/>
<path d="M391.3 443.2C387.7 440.2 386.9 437 389.9 432.9C391.2 431.1 392.2 428.3 389.5 426.8C387.2 425.5 384.8 427.2 384.2 429.1C382.2 434.8 377.6 436.8 372.6 438.8C370.7 439.6 369.3 441 368.9 443.2C367.7 443.2 366.6 443.2 365.4 443.2C365.5 442.7 365.5 442.1 365.8 441.8C371.3 434.1 380.3 430.4 386.6 423.5C387.8 422.2 391.1 422.9 392.9 424.8C394.6 426.6 395.6 429.1 394.1 431.2C390.5 436.6 392.2 440.2 397.2 443.2C395.3 443.2 393.3 443.2 391.3 443.2Z" fill="#97382F"/>
<path d="M220.7 120.3C219 122.9 216.3 122.7 213.7 122.6C210.6 122.6 207.5 122.7 204.4 122.7C204.1 115.2 207.1 109.5 213.9 106C216.2 110.8 218.5 115.5 220.7 120.3Z" fill="#F7AD8C"/>
<path d="M248.6 197.5C251 193 253.3 188.4 255.8 183.9C256.9 181.9 258.3 180 260.5 178.9C263.6 177.4 267.1 179.8 267 183.3C266.8 188.6 253.7 200.4 248.3 200.1C248.4 199.2 248.5 198.3 248.6 197.5ZM256.1 191.6C256.6 191.2 257.2 190.8 257.7 190.3C258.1 190 258.6 189.9 258.9 189.5C260.7 187.5 263.3 185.9 263.2 182.7C263.2 182.4 262.4 181.9 262.2 182C259.5 183 258.6 185.7 257.2 187.8C256.9 188.2 256.9 188.7 256.7 189.2C256 189.7 255.7 190.4 255.8 191.3C255.3 191.5 255 191.7 255.5 192.2C255.8 192.1 255.9 191.8 256.1 191.6Z" fill="#595C0B"/>
<path d="M72.5 89.9C73.9 88.9 74.1 87.3 74.8 85.9C76.1 83.6 77.4 81.4 78.8 79.1C81.5 74.5 83.8 74.5 87.3 78.8C84.5 82.9 81.8 87 79 91C76.9 94 75.6 97.4 75.1 101C71.7 101.4 70 99.7 69.4 96.6C70.7 94.5 72.4 92.6 72.5 89.9Z" fill="#F7FAE0"/>
<path d="M220.7 120.3C218.4 115.6 216.2 110.8 213.9 106.1C213.3 103 211.2 104.8 209.6 104.7C208.6 104.7 207.5 104.9 207.2 103.6C207 102.4 207.9 101.9 208.9 101.6C212.5 100.5 216.2 99.4001 219.8 98.3001C221 97.9001 222.2 97.7001 222.7 99.2001C223.2 100.7 221.8 101 220.9 101.6C219.6 102.4 216.1 101.2 217.7 104.9C219.6 109.2 221.4 113.5 223.3 117.8C222.8 118.8 222.3 120.1 220.7 120.3Z" fill="#EE41FC"/>
<path d="M223.3 117.6C221.4 113.3 219.6 109 217.7 104.7C222.2 104.1 226.7 104 230.6 107C227.3 110 226.7 114.7 223.3 117.6Z" fill="#F7AD8C"/>
<path d="M435.2 331.4C429.8 331.3 424.5 330.6 419.2 329.3C419.3 328.4 419.3 327.4 419.4 326.5C428.2 323 433.3 324.6 435.2 331.4Z" fill="#F7AD8C"/>
<path d="M188.2 161.1C190.2 158.9 192.1 156.5 195.2 155.8C196.3 155.6 197.6 155.3 198 156.9C198.3 158.1 197.5 158.7 196.5 159.1C191.9 160.9 189.8 164.2 190.7 169.1C190.9 170.2 190.7 171.1 189.5 171.4C188 171.7 187.4 170.6 187.2 169.4C187 167.8 187.1 166.1 187 164.5C187.4 163.3 187.8 162.2 188.2 161.1Z" fill="#1201FD"/>
<path d="M416.1 345.5C417.7 345.3 419.4 345.2 421 345C422.3 346 423.7 346.8 425 347.9C426.5 349.2 428.1 350.9 426.2 352.9C424.6 354.6 422.9 353.4 421.5 352.1C420.2 350.9 419 349.4 417 349.2C416.6 348.9 416.3 348.6 415.9 348.2C416 347.4 416.1 346.4 416.1 345.5Z" fill="#1D1C4B"/>
<path d="M166.5 34C165.8 38.4 163 39.4 159.1 38.9C158.8 38.2 158.4 37.5 158.1 36.9C158.1 35 158.2 33.2 158.2 31.3C161.4 29.8 163.6 32.8 166.4 33.3C166.4 33.4 166.5 33.7 166.5 34Z" fill="#A359DB"/>
<path d="M224.6 224.7C228.7 224.3 232.8 223.7 236.6 225.8C240.4 227.9 242.8 231 243.1 235.5C238.4 237.7 233.4 236.3 228.6 236.4C224.8 236.5 221.4 236.7 219 240.1C218.4 240.9 217.5 241.3 216.6 241.9C215.1 242.9 213.5 244.3 211.8 242.3C210.4 240.6 211.1 238.8 212.2 237.3C215.6 232.4 219.5 227.9 224.6 224.7Z" fill="#F7AD8C"/>
<path d="M189.8 399.3C182.8 404.9 174.9 409.3 167.3 414.1C165.2 415.4 164.2 415 163.5 412.6C161.9 407.4 160.1 402.2 158.2 396.6C163.1 396.8 167.4 398.7 171.8 399.8C175 400.6 178 400.9 180.9 399C183.9 399.1 186.9 399.2 189.8 399.3Z" fill="#EE41FC"/>
<path d="M165.3 385.3C163.2 387 161.2 388.6 159.1 390.2C158.2 390.9 157.2 391.6 156 390.5C155.1 389.7 155.2 388.8 155.5 387.8C156 385.7 156.5 383.6 157.1 381.6C158.3 378.4 159.5 375.1 160.9 371.9C162 369.2 163.4 366.5 165.5 364.3C168.2 361.4 171.4 359.5 175.1 361.9C179 364.5 177.8 368.3 176.1 371.7C173.4 377 169 380.9 165.3 385.3ZM160.8 383.8C165.8 380.1 170 375.6 173 370.2C174 368.4 175.5 366 172.9 364.5C170.5 363.1 168.9 365.2 167.6 366.9C163.8 371.9 161.7 377.6 160.8 383.8Z" fill="#021B32"/>
<path d="M198.9 390.5C199.8 392.8 200.8 395.1 201.7 397.3C202.1 398.2 202.5 399.3 201.5 400C200.6 400.7 199.6 400.3 198.8 399.7C197 398.6 195.1 397.5 193.3 396.4C189.9 393.5 186.5 390.7 183.2 387.6C181.1 385.7 179.4 383.4 178.5 380.7C177.4 377.7 177.7 374.6 180.7 372.8C183.3 371.1 185.7 372.3 187.9 374.1C191.4 377.2 193.7 381.2 196 385.3C196.9 387.1 197.9 388.8 198.9 390.5ZM194.6 392.9C195 393.1 195.6 393.5 195.7 393.4C196.2 392.9 196 392.4 195.4 392.1C193.7 387 190.8 382.6 187.4 378.5C186.2 377.1 184.7 374.2 182.3 376.1C179.7 378 181.8 380.4 183 382.2C186 386.6 190.2 389.9 194.6 392.9Z" fill="#021B32"/>
<path d="M211.9 288.4C211 288.4 210.1 288.5 209.2 288.5C204.6 273.1 200 257.7 195.4 242.3C195 241.1 194.5 239.5 196.3 239C197.8 238.6 198.2 240.1 198.5 241.1C203 256.5 207.5 272 211.9 287.4C212 287.7 211.9 288 211.9 288.4Z" fill="#A359DB"/>
<path d="M217.8 380.3C219.5 378 221.1 375.7 222.8 373.3C235.2 377.7 247.6 382 260 386.4C260.3 387.3 260.6 388.3 261 389.2C259.7 392.2 258.5 395.3 257.2 398.3C256.8 399 256.3 399.8 255.9 400.5C241.6 400.4 227.4 400.3 213.1 400.1C211.5 400.1 209.3 401 208.6 399.4C207.9 397.9 209.9 396.6 210.7 395.2C213 390.2 218.5 386.7 217.8 380.3Z" fill="#EE41FC"/>
<path d="M261 389.2C260.7 388.3 260.4 387.3 260 386.4C263.4 380.1 268.2 374.8 272.9 369.4C282.4 358.8 280.6 344.2 274.3 333.3C273.9 332.6 273.3 332 272.9 331.2C272.2 329.9 269.8 328.5 271.6 327C273.6 325.3 274.8 327.8 275.7 329.1C283 339.1 287.8 357.4 275.3 371.9C271 376.9 266.2 381.6 263.4 387.7C263.1 388.9 262.1 389.2 261 389.2Z" fill="#5A2A80"/>
<path d="M255.9 400.4C256.3 399.7 256.8 398.9 257.2 398.2C267.5 398.2 277.8 398.1 288 398.2C289.4 398.2 291.6 397.6 291.7 399.6C291.8 401.8 289.6 401.2 288.2 401.2C277.6 401.3 267 401.3 256.4 401.4C256.2 401.1 256.1 400.8 255.9 400.4Z" fill="#5A2A80"/>
<path d="M202.1 170.1C201.9 166.2 203.8 163.3 206.3 160.8C207.2 159.9 208.2 159.2 209.3 160.2C210.6 161.3 209.6 162.3 208.8 163.2C205.6 166.5 204.6 170.3 206.6 174.6C207.1 175.6 207.1 176.6 206.1 177.2C204.7 178 203.9 176.8 203.4 175.8C202.4 173.9 201.9 172 202.1 170.1Z" fill="#1201FD"/>
<path d="M402.9 435.3C402.8 426.3 402.7 417.3 402.7 408.3C402.8 407.5 403 406.7 403.1 406C404.8 405.8 406.4 405.6 408.1 405.4C409.4 405.3 410.7 405.2 412 405.1C416.7 404.6 421.4 404 426.1 403.5C427.4 403.4 428.6 403.3 429.9 403.2C434.7 402.3 438.3 404.8 441.8 407.4V407.3C441.8 408 442 408.5 442.9 408.4L442.8 408.3C442.7 409.1 442.7 409.8 443.9 409.4L443.8 409.3C443.4 411 444 412.1 445.8 412.4H445.7C447.9 420.1 451.6 427.2 452.9 435.2C452.2 435.2 451.6 435.2 450.9 435.2C449.4 428 444.2 422.7 441.2 416.3C440.6 414.9 439.8 412.5 437.8 413.6C435.7 414.7 437.4 416.5 438.2 417.9C441.5 423.7 444.8 429.4 448.1 435.2C447 435.2 445.9 435.2 444.8 435.2C442.1 428.8 437 424.3 432.5 419.3C431.6 418.2 430.3 416.5 428.9 417.8C427 419.6 429.3 420.7 430.3 421.7C434.2 426 438.1 430.2 441.2 435.2C438.3 435.2 435.4 435.3 432.4 435.3C430.6 433.4 428.6 431.6 427 429.5C424.7 426.4 422.4 426.4 419.4 428.5C415.9 431 412.5 433.7 408.3 435C406.5 436.3 404.6 434.8 402.9 435.3Z" fill="#F7AD8C"/>
<path d="M488.8 370.9C486.7 381.1 484.7 391.2 482.6 401.2C480.1 413.5 477.5 425.8 474.9 438.1C474.6 439.6 474.8 442.1 472.5 441.5C470.3 441 471.3 438.9 471.7 437.3C476.2 415.4 480.6 393.5 485.1 371.6C485.4 370.1 485.4 367.9 487.7 368C489.1 368.3 488.8 370 488.8 370.9Z" fill="#F8AFFC"/>
<path d="M452.9 435.2C451.6 427.3 447.9 420.1 445.7 412.4C448.6 413.3 449.9 416.1 452 417.9C456.7 421.9 461.3 425.9 467.4 427.4C466.2 435.5 466.2 435.5 458.3 435.4C456.5 435.4 454.7 435.3 452.9 435.2Z" fill="#1D1C4B"/>
<path d="M520.4 417.3C511.2 417.3 506.6 412 509.6 405.8C511.4 402.2 518.4 398.9 522.8 399.6C523.4 399.7 524.1 400 524.7 400.1C528.9 401 532.4 402.8 532.7 407.6C533 412.5 529.4 414.7 525.5 416.5C523.6 417.3 521.6 417.3 520.4 417.3ZM519.4 414.2C524.5 414.1 529.7 410.6 529.5 407.8C529.2 404.5 524.3 402.4 519.1 403.4C518.9 403.4 518.8 403.5 518.6 403.5C515.4 404.4 512 405.7 512.3 409.4C512.7 413.4 516.7 413.7 519.4 414.2Z" fill="#F8AFFC"/>
<path d="M467.4 427.3C461.2 425.8 456.6 421.8 452 417.8C449.9 416 448.6 413.3 445.7 412.3H445.8C445.9 410.8 445.2 409.8 443.8 409.2L443.9 409.3C443.5 408.9 443.2 408.6 442.8 408.2L442.9 408.3C442.5 407.9 442.2 407.6 441.8 407.2V407.3C442 403.1 438.4 400.2 437.8 396.2C437.8 395.4 437.8 394.7 437.8 393.9C439.2 394.4 440.5 395 441.9 395.5C443.9 406 451.2 412.7 458.9 419.1C461.5 421.3 464.3 423.5 467.9 424.2C467.8 425.3 467.6 426.3 467.4 427.3Z" fill="#5A2A80"/>
<path d="M408.2 435C412.4 433.7 415.8 431 419.3 428.5C422.2 426.4 424.6 426.4 426.9 429.5C428.4 431.6 430.5 433.4 432.3 435.3C424.2 435.3 416.2 435.8 408.2 435Z" fill="#1D1C4B"/>
<path d="M448 435.1C444.7 429.3 441.4 423.6 438.1 417.8C437.3 416.5 435.7 414.6 437.7 413.5C439.7 412.4 440.4 414.8 441.1 416.2C444.1 422.6 449.3 427.9 450.8 435.1C449.9 435.2 449 435.2 448 435.1Z" fill="#EE41FC"/>
<path d="M441 435.1C438 430.1 434 425.9 430.1 421.6C429.1 420.5 426.8 419.4 428.7 417.7C430.2 416.4 431.4 418.1 432.3 419.2C436.8 424.2 441.9 428.8 444.6 435.1C443.5 435.1 442.2 435.1 441 435.1Z" fill="#EE41FC"/>
<path d="M105.3 151C109.4 160 109.2 163.3 104.5 167.7C95.3 176.3 90.1 175.9 82.4 165.9C80 162.7 77.7 159.5 75.4 156.2C75.1 155.3 74.8 154.4 74.5 153.5C75 147.7 76.9 142.1 76.3 136.2C76 133.7 77.3 131.5 80 130.9C82.8 130.4 84.2 132.4 85.3 134.6C88.1 140.3 90.7 141.8 97.1 141.2C97.3 141.2 97.4 141.2 97.6 141.2C98.2 145.5 94.7 148 93.1 151.3C92.6 152.3 91.9 153.5 93.2 154.3C94.5 155 95.3 154.1 96 153C97.9 149.8 100.7 147.1 101.3 143.1C103.2 144.3 104.3 146.1 104.4 148.4C102.8 148.3 101.8 149.1 101.7 150.7C101.6 154.1 100.8 157.2 99.6 160.3C99.2 161.3 98.8 162.7 100.3 163.2C101.8 163.7 102.2 162.3 102.7 161.3C104.1 158.2 104.9 154.6 105.3 151Z" fill="#F7AD8C"/>
<path d="M74.4 153.5C74.7 154.4 75 155.3 75.3 156.2C71.3 159.9 66.4 161.9 61.5 164C53.8 167.4 46.5 171.3 43.4 179.9C43 180.9 42.5 181.8 41.3 181.4C39.7 180.9 40.3 179.6 40.4 178.5C40.4 178.3 40.5 178.2 40.6 178C45.6 172.2 41 169.4 37.1 166.1C32.6 162.2 28.3 158 24 153.9C23 152.9 21.2 151.7 22.5 150.3C24.3 148.3 25.3 150.8 26.4 151.8C32.1 156.9 37.7 162.1 43.3 167.2C44.6 168.4 45.9 169.9 47.9 168C53.1 163.4 59.7 161.3 65.8 158.3C68.8 156.9 71.6 155.1 74.4 153.5Z" fill="#595C0B"/>
<path d="M101.1 143.2C100.5 147.1 97.7 149.9 95.8 153.1C95.2 154.1 94.3 155.1 93 154.4C91.7 153.6 92.4 152.4 92.9 151.4C94.5 148.1 98 145.6 97.4 141.3C99.7 139.9 100.6 141.2 101.1 143.2Z" fill="#A359DB"/>
<path d="M105.3 151C104.9 154.6 104.2 158.2 102.6 161.5C102.1 162.5 101.7 163.9 100.2 163.4C98.7 162.9 99.1 161.5 99.5 160.5C100.7 157.4 101.5 154.2 101.6 150.9C101.7 149.4 102.6 148.5 104.3 148.6C104.6 149.4 104.9 150.2 105.3 151Z" fill="#A359DB"/>
<path d="M79 121.8C78.5 121.6 77.9 121.3 78.1 120.6C78.9 120.7 79 121.2 79 121.8Z" fill="#5A2A80"/>
<path d="M233.4 409.9C237.1 410.2 239.6 413.4 239.1 417.2C238.6 421.2 236 422.9 232.1 422.7C228.1 422.4 226.2 419.9 226.2 416C226.3 412.4 229.7 409.6 233.4 409.9Z" fill="#F7FAE0"/>
<path d="M142.1 417.4C142.2 418.6 142.2 419.5 141.2 419.8C139.7 420.2 139.2 419 138.8 417.9C137.2 413.4 135.6 408.9 134 404.3C132.7 400.7 131.4 397.1 130.2 393.5C129.9 392.5 129.7 391.4 130.8 390.8C131.9 390.2 132.8 390.9 133.1 391.9C136.2 400.5 139.2 409.1 142.1 417.4Z" fill="#EFEEE2"/>
<path d="M158.2 31.2001C158.2 33.1001 158.1 34.9001 158.1 36.8001C156.8 37.5001 154.7 37.8001 154.2 38.8001C150.4 47.1001 143.1 44.8001 136.6 44.8001C135.9 44.8001 135.1 44.8001 134.7 44.4001C132.4 42.3001 130.4 42.4001 128.2 44.6001C127.6 45.2001 126 45.8001 125.5 45.5001C121.6 42.7001 118.1 44.5001 114.2 45.4001C110.6 46.3001 108.6 43.2001 108.5 40.0001C108.5 35.9001 110.9 32.5001 113.8 29.6001C114.4 29.0001 115.3 28.7001 116 29.3001C117 30.0001 116.9 30.9001 116.2 31.9001C115 33.7001 113.8 35.4001 112.7 37.3001C112 38.6001 111.4 40.3001 112.9 41.4001C114.3 42.4001 115.7 41.5001 117 40.6001C118.6 39.6001 119.5 38.1001 120.2 36.3001C122.4 30.4001 129.6 27.1001 135.1 29.3001C136.6 29.9001 136.3 31.1001 136 32.2001C135.5 33.8001 134.7 35.3001 134.4 36.9001C133.9 39.1001 134.7 41.0001 137.1 41.4001C139.7 41.8001 139.9 39.8001 140.1 37.9001C140.7 33.3001 142.7 29.6001 147.7 28.7001C150.1 28.3001 152.6 28.7001 153.8 31.1001C155.4 34.7001 156.7 33.2001 158.2 31.2001ZM131 35.0001C131.2 33.2001 130.3 32.6001 129 32.7001C125.5 33.0001 123.7 35.1001 123.3 38.4001C123.1 40.0001 123.8 41.8001 125.5 41.6001C129.2 41.1001 129.5 37.4001 131 35.0001ZM145.7 33.5001C143.7 36.4001 141.9 38.7001 144.3 41.1001C145.9 42.7001 148 41.6001 148.9 39.9001C151 36.3001 146.2 36.5001 145.7 33.5001Z" fill="#F7FAE0"/>
<path d="M93 45.7C86.6 45.7 82.2 40.6 82.9 34.2C83.4 30.1 85.3 26.6 87.9 23.5C90.3 20.7 93.9 18.6 93.8 14.2C93.8 13.2 94.7 11.9 96.2 12.1C97.6 12.3 97.4 13.5 97.3 14.5C97.1 16.7 98.3 16.4 99.8 16.2C102.9 15.7 105.5 16.7 106.8 19.6C107.7 21.5 106.7 23.3 105.1 24.4C102.4 26.2 99.2 26.8 96.8 24.6C94 22 92.5 23.3 90.8 25.5C89.7 27 88.7 28.5 87.9 30.1C85.9 33.7 84.9 37.6 88.6 40.5C92.2 43.3 96 42.2 99.7 39.9C101.3 38.9 102.7 35.1 104.6 37.7C106.5 40.4 102.8 41.7 100.9 43.1C98.6 44.8 95.9 45.8 93 45.7ZM103 21C102.8 19.8 101.8 19.7 100.9 19.7C100 19.7 98.8 19.4 98.5 20.6C98.2 21.8 99.3 22.2 100.2 22.4C101.4 22.6 102.4 22.3 103 21Z" fill="#F7FAE0"/>
<path d="M118 19.6001C121.9 19.4001 123.5 21.0001 123.6 23.6001C123.7 26.0001 122.4 27.7001 119.7 27.8001C116.9 27.8001 115.4 26.5001 115.2 23.7001C115.1 21.1001 116.5 19.7001 118 19.6001Z" fill="#F7FAE0"/>
<path d="M328 423.6C327.4 419.9 327.1 416.1 323.3 413.8C322.1 413.1 321.4 411.5 320.8 410.1C319.4 407 319.5 403.9 322.2 401.5C324.9 399.2 328.4 399.5 330.4 401.7C334.7 406.5 337.9 404.8 341.2 400.9C341.6 400.4 342.2 400 342.8 399.8C346.6 398.1 349.1 395.7 348.2 391.1C348.1 390.6 348.3 390.1 348.5 389.6C349.5 386.1 350.3 382.1 355.2 382.4C358.5 382.6 361.3 386.8 360.5 391.3C359.9 394.6 360.8 395.8 363.7 397.3C369.7 400.3 371.9 405.7 371.2 412.3C370.1 412.6 369 413 367.8 413.3C368.1 405.6 365.8 400.9 359.9 399.6C356.2 398.8 355.6 397.3 356.7 394.1C357.1 393 356.9 391.8 356.9 390.6C356.9 388.8 357 386.4 354.6 386.4C352.4 386.4 351.7 388.8 352 390.6C353.1 396.9 350.7 400.9 344.6 402.8C344.3 402.9 344 403.1 343.8 403.3C341.3 405.2 339.4 408 336.2 408.8C332.2 409.9 331.2 405.6 328.4 404.3C327.2 403.8 326.1 402.8 324.7 403.9C323.4 405 323.1 406.3 323.6 407.9C324.1 409.4 324.6 411 326 411.6C330.9 413.8 331 418.1 331.2 422.5C330.3 423.5 329.1 423.5 328 423.6Z" fill="#97382F"/>
<path d="M430.2 387C431.1 387.1 432.1 387.2 433 387.3H432.9C432.9 388 432.9 388.6 432.9 389.3C430.6 390.7 427.8 390.9 425.9 392.9C423.6 395.2 422.1 394.6 420.5 392C418.1 388 414.6 384.9 409.8 384.6C405.5 384.4 405.6 382.6 406.9 379.6C407.4 378.6 407.6 377.4 407.7 376.2C407.9 374.8 407.6 373.5 406.3 372.8C404.8 372 403.3 372.4 402.2 373.7C401.3 374.7 400.3 375.9 400.2 377C399.8 381.7 397 384.2 393.3 386.5C388.5 389.4 387.6 393.2 389.6 398.5C390.6 401.2 392.1 403.5 394 405.6C392.9 406.7 391.5 406.5 390.1 406.5C389.1 404.8 388.1 403.1 387.2 401.3C383.4 393.2 384.7 387.8 392.1 383C394.5 381.4 396 379.7 396.5 376.9C396.9 374.7 397.9 372.8 399.6 371.3C401.8 369.4 404.2 368 407.3 369.3C410.5 370.6 411.3 373.3 410.8 376.2C410.3 379.6 410.8 381.7 414.6 382.4C416.1 382.7 417.9 383.7 418.8 385C422 389.6 425.8 389.5 430.2 387Z" fill="#97382F"/>
<path d="M390.2 406.5C391.6 406.5 393 406.7 394.1 405.6C397.1 406.4 400.2 402.4 403 405.9C402.9 406.7 402.7 407.5 402.6 408.2C394.1 408.7 386.2 412 378 414.1C362.4 418.1 346.9 422.4 331.4 426.5C328.8 427.2 326.3 427.8 327.9 423.6C329 423.5 330.2 423.5 331.1 422.5C335.9 422 340.5 420.7 345.1 419.2C349.5 416.9 354.6 417.2 359.1 415.3C362 414.6 364.8 413.9 367.7 413.3C368.8 413 369.9 412.6 371.1 412.3C377.5 410.4 384.2 409.5 390.2 406.5Z" fill="#5A2A80"/>
<path d="M439.4 367.2C434.7 366.8 430.1 366.3 425.4 365.9C422.9 362.9 419.2 360.8 417.8 356.7C417.7 356.4 416.6 356.4 416 356.2C416 354.8 416 353.3 416.1 351.9C416.4 351 416.7 350.1 417.1 349.2C419.1 349.4 420.2 350.9 421.6 352.1C423 353.4 424.7 354.6 426.3 352.9C428.2 350.9 426.6 349.3 425.1 347.9C423.9 346.8 422.5 346 421.1 345C422 343.6 423.1 342.4 423.8 340.9C427.3 333.3 427.3 333.3 435.4 335.3C434.9 338.2 434.4 341.1 433.8 344C433.2 346.8 432.2 349.6 436.4 350.5C440.4 351.3 442.9 349.9 443.7 346C444.4 342.8 444.6 339.5 445 336.2C445.3 335 445.6 333.8 445.9 332.6C447.3 330.9 449 330.6 450.7 331.9C452.5 333.2 452.7 335.2 452.4 337.3C451.9 340.8 449.3 343.5 449.3 347.1C449.2 348.7 448.9 350.4 449 352C449.3 359.5 446.6 364.8 439.4 367.2Z" fill="#F7AD8C"/>
<path d="M439.4 367.2C446.6 364.8 449.3 359.5 448.9 352.2C448.8 350.6 449.1 348.9 449.2 347.3C450.2 347.4 451.3 347.4 452 348.3C452 349.6 452 350.9 452 352.3C452 363.3 447.9 369.2 437.7 372.8C436.8 373.1 436.1 372.7 435.4 372.2C435.3 369.3 438.4 369.1 439.4 367.2Z" fill="#EE41FC"/>
<path d="M457.4 347.3C458 351.2 459.2 355 458.7 359.1C458.5 361.3 457.8 363.3 455.9 364.7C455.2 365.3 454.3 365.5 453.7 364.8C453.3 364.4 453.1 363.4 453.3 363.1C456.3 359 454.9 354.6 454.3 350.2C454.2 349.3 454.7 348.3 455 347.4C455.2 347.2 455.5 347.2 455.8 347.3C456.4 347.3 456.9 347.3 457.4 347.3Z" fill="#EE41FC"/>
<path d="M457.4 347.3C456.9 347.3 456.3 347.2 455.8 347.2C456.4 346.8 456.9 346.7 457.4 347.3Z" fill="#F7AD8C"/>
<path d="M364 327.2C356.8 327.2 350.2 332.6 349.3 339.2C349.1 340.7 348.9 342.6 350.6 343C352.5 343.5 352.3 341.5 352.6 340.3C354.2 334 357.6 331.1 364 330.4C365.4 330.3 367.6 331.1 367.4 328.8C367.4 326.8 365.3 327.4 364 327.2Z" fill="#5A2A80"/>
<path d="M351.4 371.4C356.4 370.2 358.9 365.6 362.7 362.9C365.8 360.7 368.4 357.9 371.4 355.5C378.5 349.5 391.8 348.1 399 354.3C394 358.9 389.1 363.7 383.9 368C375.1 375.2 365.2 377.9 354.2 373.4C353 372.9 351.9 372.5 351.4 371.4Z" fill="#1D1C4B"/>
<path d="M66.9 52.7001C66.5 54.0001 66.8 56.3001 64.7 56.4001C62.2 56.6001 63.3 54.3001 63.3 53.0001C63.2 48.3001 60.5 46.2001 56.2 45.6001C55.1 45.4001 53.5 45.6001 53.5 44.1001C53.5 42.1001 55.3 42.6001 56.5 42.5001C62 42.4001 66.9 47.1001 66.9 52.7001Z" fill="#97382F"/>
<path d="M403.1 405.9C400.2 402.4 397.1 406.4 394.2 405.6C392.3 403.5 390.8 401.1 389.8 398.5C387.8 393.2 388.7 389.4 393.5 386.5C397.2 384.2 400 381.7 400.4 377C400.5 375.8 401.6 374.6 402.4 373.7C403.5 372.5 404.9 372.1 406.5 372.8C407.9 373.5 408.1 374.8 407.9 376.2C407.7 377.3 407.5 378.5 407.1 379.6C405.8 382.6 405.7 384.4 410 384.6C414.8 384.9 418.3 388 420.7 392C422.3 394.7 423.8 395.3 426.1 392.9C428 390.9 430.9 390.7 433.1 389.3C433.5 389.3 433.8 389.4 434.2 389.4C435.2 390.7 436.2 392.1 437.2 393.4C434.9 394.5 432.6 396.2 430.2 396.6C425.7 397.4 425.1 399.7 426.4 403.4C421.7 403.9 417 404.5 412.3 405C412.2 403.1 412 401.4 413.6 399.6C415.7 397.1 413.3 395.3 411.4 394.1C409.6 393 407.2 392 406.2 395.1C405.5 397.4 403.4 397 401.9 397.8C400.6 398.5 398 398.4 398.8 400.7C399.4 402.3 401.6 401.7 402.8 401.2C407.2 399.4 409 400.7 408.5 405.4C406.4 405.5 404.7 405.7 403.1 405.9Z" fill="#1D1C4B"/>
<path d="M426.1 403.4C424.8 399.7 425.4 397.4 429.9 396.6C432.4 396.2 434.6 394.5 436.9 393.4C437.2 393.6 437.5 393.8 437.8 394C437.8 394.8 437.8 395.5 437.8 396.3C436.1 397.3 434.5 398.4 432.7 399.3C431.1 400.1 429.2 400.7 429.9 403.1C428.7 403.2 427.4 403.3 426.1 403.4Z" fill="#97382F"/>
<path d="M434 389.3C433.6 389.3 433.3 389.2 432.9 389.2C432.9 388.5 432.9 387.9 432.9 387.2C434 387.6 433.9 388.5 434 389.3Z" fill="#5A2A80"/>
<path d="M46.2 114.6C46.2 113.9 46.5 113.5 47.3 113.6C47.4 114.5 46.8 114.7 46.2 114.6Z" fill="#5A2A80"/>
<path d="M63.9999 87.1C63.4999 89.8 61.7999 91.5 58.8999 91.5C56.9999 91.5 54.1999 90.4 54.7999 89.1C56.0999 86.5 59.5999 86.2 62.3999 85.3C63.8999 84.8 63.8999 86 63.9999 87.1Z" fill="#EE41FC"/>
<path d="M444.9 336.3C444.5 339.6 444.3 342.9 443.6 346.1C442.8 350 440.2 351.5 436.3 350.6C432 349.7 433.1 346.8 433.7 344.1C434.3 341.2 434.8 338.3 435.3 335.4C438.5 335.7 441.7 336 444.9 336.3Z" fill="#1D1C4B"/>
<path d="M417.8 342.2C412.7 341.3 413.5 337.4 414.1 334.2C414.7 331.3 417 332.5 418.8 333.2C418.5 336.2 418.2 339.2 417.8 342.2Z" fill="#5A2A80"/>
<path d="M417.8 342.2C418.2 339.2 418.5 336.2 418.9 333.2C422.8 332.8 422.3 335.1 421.4 337.5C420.7 339.4 420.5 341.7 417.8 342.2Z" fill="#F7AD8C"/>
<path d="M256.7 189.3C256.9 188.8 256.9 188.3 257.2 187.9C258.6 185.8 259.5 183.1 262.2 182.1C262.4 182 263.2 182.6 263.2 182.8C263.3 186 260.7 187.5 258.9 189.6C258.6 190 258.1 190.1 257.6 190.4C257.4 190 257.1 189.6 256.7 189.3Z" fill="#A359DB"/>
<path d="M255.9 191.4C255.8 190.5 256.1 189.8 256.8 189.3C257.1 189.7 257.5 190 257.8 190.4C257.3 190.8 256.7 191.3 256.2 191.7L255.9 191.4Z" fill="#A359DB"/>
<path d="M256.1 191.6C255.9 191.8 255.8 192.1 255.6 192.3C255 191.8 255.3 191.5 255.9 191.4C255.9 191.4 256.1 191.6 256.1 191.6Z" fill="#A359DB"/>
<path d="M160.8 383.8C161.8 377.6 163.8 371.9 167.5 367C168.8 365.3 170.4 363.2 172.8 364.6C175.4 366.1 173.9 368.5 172.9 370.3C170 375.6 165.8 380.1 160.8 383.8Z" fill="#EFEEE2"/>
<path d="M194.6 392.9C190.2 389.9 186 386.6 183 382.2C181.7 380.4 179.7 378 182.3 376.1C184.7 374.2 186.2 377.1 187.4 378.5C190.8 382.6 193.7 387 195.4 392.1C195.1 392.4 194.8 392.6 194.6 392.9Z" fill="#EFEEE2"/>
<path d="M195.3 392.1C195.9 392.4 196.1 392.9 195.6 393.4C195.5 393.5 194.9 393.1 194.5 392.9C194.8 392.6 195.1 392.4 195.3 392.1Z" fill="#EFEEE2"/>
<path d="M408.1 405.3C408.7 400.6 406.8 399.3 402.4 401.1C401.2 401.6 399 402.3 398.4 400.6C397.6 398.3 400.2 398.4 401.5 397.7C403 396.9 405.1 397.4 405.8 395C406.8 391.9 409.2 392.9 411 394C412.9 395.2 415.3 397 413.2 399.5C411.6 401.3 411.8 403 411.9 404.9C410.7 405.1 409.4 405.2 408.1 405.3Z" fill="#97382F"/>
<path d="M429.9 403.1C429.3 400.6 431.1 400.1 432.7 399.3C434.4 398.4 436.1 397.3 437.8 396.3C438.4 400.2 442 403.1 441.8 407.4C438.3 404.7 434.7 402.3 429.9 403.1Z" fill="#1D1C4B"/>
<path d="M443.8 409.3C445.2 409.8 445.9 410.9 445.8 412.4C444 412.1 443.4 411 443.8 409.3Z" fill="#1D1C4B"/>
<path d="M441.8 407.3C442.2 407.7 442.5 408 442.9 408.4C442 408.5 441.8 408 441.8 407.3Z" fill="#1D1C4B"/>
<path d="M442.8 408.3C443.2 408.7 443.5 409 443.9 409.4C442.8 409.7 442.7 409.1 442.8 408.3Z" fill="#1D1C4B"/>
<path d="M519.4 414.2C516.7 413.7 512.8 413.4 512.4 409.4C512 405.7 515.5 404.4 518.7 403.5C518.9 403.5 519 403.4 519.2 403.4C524.4 402.4 529.3 404.5 529.6 407.8C529.7 410.6 524.4 414.2 519.4 414.2Z" fill="#F9FCE0"/>
<path d="M131 35.0001C129.6 37.3001 129.2 41.1001 125.5 41.6001C123.8 41.8001 123.1 40.0001 123.3 38.4001C123.8 35.1001 125.6 33.0001 129 32.7001C130.2 32.7001 131.2 33.2001 131 35.0001Z" fill="#7BB9D2"/>
<path d="M145.7 33.5C146.2 36.5 151 36.3 148.9 40C148 41.7 145.9 42.8 144.3 41.2C141.8 38.7 143.7 36.4 145.7 33.5Z" fill="#7BB9D2"/>
<path d="M103 21.0001C102.4 22.3001 101.4 22.6001 100.2 22.5001C99.1999 22.3001 98.1999 21.9001 98.4999 20.7001C98.7999 19.5001 99.9999 19.8001 100.9 19.8001C101.8 19.7001 102.8 19.8001 103 21.0001Z" fill="#7BB9D2"/>
<path d="M345.2 419.2C340.6 420.7 336 422 331.2 422.5C331.1 418.1 330.9 413.8 326 411.6C324.7 411 324.1 409.4 323.6 407.9C323 406.3 323.4 405 324.7 403.9C326 402.8 327.2 403.8 328.4 404.3C331.1 405.5 332.2 409.8 336.2 408.8C339.4 408 341.3 405.1 343.8 403.3C344.1 403.1 344.3 402.9 344.6 402.8C350.7 400.9 353.1 396.9 352 390.6C351.7 388.8 352.4 386.5 354.6 386.4C357.1 386.4 356.9 388.8 356.9 390.6C356.9 391.8 357 393 356.7 394.1C355.6 397.3 356.2 398.7 359.9 399.6C365.8 400.9 368.1 405.6 367.8 413.3C364.9 414 362.1 414.7 359.2 415.3C357.3 412.8 353.1 414.1 351.9 410.3C350.8 406.7 348 408 346 409.2C344.1 410.4 341.3 412 344.8 414.7C346.6 416.1 345 417.7 345.2 419.2Z" fill="#1D1C4B"/>
<path d="M416 356.2C416.6 356.4 417.7 356.4 417.8 356.7C419.1 360.8 422.8 362.8 425.4 365.9C424.9 366.9 424.6 368.1 423.2 368.2C419.7 368.5 417.2 366.7 415.7 363.8C414.4 361.3 412.2 358.6 416 356.2Z" fill="#1D1C4B"/>
<path d="M345.2 419.2C345 417.7 346.6 416 344.8 414.6C341.3 411.9 344.1 410.3 346 409.1C348 407.9 350.8 406.6 351.9 410.2C353.1 414 357.4 412.7 359.2 415.2C354.7 417.3 349.6 416.9 345.2 419.2Z" fill="#97382F"/>
<path d="M364 327.2C365.2 327.4 367.4 326.8 367.5 328.8C367.6 331.1 365.4 330.2 364.1 330.4C357.7 331.1 354.3 334 352.7 340.3C352.4 341.5 352.5 343.5 350.7 343C349 342.6 349.2 340.7 349.4 339.2C350.3 332.6 356.8 327.2 364 327.2Z" fill="#F8AFFC"/>
</svg>
