<svg width="736" height="226" viewBox="0 0 736 226" fill="none" xmlns="http://www.w3.org/2000/svg">
<path d="M203.971 89.073C210.983 77.4929 217.527 65.5998 222.514 53.0808C229.837 34.4587 244.017 23.1916 267.702 32.1114C285.933 49.1686 300.268 69.6685 316.473 88.6035C331.12 105.817 344.365 123.97 360.103 140.245C354.338 148.069 345.923 153.077 339.067 159.806C325.667 173.107 323.018 190.947 332.055 207.691C337.197 217.237 346.079 221.775 355.428 226C308.215 226 261.001 226 213.788 226C218.618 223.027 223.916 220.21 225.163 213.794C231.551 196.267 238.252 178.897 242.303 160.588C258.82 160.432 275.337 160.432 291.854 160.275C293.879 160.275 297.463 161.214 297.307 157.771C297.152 154.641 293.724 155.58 291.542 155.58C275.493 155.58 259.443 155.58 243.549 155.58C245.575 150.886 247.445 146.035 249.471 141.34C251.185 141.34 252.587 140.871 253.366 139.306C257.885 129.76 265.208 122.405 271.909 114.581C291.386 91.8898 283.907 63.2525 272.532 47.6037C270.974 45.5694 269.26 41.6572 266.143 44.3175C263.339 46.6648 267.234 48.6991 268.169 50.8899C268.792 51.9854 269.727 52.9243 270.35 54.1762C280.167 71.2334 282.972 94.0806 268.169 110.668C260.69 118.962 253.366 127.256 248.068 137.271C228.746 130.386 209.425 123.657 190.103 116.771C194.466 107.539 199.296 98.3058 203.971 89.073Z" fill="#97382F"/>
<path d="M583.052 146.361C585.24 135.764 587.741 125.167 589.617 114.415C590.711 108.649 593.055 106 599.464 106C641.824 106.156 684.184 106 726.543 106.156C734.359 106.156 736.235 108.337 734.515 116.285C727.481 150.412 720.135 184.695 713.257 218.823C712.163 224.277 709.818 226.147 704.504 225.991C686.841 225.679 669.178 225.835 651.515 225.835C593.524 225.835 535.534 225.835 477.543 225.835C474.26 225.835 470.821 226.303 467.695 224.121C464.413 219.29 466.601 216.018 470.665 213.057C473.479 212.434 476.292 214.771 478.95 212.589C491.454 213.992 503.959 213.213 516.464 213.057C520.997 213.057 525.53 212.901 530.219 212.901C532.251 212.901 534.127 212.901 536.159 212.901C537.878 212.901 539.598 212.901 541.317 212.901C542.88 212.901 544.287 212.901 545.85 212.901C546.944 212.901 547.882 212.901 548.976 212.901C551.79 213.057 554.603 213.213 557.417 213.213C569.765 213.213 569.765 213.213 571.641 200.746C571.954 199.188 572.11 197.63 572.423 196.071C576.018 179.553 579.456 162.879 583.052 146.361ZM605.091 113.012C605.091 111.454 605.56 108.961 603.215 108.805C599.62 108.493 599.62 112.077 599.151 114.415C592.117 148.542 585.24 182.67 578.206 216.797C577.737 219.29 576.018 222.563 579.456 223.342C583.208 224.121 582.739 220.381 583.208 218.044C587.272 198.876 591.336 179.709 595.244 160.541C598.682 144.646 601.809 129.063 605.091 113.012ZM654.485 185.319C656.361 185.475 659.487 185.319 662.3 184.072C668.396 181.423 674.023 177.995 673.555 170.203C673.086 162.879 667.615 159.918 661.05 158.516C660.112 158.36 659.018 157.892 658.08 157.736C651.202 156.646 640.261 161.788 637.447 167.398C632.914 176.904 640.104 185.163 654.485 185.319Z" fill="#F9FCE0"/>
<path d="M242.103 160.426C238.048 178.736 231.341 196.108 224.946 213.636C195.467 213.48 165.989 213.323 136.51 213.48C128.088 213.48 121.537 210.819 115.61 205.185C110.775 200.49 105.94 195.795 100.481 191.883C93.15 186.562 88.4709 187.344 81.7641 193.291C71.47 202.525 73.4976 215.671 86.7552 226C76.1491 226 65.699 226 55.0929 226C46.5145 199.708 38.7159 173.102 29.0457 147.123C24.5225 134.759 25.1464 124.117 31.3852 113.006C35.2845 105.963 37.936 98.4511 37.4681 90C45.5787 96.2601 52.2855 103.929 61.0199 109.563C69.1304 117.075 77.3969 124.274 87.2231 129.438C86.4433 132.725 85.6634 136.012 84.7276 139.142C84.2596 140.707 84.1037 142.115 85.5074 143.367C87.3791 145.089 88.9388 143.837 90.3426 142.898C93.618 140.394 96.7374 137.733 100.013 135.229C105.16 137.89 111.087 137.733 116.546 139.142C127.464 141.959 129.335 146.341 124.5 156.67C119.977 159.643 115.298 159.174 110.307 157.922C103.444 156.2 96.8934 153.227 89.0948 152.914C92.0582 161.678 94.8657 169.816 97.3613 177.954C98.4531 181.71 100.013 182.336 103.288 180.302C115.142 172.789 127.308 165.903 138.382 157.139C140.098 155.731 141.969 154.166 143.685 152.757C146.492 154.479 149.456 156.2 152.263 157.922C153.667 158.704 155.071 159.487 156.475 158.391C158.034 157.139 157.254 155.574 156.787 154.166C155.383 150.566 153.823 146.967 152.419 143.524C153.043 142.428 153.823 141.333 154.447 140.237C157.722 136.951 159.282 132.412 161.622 128.499C168.016 117.701 174.723 117.388 181.898 127.56C182.834 137.577 174.411 143.054 170.512 150.723C169.42 152.914 166.145 154.948 167.237 157.296C168.484 159.956 171.916 158.391 174.255 158.391C196.559 158.704 218.707 158.861 241.011 159.017C241.635 159.487 241.791 159.956 242.103 160.426ZM206.23 173.728C200.459 173.259 195.156 177.641 195.156 183.275C195.156 189.222 198.119 193.291 204.358 193.761C210.285 194.23 214.34 191.57 215.276 185.153C215.9 179.206 211.845 174.198 206.23 173.728ZM63.8274 185.466C59.3042 172.476 54.625 159.017 49.7899 145.558C49.166 143.993 47.9182 142.898 46.2026 143.837C44.6428 144.776 44.7988 146.497 45.2667 148.062C47.1384 153.696 49.166 159.33 51.1936 164.964C53.6892 172.007 56.1847 179.206 58.6803 186.249C59.3042 187.97 60.084 189.848 62.4236 189.222C63.9833 188.753 63.9833 187.344 63.8274 185.466Z" fill="#1201FD"/>
<path d="M470.611 213.474C466.564 216.287 464.385 219.726 467.653 224.571C466.097 226.603 463.918 225.821 461.894 225.977C454.112 221.289 451.466 215.506 457.069 207.222C459.248 203.94 457.848 200.189 455.202 197.219C452.4 194.249 447.263 193.155 445.396 195.187C435.59 205.815 421.581 211.755 413.021 223.789C412.554 224.414 412.554 225.352 412.398 225.977C393.564 225.977 374.575 225.977 355.742 225.977C346.558 221.757 337.531 217.381 332.394 207.691C323.367 190.967 326.013 173.149 339.399 159.864C346.247 153.144 354.652 148.142 360.411 140.327C370.528 134.701 377.533 125.167 387.183 119.227C392.319 121.572 397.456 123.916 403.215 124.698C422.204 127.198 437.302 119.54 450.688 106.88C457.069 100.941 462.517 93.9074 470.611 90C472.946 92.657 475.436 95.3141 477.771 98.1274C489.289 111.725 502.986 123.291 513.103 138.139C506.254 142.047 500.495 142.203 495.515 134.857C494.269 132.981 491.468 131.262 488.977 130.793C483.063 129.699 482.284 126.417 483.063 121.103C483.841 116.57 482.596 112.35 477.615 110.318C472.79 108.443 469.054 110.475 465.63 113.444C462.984 115.789 461.427 118.758 460.805 122.197C460.027 126.573 457.692 129.23 453.956 131.731C442.438 139.233 440.259 147.673 446.33 160.333C447.575 163.146 449.287 165.804 450.843 168.461C441.504 173.149 431.076 174.556 421.114 177.526C422.048 167.21 418.78 158.926 409.441 154.081C404.927 151.893 403.682 150.018 404.46 144.704C405.705 137.67 401.347 131.106 396.21 130.793C388.584 130.324 387.338 136.576 385.782 142.047C385.626 142.828 385.315 143.61 385.315 144.391C386.716 151.581 382.825 155.332 376.91 157.989C375.976 158.458 375.042 159.083 374.42 159.708C369.283 165.804 364.302 168.461 357.609 160.958C354.496 157.52 349.049 156.895 344.846 160.646C340.488 164.397 340.488 169.242 342.667 174.087C343.601 176.119 344.691 178.776 346.558 179.87C352.473 183.465 352.94 189.404 353.874 195.187C351.384 201.752 355.119 200.97 359.322 199.72C383.447 193.155 407.573 186.591 431.854 180.339C444.617 177.057 456.758 171.899 470.144 171.118C470.299 185.184 470.455 199.407 470.611 213.474Z" fill="#1D1C4B"/>
<path d="M496.73 43.9222C475.895 42.5088 472.292 22.2506 479.498 10.3155C485.764 -0.0491486 504.562 -4.13222 510.985 5.29021C518.661 16.5971 529.157 15.1838 539.496 16.7542C542.629 17.2253 545.606 17.8535 548.739 17.8535C564.404 17.8535 576.31 38.4258 568.791 54.9151C565.344 62.453 561.584 69.6768 560.175 78C558.921 76.9007 557.668 75.9585 555.945 76.2726V76.4296C555.162 75.4874 554.378 75.4874 553.438 76.2726C552.968 76.1156 552.655 76.1155 552.185 76.4296C550.619 76.9007 548.895 77.3718 547.329 78C546.232 76.5866 544.509 76.4296 542.943 76.4296C542.943 70.7761 547.016 66.379 547.799 61.0396C548.269 57.7418 547.956 54.601 545.136 52.5594C542.473 50.5179 539.81 51.1461 537.616 53.6587C532.134 53.0305 526.337 53.6587 521.011 51.6172C518.505 40.7814 510.515 38.2688 496.73 43.9222Z" fill="#1D1C4B"/>
<path d="M37.3875 90.3874C37.8578 98.6575 35.1927 106.147 31.2733 113.325C25.1591 124.404 24.3752 134.859 28.9217 147.342C38.6417 173.245 46.4804 199.772 55.103 225.987C46.0101 226.299 40.2094 221.149 37.5443 213.191C25.1591 176.99 13.2442 140.476 1.01581 104.275C-1.64936 96.1609 1.79968 90.0753 7.75712 85.2381C14.4984 79.7766 23.121 79.6206 30.3327 84.6139C32.8411 86.1743 35.0359 88.3588 37.3875 90.3874Z" fill="#021B32"/>
<path d="M86.6481 226C73.3652 215.723 71.3337 202.284 81.6475 192.956C88.3671 186.948 93.0552 186.316 100.4 191.533C105.869 195.486 110.714 200.387 115.558 204.972C121.496 210.664 128.216 213.352 136.498 213.352C166.033 213.194 195.568 213.51 225.103 213.51C223.853 219.992 218.54 222.68 213.695 225.842C171.503 226 128.997 226 86.6481 226Z" fill="#021B32"/>
<path d="M471.013 89.7026C462.866 93.6242 457.383 100.683 450.96 106.644C437.486 119.35 422.289 127.036 403.176 124.527C397.379 123.742 392.209 121.389 387.039 119.036C366.672 105.232 358.996 87.977 363.226 65.8591C367.299 45.153 382.496 29.1527 402.549 25.0743C421.036 21.4664 436.546 26.9566 448.609 41.3882C453.936 47.6628 458.793 54.5648 463.963 61.1532C471.013 70.0944 479.943 75.8984 491.38 77.3102C492.006 77.7808 492.476 78.2514 493.103 78.8789C492.633 80.2906 492.163 81.7024 491.536 83.1142C484.33 83.5848 476.966 84.526 471.013 89.7026ZM464.746 86.7221C468.82 84.3691 472.893 82.0162 477.906 79.1926C471.483 75.7416 466.47 72.1337 462.396 67.2709C458.48 62.4081 454.72 57.3884 450.96 52.3687C444.693 43.898 437.956 35.8979 427.773 32.1332C398.789 21.1526 368.552 42.6431 367.456 75.1141C366.829 92.2124 376.072 107.585 390.173 113.546C391.113 115.271 392.679 116.056 394.403 116.683C411.793 123.742 427.146 119.507 440.933 108.213C449.393 101.467 456.913 93.9379 464.746 86.7221Z" fill="#F8AFFC"/>
<path d="M583.103 146.298C579.527 162.917 576.106 179.536 572.53 196C566.932 194.913 562.579 191.496 558.536 188.079C546.563 178.294 535.057 167.732 532.103 151.423C550.451 150.802 562.268 139.309 561.646 123C568.798 130.766 575.951 138.532 583.103 146.298Z" fill="#1D1C4B"/>
<path d="M561.287 122.724C561.915 138.948 549.987 150.227 531.467 151C529.27 150.227 527.229 149.3 525.032 148.528C524.561 148.219 524.09 147.91 523.619 147.601C522.05 145.592 520.481 143.429 518.911 141.42C518.754 140.184 519.068 138.639 517.342 138.175H517.499C517.499 130.14 515.301 121.797 521.265 114.689C522.364 115.462 523.463 116.08 524.875 115.616C540.884 110.054 547.319 100.937 547.319 83.9405C547.319 81.9318 547.319 79.9231 547.319 77.7599C548.888 77.2964 550.615 76.8328 552.184 76.2148C551.87 77.6054 550.929 79.1505 551.086 80.5412C552.027 87.3398 554.224 94.1385 549.516 100.474C549.202 100.937 549.516 102.482 550.144 103.1C551.085 104.182 552.498 103.873 553.597 102.946C556.422 100.783 557.52 97.6923 557.991 94.293C558.619 88.1124 556.893 82.0863 555.951 76.0603C557.677 75.7512 558.933 76.6783 560.189 77.7599C564.583 85.3312 563.484 92.9024 560.345 100.628C557.206 108.354 556.422 115.771 561.287 122.724Z" fill="#F7AD8C"/>
<path d="M521.522 51.5237C526.84 53.5038 532.628 52.8945 538.103 53.5038C537.634 55.3316 537.164 57.1593 536.695 58.9871C531.69 58.5301 526.684 57.9209 521.678 57.4639C509.008 54.5699 509.164 54.57 503.533 65.9935C502.438 68.2782 500.717 70.106 499.309 72.2384C496.806 72.5431 494.147 72.6954 491.644 73C482.728 68.5829 479.443 58.6824 484.449 50.6098C487.421 45.7357 492.583 49.3913 496.65 48.3251C504.784 50.3051 513.075 51.3714 521.522 51.5237ZM494.304 67.9736C498.527 67.2121 498.84 63.7088 499.935 60.8149C501.343 57.1593 502.125 53.6561 496.024 54.2654C493.209 53.1992 489.454 51.3714 488.672 55.7885C487.577 60.6626 486.326 66.6028 494.304 67.9736Z" fill="#595C0B"/>
<path d="M453.103 225.846C441.384 225.846 429.822 225.846 418.103 226C418.572 222.607 420.916 220.447 423.884 219.213C431.541 216.128 438.884 213.044 442.009 204.252C443.103 201.321 446.697 198.699 450.291 200.704C454.509 203.018 453.103 207.337 450.916 210.113C446.228 216.283 447.478 221.218 453.103 225.846Z" fill="#1D1C4B"/>
<path d="M452.826 226C447.166 221.286 445.908 216.257 450.625 209.815C452.669 206.986 454.241 202.586 449.996 200.229C446.38 198.187 442.606 200.858 441.663 203.844C438.518 212.8 431.285 215.943 423.424 219.086C420.436 220.343 418.235 222.543 417.606 226C415.719 226 413.99 226 412.103 226C412.26 225.214 412.26 224.271 412.732 223.8C421.38 211.7 435.531 205.886 445.436 195.044C447.323 193.001 452.512 194.101 455.342 197.087C458.015 199.915 459.587 203.844 457.229 207.143C451.568 215.629 454.241 221.286 462.103 226C459.116 226 455.971 226 452.826 226Z" fill="#97382F"/>
<path d="M521.103 51C512.666 50.8507 504.384 49.8055 496.103 47.8645C496.259 46.5207 496.259 45.0276 496.415 43.6838C510.165 38.4579 518.134 40.8469 521.103 51Z" fill="#F7AD8C"/>
<path d="M491.408 72.801C493.843 72.4806 496.431 72.3204 498.867 72C500.846 73.6019 502.977 74.8835 504.956 76.6456C507.24 78.7282 509.676 81.4515 506.783 84.6554C504.347 87.3787 501.759 85.4564 499.628 83.3738C497.649 81.4515 495.822 79.0486 492.778 78.7282C492.169 78.2476 491.712 77.767 491.103 77.1263C491.255 75.8447 491.408 74.2427 491.408 72.801Z" fill="#1D1C4B"/>
<path d="M138.103 157.147C127.249 165.748 114.999 172.507 103.214 179.879C99.9575 181.876 98.4068 181.262 97.3214 177.575C94.8404 169.588 92.0492 161.601 89.103 153C96.7011 153.307 103.369 156.225 110.192 157.915C115.154 159.144 119.806 159.605 124.302 156.686C128.954 156.84 133.606 156.993 138.103 157.147Z" fill="#EE41FC"/>
<path d="M99.7388 135.035C96.4596 137.675 93.3365 140.159 90.0572 142.644C88.6518 143.731 87.0903 144.818 85.2164 143.11C83.811 141.868 83.9672 140.47 84.4356 138.917C85.2164 135.656 85.9972 132.394 86.9341 129.288C88.808 124.319 90.6818 119.194 92.868 114.225C94.5857 110.031 96.7719 105.838 100.051 102.422C104.267 97.9181 109.264 94.9675 115.042 98.6947C121.132 102.732 119.258 108.634 116.604 113.914C112.387 122.145 105.517 128.201 99.7388 135.035ZM92.7118 132.705C100.52 126.959 107.078 119.971 111.763 111.584C113.324 108.789 115.667 105.062 111.607 102.732C107.859 100.558 105.36 103.82 103.33 106.46C97.3965 114.225 94.1172 123.077 92.7118 132.705Z" fill="#021B32"/>
<path d="M152.171 143.701C153.546 147.266 155.074 150.831 156.45 154.24C157.061 155.635 157.672 157.34 156.144 158.425C154.769 159.51 153.241 158.89 152.018 157.96C149.267 156.255 146.364 154.55 143.614 152.846C138.418 148.351 133.222 144.011 128.18 139.207C124.971 136.262 122.373 132.697 120.998 128.513C119.317 123.863 119.775 119.059 124.359 116.269C128.332 113.634 132 115.494 135.362 118.284C140.71 123.088 144.225 129.288 147.739 135.642C149.115 138.432 150.643 141.067 152.171 143.701ZM145.6 147.421C146.211 147.731 147.128 148.351 147.281 148.196C148.045 147.421 147.739 146.646 146.823 146.181C144.225 138.277 139.793 131.458 134.598 125.103C132.764 122.933 130.472 118.439 126.804 121.383C122.831 124.328 126.04 128.048 127.874 130.838C132.458 137.657 138.876 142.772 145.6 147.421Z" fill="#021B32"/>
<path d="M181.688 127.809C184.341 124.257 186.838 120.706 189.491 117C208.841 123.794 228.192 130.434 247.542 137.228C248.011 138.618 248.479 140.162 249.103 141.551C247.074 146.184 245.202 150.971 243.173 155.603C242.549 156.684 241.769 157.919 241.144 159C218.829 158.846 196.669 158.691 174.353 158.382C171.857 158.382 168.423 159.772 167.331 157.301C166.239 154.985 169.36 152.978 170.608 150.816C174.197 143.096 182.78 137.691 181.688 127.809Z" fill="#EE41FC"/>
<path d="M249.667 141C249.198 139.595 248.729 138.034 248.103 136.629C253.421 126.793 260.93 118.519 268.282 110.089C283.142 93.54 280.326 70.7467 270.472 53.7298C269.846 52.637 268.907 51.7003 268.282 50.4514C267.187 48.4218 263.433 46.2362 266.248 43.8944C269.377 41.2404 271.254 45.1434 272.662 47.1729C284.081 62.7847 291.589 91.3544 272.036 113.992C265.31 121.797 257.801 129.135 253.421 138.658C252.952 140.532 251.388 141 249.667 141Z" fill="#5A2A80"/>
<path d="M241.103 158.478C241.729 157.412 242.511 156.194 243.136 155.128C259.247 155.128 275.357 154.976 291.311 155.128C293.5 155.128 296.941 154.215 297.098 157.26C297.254 160.609 293.813 159.696 291.624 159.696C275.044 159.848 258.465 159.848 241.885 160C241.572 159.543 241.416 159.087 241.103 158.478Z" fill="#5A2A80"/>
<path d="M470.418 213.616C470.26 199.507 470.103 185.398 470.103 171.289C470.26 170.034 470.575 168.78 470.733 167.683C473.408 167.369 475.926 167.056 478.601 166.742C480.647 166.586 482.693 166.429 484.738 166.272C492.135 165.488 499.531 164.548 506.928 163.764C508.974 163.607 510.862 163.45 512.908 163.293C520.462 161.883 526.127 165.802 531.635 169.878V169.721C531.635 170.818 531.95 171.602 533.366 171.445L533.209 171.289C533.051 172.543 533.051 173.64 534.94 173.013L534.782 172.856C534.153 175.521 535.097 177.246 537.93 177.716H537.772C541.235 189.787 547.057 200.918 549.103 213.459C548.001 213.459 547.057 213.459 545.956 213.459C543.595 202.172 535.412 193.863 530.691 183.83C529.746 181.635 528.487 177.873 525.34 179.597C522.035 181.322 524.711 184.143 525.97 186.338C531.163 195.431 536.356 204.366 541.549 213.459C539.818 213.459 538.087 213.459 536.356 213.459C532.107 203.426 524.081 196.371 516.999 188.533C515.583 186.808 513.537 184.143 511.334 186.181C508.344 189.003 511.964 190.728 513.537 192.295C519.675 199.036 525.812 205.621 530.691 213.459C526.127 213.459 521.563 213.616 516.842 213.616C514.009 210.637 510.862 207.815 508.344 204.523C504.725 199.663 501.105 199.663 496.384 202.956C490.876 206.875 485.525 211.107 478.916 213.145C476.083 215.183 473.093 212.832 470.418 213.616Z" fill="#F7AD8C"/>
<path d="M605.06 112.537C601.739 128.475 598.576 144.258 595.254 159.884C591.3 179.104 587.188 198.324 583.076 217.545C582.601 219.888 582.918 223.795 579.28 222.857C575.8 222.076 577.382 218.795 578.015 216.294C585.132 182.073 592.091 147.852 599.208 113.631C599.683 111.287 599.683 107.849 603.321 108.005C605.535 108.474 605.06 111.13 605.06 112.537Z" fill="#F8AFFC"/>
<path d="M549.052 213.658C547.075 201.303 541.449 190.042 538.103 178C542.513 179.408 544.49 183.787 547.684 186.602C554.831 192.857 561.827 199.113 571.103 201.459C569.278 214.127 569.278 214.127 557.264 213.97C554.527 213.97 551.79 213.814 549.052 213.658Z" fill="#1D1C4B"/>
<path d="M654.137 185C639.972 185 632.889 176.66 637.508 166.905C640.28 161.24 651.058 156.047 657.833 157.149C658.757 157.306 659.834 157.778 660.758 157.935C667.225 159.352 672.614 162.184 673.076 169.737C673.538 177.447 667.995 180.909 661.99 183.741C659.065 185 655.985 185 654.137 185ZM652.598 180.122C660.45 179.965 668.457 174.457 668.149 170.052C667.687 164.859 660.142 161.555 652.136 163.128C651.828 163.128 651.674 163.285 651.366 163.285C646.439 164.702 641.204 166.747 641.666 172.569C642.281 178.863 648.44 179.335 652.598 180.122Z" fill="#F8AFFC"/>
<path d="M571.322 201C561.641 198.665 554.458 192.437 547.276 186.21C543.997 183.407 541.967 179.204 537.439 177.647H537.595C537.751 175.311 536.658 173.755 534.472 172.82L534.628 172.976C534.003 172.353 533.535 171.886 532.91 171.264L533.066 171.419C532.442 170.796 531.973 170.329 531.349 169.707V169.862C531.661 163.323 526.04 158.808 525.103 152.581C525.103 151.335 525.103 150.246 525.103 149C527.289 149.778 529.319 150.713 531.505 151.491C534.628 167.838 546.027 178.269 558.05 188.234C562.11 191.659 566.482 195.084 572.103 196.174C571.947 197.886 571.635 199.443 571.322 201Z" fill="#5A2A80"/>
<path d="M479.103 213.245C485.725 211.084 491.086 206.596 496.605 202.44C501.178 198.95 504.962 198.95 508.589 204.103C510.954 207.593 514.265 210.585 517.103 213.743C504.331 213.743 491.717 214.575 479.103 213.245Z" fill="#1D1C4B"/>
<path d="M540.923 212.884C535.996 203.902 531.069 195.075 526.142 186.093C524.948 184.08 522.559 181.137 525.545 179.434C528.531 177.73 529.576 181.447 530.621 183.615C535.1 193.526 542.864 201.734 545.103 212.884C543.759 213.039 542.416 213.039 540.923 212.884Z" fill="#EE41FC"/>
<path d="M530.474 213C525.784 205.165 519.53 198.584 513.432 191.846C511.868 190.122 508.272 188.399 511.243 185.735C513.588 183.698 515.464 186.362 516.872 188.085C523.907 195.92 531.881 203.128 536.103 213C534.383 213 532.351 213 530.474 213Z" fill="#EE41FC"/>
<path d="M206.211 174.034C211.919 174.502 215.776 179.487 215.005 185.407C214.234 191.639 210.222 194.287 204.205 193.975C198.034 193.508 195.103 189.613 195.103 183.538C195.257 177.929 200.503 173.567 206.211 174.034Z" fill="#F7FAE0"/>
<path d="M64.0371 185.193C64.1931 187.036 64.1931 188.418 62.6329 188.879C60.2927 189.493 59.5127 187.65 58.8886 185.961C56.3924 179.05 53.8962 172.139 51.4 165.074C49.3718 159.545 47.3437 154.016 45.4715 148.488C45.0035 146.952 44.6915 145.262 46.4076 144.341C48.1238 143.419 49.5279 144.495 49.9959 146.03C54.8323 159.238 59.5127 172.446 64.0371 185.193Z" fill="#EFEEE2"/>
<path d="M353.691 195C352.757 189.255 352.29 183.354 346.377 179.783C344.51 178.696 343.421 176.211 342.488 174.037C340.309 169.224 340.465 164.41 344.666 160.683C348.867 157.112 354.313 157.578 357.425 160.994C364.115 168.447 369.095 165.807 374.229 159.751C374.852 158.975 375.785 158.354 376.719 158.043C382.631 155.404 386.521 151.677 385.121 144.534C384.965 143.758 385.277 142.981 385.588 142.205C387.144 136.77 388.389 130.559 396.013 131.025C401.147 131.335 405.504 137.857 404.259 144.845C403.326 149.969 404.726 151.832 409.238 154.161C418.574 158.82 421.997 167.205 420.908 177.453C419.197 177.919 417.485 178.54 415.618 179.006C416.085 167.05 412.506 159.751 403.326 157.733C397.569 156.491 396.635 154.161 398.347 149.192C398.969 147.484 398.658 145.621 398.658 143.758C398.658 140.963 398.814 137.236 395.079 137.236C391.656 137.236 390.567 140.963 391.034 143.758C392.745 153.54 389.011 159.751 379.52 162.702C379.053 162.857 378.586 163.168 378.275 163.478C374.385 166.428 371.429 170.776 366.449 172.019C360.226 173.727 358.67 167.05 354.313 165.031C352.446 164.255 350.734 162.702 348.556 164.41C346.533 166.118 346.066 168.137 346.844 170.621C347.622 172.95 348.4 175.435 350.579 176.366C358.203 179.783 358.358 186.46 358.67 193.292C357.269 194.845 355.402 194.845 353.691 195Z" fill="#97382F"/>
<path d="M513.717 137.994C515.127 138.148 516.693 138.302 518.103 138.455H517.946C517.946 139.532 517.946 140.454 517.946 141.531C514.343 143.683 509.957 143.991 506.98 147.066C503.377 150.603 501.027 149.68 498.521 145.682C494.761 139.532 489.278 134.765 481.758 134.304C475.022 133.996 475.178 131.228 477.215 126.616C477.998 125.078 478.311 123.233 478.468 121.388C478.781 119.235 478.311 117.236 476.275 116.16C473.925 114.929 471.575 115.544 469.852 117.543C468.442 119.081 466.875 120.926 466.719 122.618C466.092 129.845 461.705 133.689 455.909 137.225C448.389 141.684 446.98 147.527 450.113 155.677C451.679 159.829 454.029 163.365 457.006 166.594C455.282 168.286 453.089 167.978 450.896 167.978C449.329 165.364 447.763 162.75 446.353 159.982C440.4 147.527 442.436 139.224 454.029 131.844C457.789 129.383 460.139 126.769 460.922 122.464C461.549 119.081 463.115 116.16 465.779 113.853C469.225 110.932 472.985 108.779 477.841 110.778C482.855 112.777 484.108 116.928 483.325 121.388C482.541 126.616 483.325 129.845 489.278 130.921C491.628 131.382 494.447 132.92 495.857 134.919C500.87 141.992 506.824 141.838 513.717 137.994Z" fill="#97382F"/>
<path d="M451.125 168.195C453.31 168.195 455.495 168.506 457.212 166.799C461.894 168.04 466.733 161.834 471.103 167.264C470.947 168.506 470.635 169.747 470.479 170.833C457.212 171.609 444.882 176.729 432.084 179.988C407.735 186.194 383.543 192.866 359.351 199.227C355.293 200.313 351.391 201.244 353.889 194.728C355.605 194.573 357.478 194.573 358.883 193.021C366.375 192.245 373.554 190.228 380.734 187.901C387.601 184.332 395.561 184.797 402.585 181.849C407.111 180.763 411.481 179.677 416.008 178.746C417.724 178.281 419.441 177.66 421.314 177.195C431.303 174.247 441.76 172.85 451.125 168.195Z" fill="#5A2A80"/>
<path d="M527.631 107C520.294 106.38 513.114 105.604 505.777 104.984C501.874 100.331 496.098 97.0737 493.913 90.7147C493.757 90.2494 492.04 90.2494 491.103 89.9392C491.103 87.7678 491.103 85.4413 491.259 83.2699C491.727 81.8741 492.196 80.4782 492.82 79.0823C495.942 79.3925 497.659 81.719 499.845 83.5802C502.03 85.5964 504.684 87.4576 507.182 84.8209C510.148 81.719 507.65 79.2374 505.308 77.066C503.435 75.3599 501.25 74.1192 499.064 72.5682C500.469 70.3968 502.186 68.5356 503.279 66.2091C508.743 54.4217 508.743 54.4217 521.387 57.5236C520.606 62.0215 519.826 66.5193 518.889 71.0172C517.953 75.3599 516.392 79.7027 522.948 81.0986C529.192 82.3394 533.095 80.168 534.344 74.1192C535.436 69.156 535.748 64.0378 536.373 58.9195C536.841 57.0584 537.309 55.1972 537.778 53.336C539.963 50.6993 542.617 50.234 545.271 52.2503C548.081 54.2666 548.393 57.3685 547.924 60.6256C547.144 66.054 543.085 70.2417 543.085 75.8252C542.929 78.3068 542.461 80.9435 542.617 83.4251C543.085 95.0574 538.87 103.278 527.631 107Z" fill="#F7AD8C"/>
<path d="M527.371 107.09C538.646 103.34 542.875 95.0601 542.248 83.6553C542.092 81.1556 542.562 78.4997 542.718 76C544.284 76.1562 546.007 76.1562 547.103 77.5623C547.103 79.5933 547.103 81.6243 547.103 83.8115C547.103 100.997 540.682 110.214 524.709 115.839C523.299 116.307 522.203 115.682 521.107 114.901C520.95 110.371 525.805 110.058 527.371 107.09Z" fill="#EE41FC"/>
<path d="M555.822 76.1021C556.786 82.1656 558.716 88.0735 557.912 94.4479C557.59 97.8683 556.465 100.978 553.41 103.154C552.284 104.087 550.837 104.398 549.872 103.31C549.229 102.688 548.908 101.133 549.229 100.667C554.053 94.2925 551.802 87.4517 550.837 80.6109C550.676 79.2116 551.48 77.6569 551.963 76.2576C552.284 75.9467 552.766 75.9466 553.249 76.1021C554.214 76.1021 555.018 76.1021 555.822 76.1021Z" fill="#EE41FC"/>
<path d="M556.103 76C555.166 76 554.041 75.7648 553.103 75.7648C554.228 74.8236 555.166 74.5882 556.103 76Z" fill="#F7AD8C"/>
<path d="M409.865 45C398.814 45 388.684 53.1619 387.302 63.1375C386.995 65.4047 386.688 68.2765 389.298 68.8811C392.214 69.6368 391.907 66.6139 392.367 64.8001C394.823 55.2779 400.042 50.8947 409.865 49.8367C412.014 49.6855 415.39 50.8947 415.083 47.4183C415.083 44.3954 411.86 45.3023 409.865 45Z" fill="#5A2A80"/>
<path d="M390.103 113.532C397.981 111.685 401.92 104.601 407.908 100.443C412.792 97.0557 416.889 92.744 421.616 89.0482C432.803 79.8089 453.758 77.653 465.103 87.2004C457.225 94.2838 449.504 101.675 441.311 108.297C427.445 119.384 411.847 123.542 394.515 116.612C392.624 115.842 390.891 115.226 390.103 113.532Z" fill="#1D1C4B"/>
<path d="M471.259 167C466.764 161.558 461.96 167.777 457.466 166.534C454.522 163.268 452.197 159.537 450.648 155.494C447.548 147.254 448.943 141.346 456.382 136.837C462.115 133.26 466.455 129.373 467.074 122.066C467.229 120.2 468.934 118.334 470.174 116.935C471.878 115.069 474.048 114.447 476.528 115.536C478.697 116.624 479.007 118.645 478.697 120.822C478.387 122.532 478.077 124.398 477.457 126.108C475.443 130.773 475.288 133.571 481.951 133.882C489.39 134.349 494.814 139.169 498.533 145.388C501.013 149.586 503.337 150.519 506.901 146.787C509.846 143.678 514.34 143.367 517.749 141.19C518.369 141.19 518.834 141.346 519.454 141.346C521.004 143.367 522.553 145.544 524.103 147.565C520.539 149.275 516.974 151.918 513.255 152.54C506.282 153.784 505.352 157.36 507.366 163.113C500.083 163.89 492.799 164.823 485.516 165.601C485.361 162.647 485.051 160.003 487.53 157.205C490.785 153.318 487.065 150.519 484.121 148.653C481.332 146.943 477.612 145.388 476.063 150.208C474.978 153.784 471.723 153.162 469.399 154.406C467.384 155.494 463.355 155.339 464.595 158.915C465.525 161.403 468.934 160.47 470.794 159.692C477.612 156.894 480.402 158.915 479.627 166.223C476.373 166.378 473.738 166.689 471.259 167Z" fill="#1D1C4B"/>
<path d="M507.034 164C505.027 158.08 505.953 154.4 512.903 153.12C516.764 152.48 520.161 149.76 523.713 148C524.176 148.32 524.64 148.64 525.103 148.96C525.103 150.24 525.103 151.36 525.103 152.64C522.478 154.24 520.007 156 517.227 157.44C514.756 158.72 511.822 159.68 512.903 163.52C511.05 163.68 509.042 163.84 507.034 164Z" fill="#97382F"/>
<path d="M519.103 142C518.739 142 518.467 141.81 518.103 141.81C518.103 140.476 518.103 139.333 518.103 138C519.103 138.762 519.012 140.476 519.103 142Z" fill="#5A2A80"/>
<path d="M536.103 58.456C535.492 63.7947 535.187 69.1335 534.117 74.3104C532.895 80.6198 528.924 83.0465 522.966 81.5905C516.398 80.1345 518.078 75.4429 518.995 71.0748C519.911 66.3832 520.675 61.6916 521.439 57C526.327 57.4853 531.215 57.9707 536.103 58.456Z" fill="#1D1C4B"/>
<path d="M494.547 68C486.613 66.6296 487.857 60.6911 488.791 55.8185C489.724 51.4027 493.303 53.23 496.103 54.2958C495.636 58.8639 495.17 63.4319 494.547 68Z" fill="#5A2A80"/>
<path d="M494.103 68C494.764 63.3568 495.261 58.7137 495.922 54.0705C502.371 53.4514 501.544 57.0112 500.056 60.7257C498.898 63.6664 498.568 67.2261 494.103 68Z" fill="#F7AD8C"/>
<path d="M93.103 133C94.6647 123.223 97.7879 114.234 103.566 106.507C105.596 103.826 108.095 100.515 111.843 102.722C115.903 105.088 113.56 108.872 111.999 111.711C107.47 120.069 100.911 127.165 93.103 133Z" fill="#EFEEE2"/>
<path d="M145.822 147C138.778 142.352 132.055 137.239 127.252 130.421C125.171 127.632 121.969 123.914 126.131 120.97C129.973 118.026 132.375 122.519 134.296 124.689C139.739 131.041 144.382 137.859 147.103 145.76C146.623 146.225 146.143 146.535 145.822 147Z" fill="#EFEEE2"/>
<path d="M146.838 146C148.139 146.456 148.573 147.216 147.488 147.976C147.272 148.128 145.97 147.52 145.103 147.216C145.754 146.76 146.404 146.456 146.838 146Z" fill="#EFEEE2"/>
<path d="M478.723 167C479.674 159.404 476.661 157.303 469.684 160.212C467.781 161.02 464.292 162.152 463.341 159.404C462.072 155.687 466.195 155.849 468.257 154.717C470.635 153.424 473.965 154.232 475.075 150.354C476.661 145.343 480.467 146.96 483.321 148.737C486.334 150.677 490.14 153.586 486.81 157.626C484.273 160.535 484.59 163.283 484.748 166.354C482.845 166.677 480.784 166.838 478.723 167Z" fill="#97382F"/>
<path d="M513.28 163.027C512.382 158.973 515.076 158.162 517.471 156.865C520.015 155.405 522.56 153.622 525.104 152C526.002 158.324 531.39 163.027 531.091 170C525.852 165.622 520.464 161.73 513.28 163.027Z" fill="#1D1C4B"/>
<path d="M534.326 173C536.957 173.806 538.273 175.581 538.085 178C534.702 177.516 533.574 175.742 534.326 173Z" fill="#1D1C4B"/>
<path d="M531.103 170C531.83 170.359 532.376 170.629 533.103 170.989C531.467 171.078 531.103 170.629 531.103 170Z" fill="#1D1C4B"/>
<path d="M653.12 180C648.889 179.231 642.779 178.769 642.152 172.616C641.525 166.924 647.009 164.924 652.023 163.539C652.336 163.539 652.493 163.385 652.806 163.385C660.954 161.847 668.631 165.078 669.101 170.154C669.258 174.462 660.954 180 653.12 180Z" fill="#F9FCE0"/>
<path d="M381.019 187.881C373.886 190.208 366.754 192.224 359.311 193C359.156 186.175 358.845 179.504 351.247 176.091C349.232 175.161 348.301 172.679 347.526 170.352C346.596 167.87 347.216 165.853 349.232 164.147C351.247 162.44 353.108 163.992 354.969 164.767C359.156 166.629 360.861 173.299 367.064 171.748C372.026 170.507 374.972 166.008 378.848 163.216C379.314 162.906 379.624 162.596 380.089 162.44C389.548 159.493 393.269 153.288 391.563 143.515C391.098 140.723 392.184 137.155 395.595 137C399.472 137 399.161 140.723 399.161 143.515C399.161 145.377 399.316 147.238 398.851 148.945C397.146 153.909 398.076 156.08 403.813 157.476C412.962 159.493 416.528 166.784 416.063 178.729C411.566 179.814 407.225 180.9 402.728 181.831C399.782 177.953 393.269 179.97 391.408 174.075C389.703 168.49 385.361 170.507 382.26 172.368C379.314 174.23 374.972 176.712 380.399 180.9C383.19 183.072 380.709 185.554 381.019 187.881Z" fill="#1D1C4B"/>
<path d="M491.421 90C492.358 90.3158 494.076 90.3158 494.232 90.7895C496.263 97.2637 502.042 100.422 506.103 105.317C505.322 106.896 504.854 108.791 502.667 108.949C497.2 109.422 493.295 106.58 490.952 102.001C488.922 98.0531 485.485 93.7897 491.421 90Z" fill="#1D1C4B"/>
<path d="M380.45 188C380.127 185.621 382.715 182.925 379.803 180.705C374.14 176.424 378.67 173.886 381.745 171.983C384.981 170.081 389.511 168.019 391.291 173.728C393.233 179.754 400.191 177.692 403.103 181.657C395.822 184.987 387.57 184.353 380.45 188Z" fill="#97382F"/>
<path d="M409.723 45C411.566 45.3023 414.944 44.3954 415.098 47.4183C415.252 50.8947 411.873 49.5344 409.877 49.8367C400.048 50.8947 394.827 55.2779 392.37 64.8001C391.909 66.6139 392.063 69.6368 389.299 68.8811C386.688 68.2765 386.995 65.4047 387.302 63.1375C388.684 53.1619 398.666 45 409.723 45Z" fill="#F8AFFC"/>
</svg>
