<svg width="686" height="694" viewBox="0 0 686 694" fill="none" xmlns="http://www.w3.org/2000/svg">
<path d="M83.9589 532.842C97.7498 523.218 113.808 522.841 129.488 521.52C127.599 544.353 135.533 561.902 156.881 572.658C165.005 576.809 170.672 583.414 174.639 591.528C176.528 595.113 178.796 598.51 181.44 601.529C186.919 607.945 193.531 611.907 202.221 607.945C208.645 604.925 211.667 595.113 208.833 586.244C208.078 583.602 207.133 580.583 205.244 578.696C192.586 565.865 192.964 550.769 197.309 534.918C198.254 531.333 198.065 527.37 198.443 523.785C216.012 523.218 227.158 513.783 234.337 498.499C236.226 501.895 238.871 505.669 242.839 504.915C252.662 503.405 253.418 509.255 253.796 516.237C253.985 518.69 254.551 521.143 254.929 523.596C257.385 539.258 265.32 546.617 281 548.127C283.645 563.034 285.723 577.753 282.889 592.849C270.609 596.811 262.108 591.716 256.818 577.375C255.874 574.922 256.063 570.582 252.473 571.337C247.939 572.28 250.206 576.243 250.962 579.074C257.385 602.472 281.378 607.567 302.348 590.018C317.65 587.188 332.386 589.263 345.799 597.378C349.955 599.831 353.544 602.661 356.378 606.624C359.401 610.775 359.967 615.304 357.323 619.833C354.489 624.362 350.333 624.362 345.61 623.607C340.32 622.663 335.408 620.21 330.874 617.568C320.673 611.53 310.471 612.096 300.647 617.946C293.091 622.286 285.723 627.192 278.355 631.91C263.619 641.156 256.441 640.778 242.272 630.966C237.36 623.041 230.181 617.568 223.002 612.285C220.735 610.586 217.713 608.511 215.634 611.341C213.367 614.549 216.957 616.059 219.224 617.38C225.458 621.154 230.559 626.06 234.904 631.91C208.456 638.703 184.463 632.098 161.793 618.323C157.259 615.493 152.536 613.228 147.813 610.775C122.309 592.094 107.196 594.736 93.027 615.681C85.4703 626.815 74.1352 632.664 60.911 634.929C57.3216 635.495 53.7321 635.495 55.0545 640.778C47.3089 638.891 41.8303 643.609 37.1073 648.326C30.6841 654.742 25.0166 661.724 18.5934 668.329C14.6262 672.291 10.0922 676.82 3.8579 672.48C-2.18746 668.14 0.268469 662.29 2.91331 657.384C10.2811 644.175 18.2156 630.4 31.4398 623.041C45.4197 615.115 50.8984 604.737 51.0873 589.83C51.843 590.396 52.5986 590.962 53.1653 591.528C64.5004 604.171 78.8581 607.379 90.571 599.642C103.04 591.339 106.251 575.866 98.3167 560.581C93.7826 550.957 88.8707 541.9 83.9589 532.842Z" fill="#F7FAE0"/>
<path d="M518.882 412.467C517.185 474.163 515.488 535.858 514.169 597.553C513.98 604.911 509.079 605.1 504.743 606.986C482.309 612.458 460.064 611.515 437.631 606.798C415.197 600.006 415.386 600.006 419.156 577.554C429.525 514.915 439.893 452.277 450.262 389.638C458.368 387.374 466.474 388.884 474.58 388.884C481.744 397.94 486.645 408.317 492.112 418.316C494.94 423.41 497.579 424.165 502.292 421.335C507.948 418.127 513.603 415.297 518.882 412.467Z" fill="#F8AFFC"/>
<path d="M599.321 389.449C587.189 387.937 575.057 388.504 562.925 389.071C572.972 382.454 567.095 375.648 563.304 368.842C555.342 354.473 545.864 340.672 539.23 325.547C538.851 299.646 537.713 273.934 535.249 248.222C535.249 222.321 533.164 196.42 531.647 170.708C531.268 165.603 532.595 162.956 537.524 160.876C544.727 158.041 551.551 153.881 554.774 145.941C556.859 146.697 559.134 147.453 561.219 148.209C566.337 153.125 571.455 158.23 576.573 163.145C576.953 164.09 577.332 165.225 578.659 165.036L578.469 164.847C578.469 166.17 578.469 167.494 580.365 166.926L580.175 166.737C579.606 174.678 583.398 181.673 584.535 189.235C587.189 210.032 588.705 230.828 593.444 251.436C596.288 274.501 598.941 297.566 601.974 320.632C604.628 340.483 607.282 360.523 610.694 380.185C612.59 391.34 605.008 388.882 599.321 389.449Z" fill="#595C0B"/>
<path d="M539.522 325.635C546.313 340.792 555.556 354.622 563.478 369.021C567.251 376.031 573.098 382.662 563.101 389.293C550.463 392.135 540.465 400.092 529.902 406.912C525.752 407.86 522.545 410.702 518.962 412.786C513.491 415.817 508.021 418.469 502.739 421.69C498.023 424.532 495.194 423.774 492.553 418.659C487.083 408.618 482.179 398.197 475.011 389.104C467.088 372.052 457.279 355.949 447.282 340.034C446.716 338.708 446.339 337.003 445.396 335.866C439.737 328.856 439.926 323.362 449.168 319.952C460.863 315.405 471.049 308.205 481.801 301.953C484.065 302.711 485.951 302.332 487.272 300.059C493.685 303.28 499.91 306.879 506.323 309.721C510.096 311.237 514.434 312.184 517.452 308.395C520.282 304.795 518.018 301.195 516.132 297.975C513.868 293.996 510.284 290.586 509.153 285.85C510.473 285.092 511.794 284.334 512.925 283.576C515.755 284.902 516.509 287.555 518.018 290.018C525.186 301.764 532.354 313.7 539.522 325.635ZM534.806 351.97C533.486 347.991 531.034 348.939 528.393 350.454C515.943 357.654 503.494 364.664 491.044 371.863C489.158 373 485.763 374.515 487.838 377.357C489.535 379.82 492.365 378.115 494.628 376.978C506.889 369.968 518.962 362.958 531.222 355.949C532.543 355.191 534.24 354.433 534.806 351.97ZM520.093 330.94C519.527 331.13 518.396 331.13 517.641 331.698C504.248 339.276 491.044 346.855 477.651 354.622C476.142 355.38 475.011 356.896 475.954 358.411C476.897 359.738 478.783 360.117 480.104 359.359C494.062 351.591 507.832 343.634 521.791 335.677C522.734 335.108 523.677 333.972 523.111 332.456C522.923 331.319 521.791 331.13 520.093 330.94ZM544.804 371.105C543.106 367.316 540.277 368.832 538.013 370.158C525.941 376.978 514.057 383.799 501.985 390.809C499.91 391.945 496.703 393.272 498.589 396.303C500.287 398.955 503.117 397.25 505.38 396.113C517.452 389.293 529.336 382.472 541.408 375.463C542.917 374.515 544.615 373.568 544.804 371.105ZM489.912 328.098C489.347 324.878 487.649 323.741 485.197 325.067C478.972 328.477 472.747 332.077 466.711 335.866C465.391 336.624 464.259 337.95 465.202 339.845C466.334 341.929 468.031 342.118 469.918 340.981C475.765 337.571 481.801 334.161 487.649 330.751C488.592 330.182 489.158 328.856 489.912 328.098Z" fill="#F7FAE0"/>
<path d="M593.577 252.04C589.04 231.72 587.338 210.836 584.691 190.14C583.746 182.425 579.776 175.464 580.344 167.75C595.656 177.157 607.755 191.08 624.202 201.993C625.715 189.199 627.038 177.722 628.172 166.057C641.406 167.374 654.45 168.503 667.683 169.82C670.708 199.359 674.3 228.898 676.568 258.437C677.892 277.252 658.609 288.353 641.784 279.322C625.715 270.667 609.646 261.259 593.577 252.04Z" fill="#7BB9D2"/>
<path d="M450.823 287.811C434.027 270.432 416.854 253.62 400.624 235.674C384.395 217.728 388.735 189.393 409.871 179.57C433.461 168.614 457.616 159.357 482.338 151.234C482.715 151.612 483.093 152.179 483.47 152.557C474.223 161.813 467.996 172.769 466.297 185.993C465.731 190.526 466.297 195.438 463.844 199.782C459.503 192.604 455.54 185.048 451.011 178.059C448.558 174.281 444.595 171.825 439.688 174.658C434.593 177.681 434.216 182.781 436.669 186.937C443.84 198.46 452.71 208.283 465.165 214.328C474.601 230.574 484.036 247.008 493.472 263.254C470.826 263.065 456.673 271.188 450.823 287.811Z" fill="#7BB9D2"/>
<path d="M438.371 606.49C460.682 611.298 482.807 612.259 505.118 606.682C503.993 632.454 503.056 658.419 502.118 684.192C501.931 688.039 500.806 690.347 496.681 690.154C496.306 690.154 496.119 690.154 495.744 690.154C471.182 692.078 471.182 692.078 471.745 666.882C471.745 663.42 471.745 659.958 471.745 654.957C467.057 661.304 463.12 666.882 458.995 672.267C444.746 690.347 425.434 692.655 404.81 690.539C396.935 689.77 394.873 681.884 399.748 673.229C412.31 651.495 424.872 629.762 437.621 608.22C437.809 607.643 438.183 607.067 438.371 606.49Z" fill="#1201FD"/>
<path d="M533.704 412.67C535.418 474.302 537.133 535.934 538.466 597.566C538.657 604.917 543.609 605.106 547.99 606.99C570.657 612.456 593.134 611.514 615.801 606.802C638.468 600.017 638.278 600.017 634.468 577.588C623.992 515.013 613.515 452.439 603.039 389.864C594.848 387.602 586.658 388.618 578.467 388.618C567.991 388.618 566.086 388.168 556.562 390.503C550.847 392.387 546.72 395.215 540.371 398.984C535.609 401.811 535.609 403.696 533.704 412.67Z" fill="#F8AFFC"/>
<path d="M615.524 606.49C592.774 611.238 570.217 612.187 547.467 606.679C548.615 632.13 549.57 657.77 550.526 683.221C550.717 687.019 551.864 689.299 556.07 689.109C556.452 689.109 556.644 689.109 557.026 689.109C582.069 691.008 582.069 691.008 581.495 666.127C581.495 662.708 581.495 659.29 581.495 654.352C586.275 660.619 590.289 666.127 594.495 671.445C609.024 689.298 628.714 691.578 649.743 689.488C657.772 688.729 659.875 680.942 654.904 672.395C642.096 650.933 629.288 629.471 616.288 608.199C616.097 607.629 615.715 607.059 615.524 606.49Z" fill="#1201FD"/>
<path d="M280.983 549.318C265.108 547.99 257.171 540.402 254.903 524.656C254.525 522.19 253.769 519.724 253.769 517.258C253.391 510.239 252.635 504.169 242.808 505.876C238.84 506.445 236.194 502.841 234.304 499.426C233.359 487.095 228.823 475.713 225.8 463.762C222.965 451.811 225.044 441.946 231.28 440.049C241.296 436.824 246.777 443.843 252.257 450.672C256.793 456.363 260.573 462.434 263.597 469.832C267.187 466.607 266.809 462.624 267.754 459.209C269.077 455.415 269.455 451.052 270.967 447.447C272.857 442.894 275.125 437.014 281.172 438.342C286.653 439.48 286.275 445.55 286.653 450.103C287.031 456.363 286.842 462.624 287.031 469.074C283.251 468.884 279.66 468.504 275.881 468.315C274.18 468.315 273.046 469.453 273.046 471.16C273.046 472.488 273.991 473.626 275.503 473.437C284.007 472.868 291.377 477.8 299.693 478.559C304.417 482.922 307.252 488.233 307.63 494.683C299.882 498.857 294.968 510.429 296.48 521.052C296.858 523.329 296.858 525.795 299.882 525.415C302.338 525.226 302.338 522.949 302.149 521.052C301.582 512.326 304.039 504.548 309.142 497.529C317.835 498.288 320.292 503.41 318.969 511.377C316.134 515.93 315.567 520.483 318.969 525.036C321.048 546.093 321.048 546.093 299.693 547.611C293.456 547.8 287.22 548.749 280.983 549.318ZM281.361 490.51C276.258 489.941 273.613 492.407 273.613 497.339C273.613 502.461 276.636 504.548 281.739 503.599C283.629 503.599 285.519 503.599 287.409 503.599C291.755 503.22 294.59 500.754 294.59 496.58C294.59 492.028 291.377 490.13 287.031 490.13C284.952 490.13 283.251 490.51 281.361 490.51Z" fill="#021B32"/>
<path d="M198.374 523.159C197.997 526.967 198.185 530.774 197.242 534.391C192.904 550.383 192.527 565.613 205.164 578.558C207.05 580.462 207.993 583.508 208.747 586.173C211.388 595.121 208.559 605.021 202.146 608.067C193.47 612.065 186.869 608.067 181.399 601.594C178.759 598.548 176.307 595.121 174.609 591.504C170.46 583.318 164.802 576.655 156.88 572.466C135.757 561.615 127.646 544.101 129.532 520.875C148.016 520.113 166.122 522.588 184.417 523.921C188.944 524.492 193.659 523.54 198.374 523.159Z" fill="#021B32"/>
<path d="M561.286 148.739C559.232 147.984 556.991 147.229 554.937 146.474C550.642 142.133 544.479 142.322 539.624 139.113C539.064 134.016 532.341 129.675 537.57 123.823C546.907 131.185 554.937 132.317 563.153 127.41C570.436 123.068 574.545 113.819 572.491 105.702C570.063 96.2641 564.274 90.4126 554.19 89.8463C552.883 82.1071 548.401 79.4644 540.558 80.2194C531.594 80.9745 522.631 80.7857 513.667 80.2194C506.197 79.6531 501.155 81.5408 500.035 89.8463C490.511 90.6013 485.095 96.4528 482.481 105.325C480.24 113.252 483.041 120.237 489.017 125.522C496.3 131.94 504.703 131.751 513.107 127.598C517.962 132.317 511.986 135.526 511.426 139.49C506.571 142.51 500.408 142.51 496.113 146.663C493.872 147.418 491.445 148.362 489.204 149.117C488.083 149.117 487.15 149.117 486.029 149.117C464.554 140.434 458.952 124.012 471.463 104.381C482.481 86.826 497.42 72.4802 512.547 58.512C519.643 51.9054 531.221 52.4716 540.184 59.0782C558.858 72.669 573.424 90.2238 583.695 110.799C592.285 127.976 581.267 146.286 561.286 148.739Z" fill="#021B32"/>
<path d="M84.053 533.296C89.0036 542.41 93.9543 551.523 98.5241 560.826C106.331 576.205 103.284 591.774 90.7173 600.128C78.9119 607.912 64.4409 604.874 53.0163 591.963C52.4451 591.204 51.6835 590.824 50.9219 590.255C51.3027 575.825 53.9684 562.155 62.5368 550.194C65.2025 546.397 65.2025 543.739 62.5368 540.131C58.919 535.195 56.6341 529.689 55.6821 523.803C55.1109 520.006 56.0629 516.779 59.4903 515.07C62.7272 513.361 65.7737 515.07 67.8682 517.538C70.9147 521.145 73.9613 524.753 76.4366 528.74C78.5311 531.588 80.2448 533.866 84.053 533.296Z" fill="#021B32"/>
<path d="M668.337 169.233C655.265 167.925 642.194 166.805 629.309 165.497C626.881 160.641 622.773 157.279 619.225 153.543C616.61 150.741 613.622 147.753 616.237 144.017C618.851 140.282 622.959 142.149 626.321 143.644C629.495 144.951 632.67 146.259 635.844 147.193C639.019 148.313 642.007 147.753 644.248 144.951C646.302 142.523 645.368 140.282 643.874 138.227C641.82 135.052 638.832 134.865 635.658 135.425C633.79 135.799 632.11 136.546 630.429 137.48C627.068 139.348 623.893 139.161 621.279 135.986C618.478 132.624 619.598 128.888 621.652 125.713C626.881 117.494 639.392 116 649.85 122.351C651.717 129.822 659.187 134.118 660.121 142.336C660.307 144.391 665.163 145.885 668.337 145.325C671.325 144.951 671.138 141.589 671.512 139.161C672.632 130.943 673.753 122.724 674.873 114.319C681.783 109.463 684.21 113.011 684.957 119.549C685.517 123.845 684.397 128.141 682.716 132.25C678.048 144.578 673.192 156.905 668.337 169.233Z" fill="#F7AD8C"/>
<path d="M451.43 288.358C457.221 272.104 471.418 264.162 493.835 264.531C499.066 271.919 504.296 279.307 509.34 286.511C510.461 291.129 513.824 294.268 516.252 298.332C518.12 301.472 520.362 304.981 517.56 308.491C514.571 312.185 510.087 311.261 506.538 309.784C500 307.013 494.022 303.504 487.67 300.364C484.868 293.53 477.956 290.759 472.726 286.142C471.231 284.849 469.363 283.925 467.869 285.587C465.814 287.619 467.308 289.466 468.99 290.944C473.473 294.638 477.956 298.332 482.44 302.026C471.792 308.121 461.704 315.14 450.122 319.573C446.573 309.045 452.737 298.886 451.43 288.358Z" fill="#F7AD8C"/>
<path d="M139.855 613.255C126.852 631.205 109.327 641.516 87.8438 645.717C77.1023 647.817 70.8836 657.174 64.0995 664.812C60.519 668.822 57.1269 672.832 53.1695 676.46C49.589 679.706 45.2548 680.852 41.2974 677.606C37.5284 674.742 37.7168 670.541 39.2244 666.34C42.8049 656.601 49.7774 649.154 55.2424 640.943C59.9536 642.662 64.4763 641.134 68.999 639.798C83.3211 635.978 93.3088 626.813 101.977 614.974C110.834 602.944 117.807 601.798 131.187 608.29C134.013 609.818 137.029 611.728 139.855 613.255Z" fill="#F7FAE0"/>
<path d="M602.402 69.6188C602.967 61.4571 609.737 52.726 617.072 44.5643C620.645 40.5784 620.269 37.9211 617.26 34.3148C610.113 25.7735 601.838 18.7507 592.059 13.4361C589.614 12.1074 586.981 10.9685 584.536 9.45006C581.903 7.7418 576.449 7.17238 578.706 2.80683C580.962 -1.36892 585.1 2.42726 587.733 3.5661C600.71 9.45011 612.37 17.6118 621.21 28.8104C625.159 33.9352 628.168 34.8842 634.187 32.0371C646.975 25.7735 660.893 26.3429 674.622 28.4307C677.255 28.8103 681.957 29.0002 680.64 33.7454C679.512 37.7314 675.938 35.6434 673.493 34.8842C661.081 31.0881 649.42 33.7454 637.76 37.7313C632.494 39.6294 630.237 41.5275 632.87 47.9809C636.819 57.8509 636.82 68.2902 634.187 78.5398C631.742 88.0301 625.535 92.7753 617.448 91.8262C607.292 90.3078 601.838 83.6645 602.402 69.6188ZM628.732 64.3043C628.921 59.5591 628.356 54.8139 626.664 50.4484C625.535 47.6013 624.031 45.893 621.398 48.93C615.567 55.9528 610.113 63.3553 608.233 72.6558C606.916 79.1092 610.49 82.7155 616.132 84.8034C622.338 87.081 624.595 83.0952 626.664 78.35C628.544 73.7946 629.109 69.0494 628.732 64.3043Z" fill="#A359DB"/>
<path d="M136.718 687.453C165.299 687.453 194.069 687.453 222.65 687.453C225.3 687.453 230.032 685.709 229.842 690.555C229.653 694.432 225.3 693.075 222.839 693.075C165.109 693.075 107.569 693.075 49.8395 693.075C47.0004 693.075 42.2684 694.239 42.4577 689.586C42.6469 685.709 47.0003 687.26 49.6502 687.26C78.6096 687.26 107.758 687.453 136.718 687.453Z" fill="#1201FD"/>
<path d="M447.555 339.689C457.621 355.582 467.497 371.664 475.474 388.693C467.307 388.693 459.14 387.179 450.973 389.449C439.578 388.314 439.578 388.314 441.477 376.584C443.376 364.285 443.756 351.609 447.555 339.689Z" fill="#595C0B"/>
<path d="M139.515 613.13C136.49 611.419 133.655 609.707 130.441 608.186C117.207 601.721 110.023 602.862 101.137 614.842C92.4405 626.632 82.4206 635.759 68.0524 639.563C63.515 640.704 58.9776 642.415 54.2512 640.704L54.4403 640.894C52.9279 635.569 56.7089 635.569 60.301 634.999C73.5349 632.717 84.8782 626.822 92.4405 615.602C106.62 594.494 121.744 591.832 147.267 610.658C145.943 615.222 142.729 614.081 139.515 613.13Z" fill="#1201FD"/>
<path d="M301.842 590.583C280.557 608.375 256.612 603.209 250.15 579.487C249.39 576.617 247.109 572.599 251.671 571.643C255.281 570.878 255.091 575.086 256.041 577.765C261.363 592.305 269.725 597.47 282.267 593.452C286.448 593.261 289.679 590.774 293.29 589.244C296.33 587.713 299.561 586.374 301.842 590.583Z" fill="#1201FD"/>
<path d="M235.146 632.088C230.968 626.116 225.65 621.108 219.383 617.255C216.914 615.714 213.496 614.366 215.775 611.091C217.864 608.201 221.092 610.32 223.181 612.054C230.398 617.448 237.805 623.034 242.552 631.125C240.843 635.941 237.994 633.629 235.146 632.088Z" fill="#1201FD"/>
<path d="M318.055 523.908C314.498 519.32 315.091 514.733 318.055 510.145C321.217 510.718 324.379 511.292 327.541 511.865C330.702 512.439 334.655 512.439 334.655 516.644C334.852 520.85 331.098 522.379 327.541 523.144C324.577 523.717 321.415 523.717 318.055 523.908Z" fill="#EE41FC"/>
<path d="M308.892 496.493C304.025 503.65 301.682 511.581 302.223 520.479C302.403 522.413 302.403 524.734 300.06 524.927C297.176 525.314 297.176 522.8 296.815 520.479C295.373 509.453 299.88 497.654 307.45 493.592L307.27 493.205C307.991 494.172 308.532 495.139 309.253 496.107L308.892 496.493Z" fill="#EFEEE2"/>
<path d="M299.724 477.324C291.658 476.541 284.342 471.453 275.712 472.04C274.399 472.236 273.461 471.061 273.274 469.691C273.086 467.93 274.399 466.56 276.088 466.755C279.839 466.951 283.404 467.343 287.156 467.538C291.658 470.083 299.724 467.93 299.724 477.324Z" fill="#EFEEE2"/>
<path d="M485.532 149.117C486.84 149.117 487.929 149.117 489.237 149.117C487.276 150.529 485.314 151.94 483.134 153.352C482.698 152.949 482.262 152.344 481.826 151.94C483.134 150.932 484.224 150.125 485.532 149.117Z" fill="#7BB9D2"/>
<path d="M309.253 496.381C308.483 495.323 307.905 494.264 307.135 493.205C307.905 494.264 308.483 495.323 309.253 496.381Z" fill="#021B32"/>
<path d="M579.23 166.057C577.882 166.057 577.497 164.998 577.112 163.939C577.882 164.574 578.46 165.21 579.23 166.057Z" fill="#7BB9D2"/>
<path d="M581.347 166.928C579.109 167.629 579.109 166.226 579.313 164.998C579.923 165.7 580.533 166.226 581.347 166.928Z" fill="#7BB9D2"/>
<path d="M540.228 139.588C545.017 142.785 551.531 142.785 555.937 146.921C552.68 154.818 545.784 158.766 538.503 161.774C533.522 163.842 532.181 166.475 532.565 171.551C534.097 197.309 536.205 222.88 536.205 248.638C529.308 248.638 522.411 248.638 515.514 248.638C516.663 223.632 517.813 198.626 519.154 173.807C519.537 167.603 518.579 163.466 511.682 161.022C504.785 158.578 498.846 154.066 495.59 146.921C499.996 142.785 506.318 142.785 511.299 139.776C520.878 139.588 530.457 139.588 540.228 139.588Z" fill="#7BB9D2"/>
<path d="M515.841 248.638C522.599 248.638 529.357 248.638 536.114 248.638C538.555 274.337 539.681 300.037 540.056 325.925C532.923 314.02 525.79 302.304 518.656 290.399C517.155 288.132 516.404 285.297 513.588 283.975C514.527 272.07 515.278 260.354 515.841 248.638Z" fill="#F8AFFC"/>
<path d="M514.902 248.111C514.149 259.82 513.395 271.718 512.83 283.427C511.512 284.183 510.193 284.938 509.063 285.693C503.79 278.139 498.516 270.585 493.431 263.22C484.013 246.978 474.596 230.548 465.179 214.306C470.264 209.018 463.296 204.675 463.861 199.576C466.309 195.232 465.744 190.511 466.309 185.789C468.004 172.569 474.031 161.616 483.448 152.362C485.144 151.04 486.839 149.718 488.722 148.396C490.982 147.64 493.431 146.696 495.691 145.941C498.704 153.117 504.731 157.461 511.512 160.105C518.292 162.56 519.046 166.904 518.857 172.947C517.162 197.876 516.22 222.994 514.902 248.111Z" fill="#595C0B"/>
<path d="M534.763 351.886C534.387 354.093 532.507 354.829 531.003 355.748C518.784 362.552 506.753 369.357 494.535 376.161C492.279 377.448 489.459 378.919 487.767 376.528C485.699 373.77 489.083 372.299 490.963 371.195C503.37 364.207 515.777 357.403 528.183 350.415C531.003 349.128 533.447 348.025 534.763 351.886Z" fill="#7BB9D2"/>
<path d="M520.612 331.219C522.12 331.219 523.439 331.405 524.005 332.897C524.57 334.389 523.628 335.508 522.685 336.068C508.924 343.9 494.974 351.733 481.024 359.379C479.705 360.125 477.631 359.938 476.877 358.446C475.935 356.954 477.066 355.462 478.574 354.716C491.769 347.257 505.154 339.611 518.538 332.151C519.103 331.592 520.046 331.405 520.612 331.219Z" fill="#7BB9D2"/>
<path d="M545.35 371.727C545.163 374.164 543.479 374.914 541.796 375.851C529.824 382.6 518.039 389.537 506.068 396.286C503.823 397.598 501.017 399.098 499.333 396.473C497.463 393.474 500.643 392.349 502.7 391.037C514.672 384.287 526.457 377.351 538.429 370.602C541.048 369.477 543.854 367.977 545.35 371.727Z" fill="#7BB9D2"/>
<path d="M490.296 328.451C489.531 329.212 488.957 330.353 488.001 330.924C482.071 334.347 476.142 337.771 470.021 341.195C468.108 342.146 466.387 342.146 465.239 340.053C464.283 338.342 465.431 337.01 466.77 336.059C472.89 332.445 479.202 328.641 485.514 325.218C487.81 324.267 489.722 325.218 490.296 328.451Z" fill="#7BB9D2"/>
<path d="M481.795 302.195C477.23 298.453 472.666 294.711 468.102 290.969C466.39 289.472 464.869 287.601 466.961 285.543C468.672 283.859 470.574 284.795 471.905 286.104C477.23 290.595 484.267 293.401 487.12 300.511C485.979 302.569 484.077 303.13 481.795 302.195Z" fill="#EE41FC"/>
<path d="M463.923 200.264C463.169 205.096 470.148 209.37 465.243 214.758C452.794 208.812 443.928 198.964 436.761 187.814C434.308 183.912 434.497 178.709 439.779 175.736C444.683 172.948 448.644 175.364 451.096 179.081C455.623 185.956 459.585 193.203 463.923 200.264ZM450.531 194.504C450.908 194.875 451.474 195.433 451.662 195.433C452.794 194.69 452.04 194.132 451.474 193.575C450.342 188.372 448.267 183.912 441.476 180.196C442.797 187.814 446.381 191.345 450.531 194.504Z" fill="#F8AFFC"/>
<path d="M281.312 489.356C283.213 489.163 285.115 488.97 286.826 488.97C291.198 488.97 294.431 490.704 294.431 495.52C294.431 499.951 291.579 502.455 287.206 502.648C285.305 502.841 283.403 502.648 281.502 502.648C280.742 498.217 280.171 493.786 281.312 489.356Z" fill="#1201FD"/>
<path d="M281.332 490.101C280.15 494.242 280.741 498.382 281.726 502.523C276.604 503.423 273.453 501.443 273.256 496.582C273.256 492.081 276.013 489.561 281.332 490.101Z" fill="#EFEEE2"/>
<path d="M499.825 89.1058C500.964 80.7025 505.9 78.9837 513.683 79.3657C522.796 79.9386 531.908 80.1296 541.02 79.3657C548.994 78.6017 553.55 81.2755 554.879 89.1058C554.879 91.0157 554.879 93.1166 554.879 95.0264C552.791 104.003 548.424 111.642 540.83 117.181C539.122 117.945 537.413 118.708 535.705 119.281C530.389 119.281 524.884 119.472 519.568 119.472C517.86 118.899 516.151 118.136 514.443 117.563C506.849 111.833 501.723 104.767 500.015 95.2174C499.825 93.1165 499.825 91.2067 499.825 89.1058ZM537.603 97.1272C536.844 92.9255 533.617 91.5887 531.149 92.7346C526.592 95.2174 518.05 88.9149 517.29 97.8912C516.91 102.475 522.606 107.44 526.403 107.249C531.528 106.867 534.945 101.329 537.603 97.1272Z" fill="#F7AD8C"/>
<path d="M513.765 117.81C515.47 118.369 517.176 119.115 518.882 119.675C518.503 123.592 514.712 124.712 512.628 127.137C504.1 131.241 495.572 131.427 488.181 125.085C482.116 119.862 479.273 113.146 481.548 105.125C484.011 96.357 489.507 90.5741 499.362 89.8279C499.362 91.8799 499.362 93.7453 499.362 95.7973C492.16 97.2897 487.802 101.767 487.423 109.042C487.044 115.198 489.886 119.675 495.572 122.287C502.773 126.018 508.648 123.219 513.765 117.81Z" fill="#A359DB"/>
<path d="M534.763 119.424C536.462 118.675 538.162 117.926 539.862 117.364C544.772 123.171 550.437 125.793 557.991 122.609C563.845 120.174 566.866 115.303 566.489 109.496C566.111 102.004 561.768 96.946 553.836 95.6347C553.836 93.7615 553.836 91.8884 553.836 89.8279C564.034 90.3898 569.888 96.1967 572.343 105.563C574.42 113.617 570.266 122.796 562.901 127.104C554.591 131.975 546.471 130.851 537.029 123.545C536.273 122.047 535.518 120.735 534.763 119.424Z" fill="#A359DB"/>
<path d="M451.183 193.584C446.788 190.545 442.993 187.328 441.594 179.82C448.786 183.395 450.983 187.685 452.182 192.69C451.782 193.047 451.383 193.226 451.183 193.584Z" fill="#7BB9D2"/>
<path d="M451.704 192.525C452.052 193.16 452.517 193.796 451.82 194.642C451.704 194.642 451.355 194.007 451.123 193.584C451.239 193.16 451.471 192.949 451.704 192.525Z" fill="#7BB9D2"/>
<path d="M554.991 96.1803C562.866 97.5043 567.179 102.611 567.554 110.177C567.929 116.041 564.741 120.958 559.116 123.417C551.616 126.633 545.99 123.796 541.115 118.121C548.428 112.636 552.928 105.259 554.991 96.1803Z" fill="#021B32"/>
<path d="M514.647 118.408C509.512 123.918 503.806 126.768 496.389 123.158C490.873 120.498 487.83 115.749 488.21 109.669C488.591 102.26 492.965 97.7002 500.192 96.1803C501.904 105.679 507.039 112.899 514.647 118.408Z" fill="#021B32"/>
<path d="M537.939 96.7539C535.287 101.097 531.878 106.385 526.954 106.762C522.976 106.951 517.294 102.041 517.863 97.5093C518.62 88.6337 527.143 94.8655 531.689 92.4105C533.961 91.0886 537.181 92.5993 537.939 96.7539Z" fill="#EE41FC"/>
</svg>
