<svg width="596" height="641" viewBox="0 0 596 641" fill="none" xmlns="http://www.w3.org/2000/svg">
<path d="M384.247 423.783C360.602 436.432 336.694 449.345 313.049 461.995C309.633 463.839 306.481 466.475 302.277 465.684C304.642 454.089 308.845 443.021 308.583 431.162C308.32 423.52 307.269 415.877 298.336 413.506C289.666 411.134 283.099 414.56 278.107 421.938C271.276 431.953 267.598 443.284 265.759 454.879C264.182 465.421 260.242 470.691 248.944 468.583C240.275 467.002 236.596 470.428 236.071 479.651C235.283 489.929 232.393 500.206 230.291 510.484C223.46 510.747 218.206 515.227 212.426 518.126C187.467 531.566 162.508 545.006 137.55 558.709C137.55 511.274 137.55 463.839 137.55 416.141C148.059 410.87 159.618 407.971 168.288 399.012C174.856 400.593 180.111 397.167 185.628 394.795C220.045 378.72 254.462 362.645 288.878 346.306C292.556 344.725 299.387 343.934 297.285 338.4C294.395 331.021 288.878 336.819 285.2 338.664C251.834 353.948 218.731 369.76 185.365 385.308C179.848 387.943 174.856 391.633 168.288 391.106C157.779 371.078 150.16 350.786 157.779 327.595C169.076 327.332 180.373 326.805 191.671 327.068C259.716 327.332 327.762 327.595 396.07 327.595C421.817 361.327 419.452 384.254 387.925 413.506C384.247 416.668 382.671 419.567 384.247 423.783Z" fill="#021B32"/>
<path d="M396.262 328.462C327.921 328.199 259.581 327.935 190.977 327.935C179.631 327.935 168.285 328.462 156.939 328.462C149.286 329.778 136.621 320.563 136.357 336.887C135.829 363.479 136.621 390.334 136.885 416.926C136.885 464.318 136.885 511.71 136.885 559.365C136.885 583.85 136.885 608.599 136.621 633.085C136.621 635.455 136.357 638.087 136.357 640.457C124.747 640.457 113.137 640.457 101.264 640.457C101.264 637.824 101.264 635.191 101 632.822C101 616.498 100.736 600.174 100.736 583.85C100.736 564.367 100.736 544.884 100.736 525.401C100.736 495.386 100.736 465.371 100.736 435.356C100.999 392.441 101.264 349.525 101 306.872C101 296.604 103.638 293.181 114.193 293.445C136.621 294.235 158.785 293.445 181.214 293.445C259.053 293.445 337.157 293.445 414.996 293.445C435.314 293.445 455.631 293.445 475.949 293.445C487.031 293.445 498.113 293.445 509.459 293.445C527.402 294.498 527.402 294.498 529.249 319.773C529.249 390.861 529.249 461.948 529.249 533.036C529.249 537.512 528.985 541.988 528.985 546.464C528.985 548.833 528.985 551.466 528.985 553.836C528.985 555.679 528.985 557.522 528.721 559.101C528.985 562.261 529.249 565.42 529.513 568.58C528.193 572.792 528.193 577.005 529.513 581.217C527.402 586.746 528.457 592.539 528.721 598.331C528.721 612.285 528.457 626.503 528.457 640.457C519.486 640.457 510.515 640.457 501.543 640.984C495.211 641.247 493.1 638.351 493.1 632.822C493.1 599.384 493.1 566.21 493.1 532.773C493.364 467.478 493.364 402.446 493.627 337.15C493.627 330.305 491.516 327.935 484.656 327.935C458.797 328.462 432.939 328.462 407.081 328.725C403.914 328.462 400.22 328.462 396.262 328.462Z" fill="#1201FD"/>
<path d="M414.936 292.348C337.473 292.348 259.748 292.348 182.285 292.348C141.847 269.696 141.322 230.978 181.235 204.902C234.802 205.429 288.37 205.429 341.937 206.482C355.854 206.746 367.67 203.848 377.911 194.63C379.749 193.313 381.85 192.259 383.688 190.942C407.058 185.674 414.673 188.045 422.551 203.321C412.047 203.321 401.544 203.322 391.303 203.585C388.414 203.585 384.213 202.795 383.95 207.009C383.688 212.277 388.414 211.487 391.565 211.487C402.331 211.487 413.36 211.223 424.126 210.96C425.439 218.335 426.752 225.973 427.802 233.348C424.914 230.978 421.5 228.871 418.874 232.821C414.41 239.143 408.108 241.25 400.756 241.513C397.605 241.777 394.191 243.094 394.716 246.781C395.242 250.732 398.918 250.469 402.069 250.469C413.623 250.732 422.025 245.201 428.327 235.982C430.953 240.987 430.953 246.254 431.216 251.522C418.349 248.098 416.511 263.111 407.058 265.745C404.17 266.536 401.019 269.169 403.382 272.594C405.22 275.754 408.896 274.701 411.522 273.12C420.187 267.853 428.59 262.321 431.216 251.786C435.942 271.013 432.529 279.969 414.936 292.348Z" fill="#F7AD8C"/>
<path d="M422.341 202.942C414.458 187.69 406.838 185.324 383.452 190.583C378.985 179.802 368.999 173.754 361.905 165.076C359.803 162.709 356.912 160.869 354.285 164.024C351.657 167.18 354.022 169.546 356.124 171.65C363.219 179.276 370.576 186.639 377.671 194.264C367.423 203.468 355.599 206.361 341.672 206.098C288.068 205.046 234.464 205.046 180.86 204.52C217.385 170.335 255.222 137.728 293.586 105.647C293.586 114.325 293.849 123.003 293.849 131.68C293.849 164.813 296.214 166.917 329.585 166.391C330.11 166.391 330.373 166.391 330.899 166.391C345.614 165.865 351.657 160.343 351.657 145.88C351.92 129.314 351.657 112.747 351.657 96.1808C361.905 95.9179 371.364 93.0255 380.036 87.7663C380.036 102.229 380.036 116.692 380.036 130.891C380.036 165.076 382.4 167.18 416.56 166.391C431.8 165.865 437.844 160.08 438.106 144.828C438.369 120.373 438.106 95.918 438.106 71.4628C465.697 84.8737 480.149 107.751 485.404 137.465C488.82 156.661 491.711 175.857 494.864 195.316C493.287 202.153 491.973 209.253 490.397 216.09C486.981 216.353 483.302 216.879 480.149 216.616C469.901 215.301 467.799 218.982 469.113 228.975C472.003 250.012 473.58 271.311 475.419 292.348C455.186 292.348 434.953 292.348 414.721 292.348C432.326 279.726 436.004 270.785 430.749 251.852V251.589C430.486 246.33 430.224 240.808 427.859 236.075C427.859 235.286 427.596 234.234 427.596 233.182C426.282 225.819 424.968 218.194 423.917 210.831C425.231 207.675 424.443 205.309 422.341 202.942Z" fill="#595C0B"/>
<path d="M230.186 510.851C232.291 500.614 235.185 490.377 235.974 480.14C236.764 470.953 240.448 467.541 248.868 469.116C260.182 471.216 263.866 465.966 265.708 455.467C267.55 443.918 271.233 432.631 278.074 422.656C283.074 415.307 289.652 412.157 298.335 414.257C307.281 416.619 308.334 424.231 308.597 431.843C308.86 443.655 304.913 454.942 302.282 466.229C297.546 486.702 306.492 501.926 320.964 514.788C332.804 525.287 345.961 534.212 357.275 544.974C387.797 574.109 382.009 611.382 344.119 630.281C327.016 638.943 308.86 642.355 289.389 640.518C278.601 639.468 267.55 639.73 256.498 639.468C258.866 615.319 261.498 591.171 263.339 566.76C265.708 538.149 267.813 509.538 269.655 480.928C269.918 477.778 270.97 473.053 265.971 472.528C260.708 472.003 260.182 476.728 259.656 480.665C258.866 488.54 258.34 496.152 258.077 504.026C255.446 549.173 248.868 594.058 248.868 639.468C227.818 639.468 206.768 639.468 185.455 639.468C185.455 636.843 185.192 634.218 185.192 631.593C185.455 611.644 185.455 591.696 185.718 571.747C185.981 555.736 190.98 550.486 206.505 550.223C210.452 550.223 214.398 550.223 218.345 550.223C222.555 550.223 224.66 548.386 225.186 544.186C227.291 532.899 228.87 521.875 230.186 510.851ZM298.598 501.664C297.546 504.289 297.019 504.814 297.019 505.601C297.019 539.724 297.019 573.584 297.019 607.707C297.019 635.531 297.809 636.58 325.437 628.443C344.908 622.669 362.8 613.482 367.537 591.433C372.01 570.172 358.59 556.26 343.592 543.924C339.119 540.249 334.646 537.099 330.173 533.687C318.333 524.762 307.018 515.838 298.598 501.664ZM300.44 435.781C299.387 430.268 301.756 424.231 295.441 422.394C289.652 420.819 286.758 425.544 284.389 429.743C278.601 439.193 275.969 449.692 273.601 460.192C272.812 463.604 272.023 467.541 277.548 467.803C286.231 468.066 295.178 468.591 296.756 456.517C297.546 449.167 299.124 442.08 300.44 435.781Z" fill="#EE41FC"/>
<path d="M407.858 327.808C433.53 327.543 459.202 327.543 484.874 327.014C491.685 326.75 493.781 329.394 493.781 336.269C493.519 401.842 493.519 467.15 493.257 532.723C475.182 532.723 456.845 532.723 438.77 532.459C444.009 502.316 454.487 473.232 461.822 443.618C462.87 439.916 463.394 435.95 464.966 432.248C468.633 423.259 464.965 420.879 456.321 421.143C436.412 421.408 416.241 421.143 396.332 421.143C397.642 419.557 398.951 417.706 400.523 416.12C427.505 388.092 429.863 360.594 407.858 327.808Z" fill="#021B32"/>
<path d="M529.512 532.723C529.512 461.643 529.512 390.563 529.512 319.483C541.859 319.483 553.942 319.22 566.289 319.746C589.405 320.536 599.125 332.119 594.396 354.76C584.939 399.251 571.542 442.688 564.187 487.442C561.823 502.448 559.722 517.717 557.62 532.723C548.163 532.723 538.706 532.723 529.512 532.723Z" fill="#021B32"/>
<path d="M27.984 639.917C31.6477 616.18 35.3114 592.442 38.7135 568.704C42.1155 549.978 45.7793 531.252 49.1813 512.525C51.5366 499.074 50.7513 498.546 38.1899 503.03C36.0963 503.821 34.5263 504.876 32.4327 505.931C30.6008 506.195 28.7689 505.931 27.1987 506.459C5.47791 515.427 8.61815 511.206 1.55234 493.008C-1.84972 484.567 0.505805 480.084 8.35671 476.919C14.3757 474.545 19.8713 471.116 25.6286 468.215C50.7515 456.874 75.6126 445.532 100.735 434.191C100.735 464.259 100.735 494.326 100.735 524.394C91.5761 522.548 92.3614 529.142 92.0997 534.944C91.838 546.022 95.2398 557.099 91.5761 568.968C83.4635 564.484 76.3977 560.528 69.3319 556.308C66.7149 554.989 64.0981 552.615 60.9577 554.989C57.2939 558.154 59.9108 561.319 61.481 564.22C67.7617 575.562 74.0425 586.903 80.5849 598.508C76.1361 604.574 69.0704 608.531 65.93 615.652C59.911 619.345 56.5087 624.883 53.8917 631.213C52.3215 633.851 50.7516 636.752 48.9197 639.39C42.3773 639.917 35.3115 639.917 27.984 639.917Z" fill="#A359DB"/>
<path d="M439.069 532.723C457.219 532.723 475.631 532.723 493.781 532.985C493.781 566.253 493.781 599.259 493.781 632.527C475.105 622.834 468.53 603.712 457.482 584.066C453.8 598.735 449.328 611.046 448.013 623.62C446.435 637.504 440.648 641.695 426.97 640.909C408.557 639.599 408.031 640.385 413.292 622.834C422.235 592.71 428.022 562.061 439.069 532.723Z" fill="#A359DB"/>
<path d="M438.443 71.8174C438.443 96.2251 438.707 120.633 438.443 145.041C438.443 160.263 432.37 166.299 416.791 166.562C382.467 167.611 380.09 165.249 380.09 131.131C380.09 116.696 380.09 102.261 380.09 88.0892C389.068 79.9533 397.253 71.5549 398.573 58.6949C402.005 50.0341 403.062 41.3733 399.365 32.45C401.477 32.1876 403.854 31.6628 405.966 31.4003C415.735 45.835 433.162 53.9708 438.443 71.8174ZM417.055 108.56C417.055 119.321 417.055 130.344 417.055 141.104C417.055 143.991 416.792 147.665 421.28 147.665C424.713 147.665 425.241 144.778 425.241 142.154C425.241 120.37 425.241 98.5872 425.241 77.0664C425.241 74.1794 424.448 71.8174 421.016 71.8174C417.319 71.8174 417.055 74.7044 417.055 77.3289C417.055 87.8269 417.055 98.3247 417.055 108.56Z" fill="#021B32"/>
<path d="M351.821 96.8313C351.821 113.314 352.085 129.796 351.821 146.278C351.557 160.667 345.484 166.423 330.962 166.685C330.434 166.685 330.17 166.685 329.642 166.685C296.109 167.208 293.732 165.115 293.732 132.15C293.732 123.517 293.469 114.883 293.469 106.25C293.733 95.7847 293.732 85.3198 293.996 74.5933C300.069 77.2095 306.406 71.4538 312.479 74.5933C314.327 79.5641 318.024 82.7036 322.513 85.5815C330.434 93.9534 340.995 96.0464 351.821 96.8313Z" fill="#021B32"/>
<path d="M476.528 292.348C474.454 271.439 473.158 250.269 470.306 229.361C469.01 219.429 471.084 215.77 481.194 217.077C484.565 217.6 487.934 216.815 491.304 216.554C494.156 216.554 497.008 216.554 499.86 216.554C519.302 217.6 519.043 217.6 516.192 237.201C513.599 255.497 511.784 273.792 509.451 292.087C498.304 292.348 487.416 292.348 476.528 292.348Z" fill="#7BB9D2"/>
<path d="M528.43 640.353C528.43 626.308 528.693 611.999 528.693 597.954C540.537 598.749 552.117 599.544 563.961 597.689C569.225 606.169 575.805 613.324 585.016 616.504C594.754 619.949 593.702 627.633 592.912 634.788C591.859 643.798 584.227 640.353 579.489 640.353C562.645 640.618 545.537 640.353 528.43 640.353Z" fill="#A359DB"/>
<path d="M304.346 51.771C303.559 31.1768 312.21 15.3969 329.51 6.03593C347.86 -3.85998 366.209 -1.18551 383.248 11.1175C385.083 12.4548 386.918 13.5246 388.752 14.5944C388.228 16.4666 387.704 18.3389 387.18 20.2111C373.811 17.0016 362.801 21.2809 354.413 32.2467C344.714 30.6419 335.539 27.6999 327.151 22.8857C324.268 29.3046 321.908 34.6538 319.287 40.2704C316.928 42.9449 314.831 45.6195 312.472 48.2941C309.588 49.3639 308.015 52.8408 304.346 51.771Z" fill="#021B32"/>
<path d="M249.075 639.917C249.348 594.277 255.895 549.163 258.623 503.787C259.169 495.872 259.714 487.957 260.26 480.307C260.533 476.349 261.079 471.601 266.808 472.128C271.718 472.656 270.627 477.405 270.627 480.57C268.445 509.327 266.535 538.083 264.08 566.839C261.897 591.111 259.442 615.382 256.987 639.917C253.986 639.917 251.53 639.917 249.075 639.917Z" fill="#F8AFFC"/>
<path d="M407.37 328.079C429.508 360.554 427.136 388.276 399.728 416.261C398.146 417.846 397.092 419.694 395.511 421.278C391.558 422.334 387.868 423.39 383.915 424.446C382.334 420.222 384.179 417.318 387.341 414.149C419.23 384.843 421.338 361.61 395.511 328.079C399.991 328.079 403.681 328.079 407.37 328.079Z" fill="#A359DB"/>
<path d="M564.89 597.644C552.816 599.486 541.01 598.697 528.935 597.907C528.667 592.12 527.594 586.332 529.741 580.808C533.497 579.229 538.058 578.44 540.205 573.178C536.717 571.6 533.229 569.759 529.741 568.18C529.472 565.023 529.204 561.866 528.935 558.709C539.668 560.288 547.986 567.128 556.84 572.652C556.84 573.968 557.109 575.283 557.109 576.335C550.669 580.281 544.498 584.228 535.643 589.752C546.108 589.752 553.621 589.752 560.865 589.752C565.427 590.804 565.695 593.961 564.89 597.644Z" fill="#EFEEE2"/>
<path d="M499.449 216.554C496.477 216.554 493.505 216.554 490.533 216.554C492.154 209.705 493.505 202.592 495.126 195.742C498.098 183.888 501.34 172.296 504.312 160.441C505.123 157.017 505.934 153.065 510.797 153.855C515.931 154.909 514.31 158.861 513.229 162.285C508.906 180.463 504.313 198.64 499.449 216.554Z" fill="#A359DB"/>
<path d="M304.657 51.0357C308.406 52.0799 310.013 48.6862 312.691 47.6419C310.548 56.518 309.209 65.133 312.958 74.0092C306.799 70.8764 300.372 76.6198 294.213 74.0092C285.109 59.9118 288.054 53.6463 304.657 51.0357Z" fill="#F7AD8C"/>
<path d="M387.67 20.4994C388.187 18.6758 388.704 16.8521 389.221 15.0285C395.169 9.55768 401.892 5.12901 409.132 12.684C415.597 19.4574 411.977 25.9703 406.288 31.4411C404.219 31.7017 401.892 32.2226 399.823 32.4831C395.686 28.5754 391.549 24.6677 387.67 20.4994Z" fill="#F7AD8C"/>
<path d="M49.8452 639.392C51.4122 636.768 52.9793 633.88 54.8075 631.255C59.7698 631.255 64.993 631.255 69.9552 631.255C80.402 631.518 91.1103 631.78 101.557 632.305C101.557 634.93 101.557 637.555 101.818 639.917C84.5809 639.655 67.3436 639.655 49.8452 639.392Z" fill="#97382F"/>
<path d="M186.008 632.338C186.008 634.783 186.274 637.228 186.274 639.673C169.761 639.673 152.98 639.673 136.467 639.917C136.467 637.717 136.733 635.272 136.733 633.071C152.981 632.827 169.494 632.582 186.008 632.338Z" fill="#97382F"/>
<path d="M529.775 532.723C538.984 532.723 548.193 532.723 557.664 532.723C557.401 537.054 556.875 541.385 556.612 545.716C547.667 545.716 538.721 545.716 529.512 545.716C529.776 541.385 529.775 537.054 529.775 532.723Z" fill="#A359DB"/>
<path d="M556.314 572.786C547.466 567.446 539.154 560.504 528.43 558.635C528.43 556.766 528.43 554.898 528.698 553.296C538.082 553.296 547.466 553.563 556.582 553.563C556.582 559.703 556.582 566.378 556.314 572.786Z" fill="#A359DB"/>
<path d="M556.992 553.296C547.744 553.296 538.496 553.034 529.512 553.034C529.512 550.682 529.512 548.068 529.512 545.716C538.496 545.716 547.48 545.716 556.727 545.716C557.784 548.33 558.049 550.943 556.992 553.296Z" fill="#F7FAE0"/>
<path d="M559.83 590.11C552.677 590.11 545.524 590.11 534.926 590.11C543.669 584.314 549.762 580.174 556.121 576.034C557.446 580.726 558.77 585.418 559.83 590.11Z" fill="#A359DB"/>
<path d="M167.867 399.123C167.867 396.518 167.867 393.912 167.867 391.307C174.463 391.828 179.475 387.92 185.016 385.575C218.521 370.203 251.763 354.831 285.269 339.459C288.962 337.895 294.503 331.903 297.405 339.198C299.515 344.669 292.656 345.451 288.962 347.014C254.401 363.168 219.84 379.061 185.279 394.954C179.739 397.56 174.463 400.686 167.867 399.123Z" fill="#A359DB"/>
<path d="M100.735 583.605C93.4943 585.184 89.0979 579.131 81.3396 576.5C84.1843 582.289 87.0292 586.499 88.3223 591.499C90.1325 597.815 90.3911 603.867 80.8225 599.394C74.6158 588.078 68.1505 576.763 61.9438 565.185C60.3922 562.29 57.8062 558.869 61.4267 555.975C64.2714 553.606 67.116 555.711 69.7021 557.29C76.6846 561.237 83.6671 565.185 91.684 569.921C95.5632 557.817 91.9428 546.765 92.2014 535.976C92.46 530.45 91.4254 523.608 100.735 525.45C100.735 544.659 100.735 564.132 100.735 583.605Z" fill="#EFEEE2"/>
<path d="M529.474 568.454C533.096 569.943 536.718 571.68 540.34 573.169C538.111 578.38 533.375 578.876 529.474 580.365C528.081 576.395 528.081 572.425 529.474 568.454Z" fill="#A359DB"/>
<path d="M378.459 194.899C371.142 187.138 363.553 179.645 356.236 171.884C354.068 169.743 351.358 167.335 354.339 164.123C357.32 160.912 360.301 162.785 362.198 165.194C369.516 174.025 379.814 180.448 384.421 191.152C382.253 192.49 380.356 193.561 378.459 194.899Z" fill="#EE41FC"/>
<path d="M428.545 233.374C428.545 234.454 428.815 235.264 428.815 236.344C422.329 245.794 413.68 251.464 401.789 251.194C398.816 251.194 394.762 251.464 394.222 247.414C393.681 243.364 397.195 242.014 400.438 242.014C408.005 241.744 414.491 239.584 419.086 233.104C422.059 228.784 425.572 230.944 428.545 233.374Z" fill="#A359DB"/>
<path d="M422.359 203.561C424.165 205.75 425.198 207.939 423.908 210.615C413.329 210.858 402.493 211.101 391.914 211.101C388.818 211.101 384.174 211.831 384.432 206.966C384.69 203.074 388.818 203.804 391.656 203.804C401.977 203.804 412.297 203.804 422.359 203.561Z" fill="#A359DB"/>
<path d="M430.98 251.779C430.98 251.779 430.98 252.045 430.98 251.779C428.143 262.686 420.148 268.272 411.638 273.592C409.059 275.188 405.448 275.986 403.643 273.06C401.321 269.602 404.416 266.942 407.253 266.144C416.538 263.484 418.343 248.055 430.98 251.779Z" fill="#A359DB"/>
<path d="M352.077 96.3666C341.324 95.577 330.834 93.4717 322.703 85.0502C333.456 85.8397 344.209 85.5764 354.175 80.8393C358.109 86.1028 363.354 88.9977 369.911 86.6291C375.418 84.5238 378.828 79.7867 376.73 74.5232C374.632 69.2598 370.173 74.2599 366.764 75.0495C363.354 75.839 360.469 77.9444 356.797 76.8917C358.371 72.1546 355.224 61.8909 365.714 66.3648C379.09 71.8914 389.056 67.6807 398.497 58.4696C397.186 71.3651 389.056 79.7866 380.139 87.945C371.747 93.2085 362.305 96.1034 352.077 96.3666Z" fill="#F7AD8C"/>
<path d="M299.965 435.788C298.678 442.041 297.133 449.074 296.103 456.368C294.558 468.352 286.06 468.091 277.305 467.57C271.897 467.31 272.67 463.402 273.442 460.016C275.76 449.595 278.335 438.914 284 429.797C286.575 425.889 289.407 421.2 294.815 422.502C301.253 424.326 298.935 430.318 299.965 435.788Z" fill="#021B32"/>
<path d="M354.441 81.0257C344.498 85.7214 333.771 85.9822 323.043 85.1996C318.595 82.5909 314.931 79.1996 313.1 74.243C309.437 65.6343 310.745 56.7648 312.838 47.8952C315.193 45.2865 317.286 42.6778 319.641 40.0692C328.799 38.5039 337.695 35.3735 347.376 39.5474C353.656 42.1561 353.918 36.6778 354.703 32.2431C363.337 21.5474 374.065 17.3735 387.409 20.5039C391.334 24.417 395.52 28.5908 399.445 32.5039C403.108 41.3734 402.061 49.9821 398.66 58.5908C389.241 67.7213 379.298 71.8952 365.953 66.4169C355.487 62.243 358.889 72.1561 357.058 76.8517H357.319C355.226 77.3735 354.703 78.9388 354.441 81.0257ZM365.169 53.1126C370.925 62.504 378.774 62.7648 386.886 56.5039C393.689 51.0257 395.782 43.4604 390.287 35.8951C385.316 28.8517 378.251 25.1995 370.14 30.4169C360.982 36.1561 358.627 43.9822 365.169 53.1126ZM326.182 71.6343C332.462 81.8083 340.312 77.8952 346.591 72.4169C353.918 65.8952 353.394 57.8083 347.115 50.5039C340.835 43.4605 330.107 43.7214 324.351 51.0257C318.595 58.0692 316.24 65.6343 326.182 71.6343Z" fill="#A359DB"/>
<path d="M355.186 31.9935C354.387 36.2245 354.12 42.0421 347.72 39.3978C337.854 35.4312 328.788 38.6045 319.455 39.9267C322.122 34.3735 324.521 28.8202 327.455 22.7382C335.987 27.7625 345.32 30.6713 355.186 31.9935Z" fill="#F7AD8C"/>
<path d="M354.104 81.3699C355.183 80.0904 356.262 78.8108 357.072 77.5313H356.802C360.579 78.299 363.547 76.5075 367.054 75.4839C370.292 74.7161 374.879 69.598 377.307 74.9722C379.466 80.0904 375.688 84.9526 370.292 86.744C363.547 89.3031 358.151 86.4882 354.104 81.3699Z" fill="#EE41FC"/>
<path d="M326.202 71.6771C316.248 65.711 318.867 58.1886 324.106 51.1849C329.869 43.6624 340.609 43.6623 346.896 50.666C353.444 57.9291 353.968 65.9703 346.372 72.4552C340.347 77.9026 332.489 81.7936 326.202 71.6771C334.06 72.1959 342.181 72.1959 345.848 63.117C347.158 59.7449 344.8 53.7787 342.967 56.1133C338.252 62.3388 325.678 60.523 326.202 71.6771Z" fill="#F7AD8C"/>
<path d="M365.442 52.8918C358.983 43.6147 361.05 35.8838 370.092 30.4722C378.36 25.5759 385.077 28.9259 389.986 35.8837C395.411 43.3569 393.344 50.8302 386.627 56.2419C379.135 62.6843 371.384 62.4266 365.442 52.8918C371.901 50.5726 380.426 53.9226 384.302 45.1609C385.852 41.8109 387.661 38.4608 382.493 36.9146C378.618 36.1415 366.217 47.9956 365.442 52.8918Z" fill="#F7AD8C"/>
<path d="M357.352 76.8767C356.171 78.3204 355.285 79.7641 354.104 81.2078C354.399 79.1866 354.99 77.4542 357.352 76.8767Z" fill="#F7AD8C"/>
<path d="M326.071 71.2814C325.535 60.0901 338.393 61.9119 343.215 55.6656C344.822 53.5835 347.5 59.3093 346.161 62.6927C342.143 71.802 334.107 71.8019 326.071 71.2814C326.071 71.2814 325.803 71.2814 326.071 71.2814Z" fill="#1D1C4B"/>
<path d="M364.931 53.0558C365.751 47.7634 378.594 35.591 382.966 36.914C388.431 38.5017 386.518 41.9418 384.879 45.3818C380.78 54.1142 371.763 50.9388 364.931 53.0558Z" fill="#1D1C4B"/>
</svg>
